<svg width="737" height="750" viewBox="0 0 737 750" fill="none" xmlns="http://www.w3.org/2000/svg">
<path d="M730.155 375.225C730.155 578.519 568.286 743.121 368.858 743.121C169.429 743.121 7.56046 578.519 7.56046 375.225C7.56046 171.93 169.429 7.3284 368.858 7.3284C568.286 7.3284 730.155 171.93 730.155 375.225Z" fill="white" stroke="#0022FF" stroke-width="13.1981"/>
<circle cx="370.507" cy="376.874" r="36.2947" fill="#0022FF"/>
<circle cx="370.507" cy="376.874" r="85.7874" stroke="#0022FF" stroke-width="6.59903"/>
<path d="M697.159 376.874C697.159 555.457 552.389 700.227 373.807 700.227C195.224 700.227 50.4541 555.457 50.4541 376.874C50.4541 198.291 195.224 53.5215 373.807 53.5215C552.389 53.5215 697.159 198.291 697.159 376.874Z" stroke="#0022FF" stroke-width="6.59903"/>
<path d="M535.483 378.524C535.483 470.549 460.883 545.15 368.858 545.15C276.833 545.15 202.232 470.549 202.232 378.524C202.232 286.499 276.833 211.898 368.858 211.898C460.883 211.898 535.483 286.499 535.483 378.524Z" stroke="#0022FF" stroke-width="6.59903"/>
<path d="M369.475 93.2547L362.253 164.056L362.253 200.35" stroke="#0022FF" stroke-width="3.29952"/>
<path d="M280.279 114.104L340.812 170.654L345.761 185.502L347.411 200.35" stroke="#0022FF" stroke-width="3.29952"/>
<path d="M438.147 107.963L387.005 173.954L380.53 188.392L380.53 202" stroke="#0022FF" stroke-width="3.29952"/>
<path d="M494.239 107.964L415.051 177.253L403.502 188.802L401.853 203.649" stroke="#0022FF" stroke-width="3.29952"/>
<path d="M523.935 121.162L434.848 182.203L421.65 193.751L418.35 208.599" stroke="#0022FF" stroke-width="3.29952" stroke-dasharray="13.2 13.2"/>
<path d="M550.331 162.406L462.894 197.051L449.03 204.363L443.097 215.198" stroke="#0022FF" stroke-width="3.29952"/>
<path d="M566.828 190.451L507.437 208.599L476.091 220.147L462.165 238.295" stroke="#0022FF" stroke-width="3.29952"/>
<path d="M591.575 220.147L540.433 238.295L510.737 249.843L499.189 261.391" stroke="#0022FF" stroke-width="3.29952"/>
<path d="M641.068 216.848L545.382 271.29L528.884 279.538L515.686 287.787" stroke="#0022FF" stroke-width="3.29952" stroke-dasharray="13.2 13.2"/>
<path d="M670.763 282.838L646.017 289.437L565.179 383.473L556.93 393.372L551.981 398.321L535.483 395.022" stroke="#0022FF" stroke-width="3.29952" stroke-dasharray="13.2 13.2"/>
<path d="M680.661 329.031L652.615 330.681L568.478 428.017L563.529 432.966L507.437 498.956L497.539 489.058" stroke="#0022FF" stroke-width="3.29952" stroke-dasharray="13.2 13.2"/>
<path d="M682.312 368.935L654.266 368.935L573.428 465.961L566.829 474.21L532.184 513.804L492.59 546.799L451.346 571.546L433.198 576.495L411.751 571.546L400.203 561.647L400.203 541.85" stroke="#0022FF" stroke-width="3.29952" stroke-dasharray="13.2 13.2"/>
<path d="M682.311 406.57L654.265 399.97L575.077 489.057L504.137 569.896L477.741 584.743L429.898 601.282L368.857 611.14L316.065 606.191L299.568 594.642L284.642 584.743L278.121 566.596L281.42 548.449L302.867 505.555" stroke="#0022FF" stroke-width="3.29952" stroke-dasharray="13.2 13.2"/>
<path d="M617.971 264.691L599.824 272.939L545.147 329.55L528.884 331.047" stroke="#0022FF" stroke-width="3.29952"/>
<path d="M272.98 209.371C273.406 208.565 273.099 207.567 272.294 207.141L259.171 200.194C258.366 199.767 257.368 200.075 256.941 200.88C256.515 201.685 256.822 202.683 257.627 203.11L269.292 209.285L263.116 220.949C262.69 221.754 262.997 222.753 263.803 223.179C264.608 223.605 265.606 223.298 266.033 222.493L272.98 209.371ZM229.113 223.374L272.007 210.176L271.036 207.022L228.143 220.22L229.113 223.374Z" fill="#0022FF"/>
<path d="M269.872 208.599L317.715 192.101L327.613 195.4L332.563 203.649" stroke="#0022FF" stroke-width="3.29952"/>
<path d="M185.734 183.852L316.065 175.603L327.614 175.603L335.862 187.152L339.162 203.65" stroke="#0022FF" stroke-width="3.29952"/>
<rect x="85.1674" y="432.149" width="28.2627" height="31.9805" transform="rotate(-14.435 85.1674 432.149)" stroke="#0022FF" stroke-width="3.29952"/>
<path d="M415.051 376.874C415.051 401.475 395.108 421.418 370.507 421.418C345.907 421.418 325.964 401.475 325.964 376.874C325.964 352.273 345.907 332.331 370.507 332.331C395.108 332.331 415.051 352.273 415.051 376.874Z" stroke="#0022FF" stroke-width="3.29952"/>
<line x1="51.1241" y1="230.188" x2="80.8198" y2="243.386" stroke="#0022FF" stroke-width="3.29952"/>
<line x1="41.0774" y1="249.927" x2="70.773" y2="259.826" stroke="#0022FF" stroke-width="3.29952"/>
<line x1="34.4785" y1="269.724" x2="64.1741" y2="279.623" stroke="#0022FF" stroke-width="3.29952"/>
<line x1="27.6628" y1="296.065" x2="59.5977" y2="302.08" stroke="#0022FF" stroke-width="3.29952"/>
<line x1="24.2447" y1="325.742" x2="56.5327" y2="329.417" stroke="#0022FF" stroke-width="3.29952"/>
<line x1="20.7585" y1="362.026" x2="53.7537" y2="362.026" stroke="#0022FF" stroke-width="3.29952"/>
<line x1="20.6687" y1="406.776" x2="50.1346" y2="403.09" stroke="#0022FF" stroke-width="3.29952"/>
<line x1="37.0917" y1="428.025" x2="70.0869" y2="424.725" stroke="#0022FF" stroke-width="3.29952"/>
<line x1="33.5789" y1="461.056" x2="89.6707" y2="447.858" stroke="#0022FF" stroke-width="3.29952"/>
<line x1="56.3154" y1="537.075" x2="82.7116" y2="523.877" stroke="#0022FF" stroke-width="3.29952"/>
<line x1="92.4735" y1="537.152" x2="118.87" y2="520.654" stroke="#0022FF" stroke-width="3.29952"/>
<line x1="95.6576" y1="576.825" x2="122.054" y2="557.028" stroke="#0022FF" stroke-width="3.29952"/>
<line x1="115.335" y1="600.021" x2="151.629" y2="567.026" stroke="#0022FF" stroke-width="3.29952"/>
<line x1="220.597" y1="659.814" x2="233.795" y2="636.718" stroke="#0022FF" stroke-width="3.29952"/>
<line x1="190.934" y1="646.56" x2="207.432" y2="620.164" stroke="#0022FF" stroke-width="3.29952"/>
<line x1="161.385" y1="619.965" x2="181.182" y2="596.868" stroke="#0022FF" stroke-width="3.29952"/>
<line x1="141.573" y1="636.48" x2="158.071" y2="616.683" stroke="#0022FF" stroke-width="3.29952"/>
<line x1="174.463" y1="663.017" x2="187.661" y2="643.22" stroke="#0022FF" stroke-width="3.29952"/>
<line x1="154.771" y1="652.978" x2="171.269" y2="633.18" stroke="#0022FF" stroke-width="3.29952"/>
<line x1="187.619" y1="689.48" x2="207.416" y2="656.484" stroke="#0022FF" stroke-width="3.29952"/>
<line x1="217.254" y1="696.19" x2="230.452" y2="669.793" stroke="#0022FF" stroke-width="3.29952"/>
<line x1="243.65" y1="673.093" x2="256.848" y2="646.697" stroke="#0022FF" stroke-width="3.29952"/>
<line x1="246.894" y1="712.812" x2="260.092" y2="679.817" stroke="#0022FF" stroke-width="3.29952"/>
<line x1="266.677" y1="679.85" x2="276.576" y2="653.454" stroke="#0022FF" stroke-width="3.29952"/>
<line x1="269.977" y1="709.546" x2="279.876" y2="683.15" stroke="#0022FF" stroke-width="3.29952"/>
<line x1="289.718" y1="686.629" x2="296.317" y2="660.233" stroke="#0022FF" stroke-width="3.29952"/>
<line x1="349.06" y1="736.521" x2="349.06" y2="700.227" stroke="#0022FF" stroke-width="3.29952"/>
<line x1="293.007" y1="716.373" x2="297.974" y2="693.594" stroke="#0022FF" stroke-width="3.29952"/>
<line x1="316.088" y1="716.453" x2="319.387" y2="696.656" stroke="#0022FF" stroke-width="3.29952"/>
<line x1="358.959" y1="700.227" x2="358.959" y2="667.232" stroke="#0022FF" stroke-width="3.29952"/>
<line x1="342.462" y1="700.227" x2="342.462" y2="680.43" stroke="#0022FF" stroke-width="3.29952"/>
<line x1="306.285" y1="693.015" x2="312.884" y2="676.518" stroke="#0022FF" stroke-width="3.29952"/>
<line x1="325.996" y1="699.903" x2="329.295" y2="683.406" stroke="#0022FF" stroke-width="3.29952"/>
<line x1="378.756" y1="720.024" x2="378.756" y2="700.227" stroke="#0022FF" stroke-width="3.29952"/>
<ellipse cx="172.536" cy="254.792" rx="3.29952" ry="3.29952" fill="#0022FF"/>
<ellipse cx="182.435" cy="261.391" rx="3.29952" ry="3.29952" fill="#0022FF"/>
<ellipse cx="169.237" cy="264.691" rx="3.29952" ry="3.29952" fill="#0022FF"/>
<ellipse cx="162.638" cy="281.188" rx="3.29952" ry="3.29952" fill="#0022FF"/>
<ellipse cx="152.739" cy="284.488" rx="3.29952" ry="3.29952" fill="#0022FF"/>
<ellipse cx="162.638" cy="304.285" rx="3.29952" ry="3.29952" fill="#0022FF"/>
<ellipse cx="156.039" cy="300.985" rx="3.29952" ry="3.29952" fill="#0022FF"/>
<ellipse cx="152.739" cy="310.884" rx="3.29952" ry="3.29952" fill="#0022FF"/>
<ellipse cx="156.039" cy="337.28" rx="3.29952" ry="3.29952" fill="#0022FF"/>
<ellipse cx="139.541" cy="324.082" rx="3.29952" ry="3.29952" fill="#0022FF"/>
<ellipse cx="139.541" cy="333.98" rx="3.29952" ry="3.29952" fill="#0022FF"/>
<ellipse cx="156.039" cy="353.778" rx="3.29952" ry="3.29952" fill="#0022FF"/>
<ellipse cx="146.14" cy="350.478" rx="3.29952" ry="3.29952" fill="#0022FF"/>
<ellipse cx="146.14" cy="360.377" rx="3.29952" ry="3.29952" fill="#0022FF"/>
<ellipse cx="152.739" cy="386.773" rx="3.29952" ry="3.29952" fill="#0022FF"/>
<ellipse cx="142.841" cy="383.473" rx="3.29952" ry="3.29952" fill="#0022FF"/>
<ellipse cx="142.841" cy="373.575" rx="3.29952" ry="3.29952" fill="#0022FF"/>
<ellipse cx="132.942" cy="376.874" rx="3.29952" ry="3.29952" fill="#0022FF"/>
<ellipse cx="146.14" cy="399.971" rx="3.29952" ry="3.29952" fill="#0022FF"/>
<ellipse cx="156.039" cy="403.27" rx="3.29952" ry="3.29952" fill="#0022FF"/>
<ellipse cx="146.14" cy="409.869" rx="3.29952" ry="3.29952" fill="#0022FF"/>
<ellipse cx="149.44" cy="423.067" rx="3.29952" ry="3.29952" fill="#0022FF"/>
<ellipse cx="142.841" cy="436.266" rx="3.29952" ry="3.29952" fill="#0022FF"/>
<ellipse cx="156.039" cy="449.464" rx="3.29952" ry="3.29952" fill="#0022FF"/>
<ellipse cx="165.937" cy="446.164" rx="3.29952" ry="3.29952" fill="#0022FF"/>
<ellipse cx="159.338" cy="459.362" rx="3.29952" ry="3.29952" fill="#0022FF"/>
<ellipse cx="156.039" cy="475.86" rx="3.29952" ry="3.29952" fill="#0022FF"/>
<ellipse cx="175.836" cy="475.86" rx="3.29952" ry="3.29952" fill="#0022FF"/>
<ellipse cx="159.338" cy="482.459" rx="3.29952" ry="3.29952" fill="#0022FF"/>
<ellipse cx="156.039" cy="512.154" rx="3.29952" ry="3.29952" fill="#0022FF"/>
<ellipse cx="182.435" cy="489.058" rx="3.29952" ry="3.29952" fill="#0022FF"/>
<ellipse cx="172.536" cy="495.657" rx="3.29952" ry="3.29952" fill="#0022FF"/>
<ellipse cx="179.135" cy="502.256" rx="3.29952" ry="3.29952" fill="#0022FF"/>
<ellipse cx="212.13" cy="502.256" rx="3.29952" ry="3.29952" fill="#0022FF"/>
<ellipse cx="185.734" cy="515.454" rx="3.29952" ry="3.29952" fill="#0022FF"/>
<ellipse cx="179.135" cy="522.053" rx="3.29952" ry="3.29952" fill="#0022FF"/>
<ellipse cx="198.933" cy="518.753" rx="3.29952" ry="3.29952" fill="#0022FF"/>
<ellipse cx="192.333" cy="531.951" rx="3.29952" ry="3.29952" fill="#0022FF"/>
<line x1="421.672" y1="716.996" x2="418.373" y2="697.199" stroke="#0022FF" stroke-width="3.29952"/>
<line x1="441.479" y1="693.951" x2="434.88" y2="660.956" stroke="#0022FF" stroke-width="3.29952"/>
<line x1="401.869" y1="697.161" x2="398.57" y2="674.064" stroke="#0022FF" stroke-width="3.29952"/>
<line x1="467.765" y1="686.527" x2="474.282" y2="706.919" stroke="#0022FF" stroke-width="3.29952"/>
<line x1="474.527" y1="684.251" x2="467.928" y2="664.454" stroke="#0022FF" stroke-width="3.29952"/>
<line x1="500.98" y1="674.501" x2="487.782" y2="644.805" stroke="#0022FF" stroke-width="3.29952"/>
<line x1="524.109" y1="664.67" x2="514.21" y2="644.873" stroke="#0022FF" stroke-width="3.29952"/>
<line x1="543.967" y1="674.68" x2="534.069" y2="658.182" stroke="#0022FF" stroke-width="3.29952"/>
<line x1="540.683" y1="651.609" x2="524.186" y2="625.212" stroke="#0022FF" stroke-width="3.29952"/>
<line x1="573.836" y1="628.724" x2="550.739" y2="602.328" stroke="#0022FF" stroke-width="3.29952"/>
<line x1="563.806" y1="668.147" x2="550.608" y2="648.35" stroke="#0022FF" stroke-width="3.29952"/>
<line x1="580.409" y1="655.09" x2="563.911" y2="635.293" stroke="#0022FF" stroke-width="3.29952"/>
<line x1="600.307" y1="609.007" x2="573.911" y2="582.611" stroke="#0022FF" stroke-width="3.29952"/>
<line x1="620.104" y1="618.905" x2="603.606" y2="602.408" stroke="#0022FF" stroke-width="3.29952"/>
<line x1="600.307" y1="638.703" x2="583.809" y2="622.205" stroke="#0022FF" stroke-width="3.29952"/>
<line x1="616.885" y1="585.985" x2="590.489" y2="562.889" stroke="#0022FF" stroke-width="3.29952"/>
<line x1="640.078" y1="589.363" x2="626.88" y2="579.465" stroke="#0022FF" stroke-width="3.29952"/>
<line x1="633.456" y1="569.548" x2="603.76" y2="546.452" stroke="#0022FF" stroke-width="3.29952"/>
<line x1="646.751" y1="549.822" x2="617.056" y2="530.025" stroke="#0022FF" stroke-width="3.29952"/>
<line x1="144.974" y1="606.674" x2="161.471" y2="590.176" stroke="#0022FF" stroke-width="3.29952"/>
<line x1="97.1692" y1="493.922" x2="77.3721" y2="500.521" stroke="#0022FF" stroke-width="3.29952"/>
<line x1="49.9324" y1="490.792" x2="69.7295" y2="484.193" stroke="#0022FF" stroke-width="3.29952"/>
<line x1="53.7534" y1="355.427" x2="70.251" y2="355.427" stroke="#0022FF" stroke-width="3.29952"/>
<line x1="30.657" y1="381.823" x2="47.1546" y2="381.823" stroke="#0022FF" stroke-width="3.29952"/>
<line x1="53.7534" y1="395.022" x2="70.251" y2="395.022" stroke="#0022FF" stroke-width="3.29952"/>
<line x1="60.7529" y1="309.283" x2="87.149" y2="315.882" stroke="#0022FF" stroke-width="3.29952"/>
<line x1="67.3518" y1="276.288" x2="93.7479" y2="282.887" stroke="#0022FF" stroke-width="3.29952"/>
<line x1="77.372" y1="253.227" x2="87.2706" y2="256.527" stroke="#0022FF" stroke-width="3.29952"/>
<line x1="87.2707" y1="230.13" x2="97.1693" y2="233.43" stroke="#0022FF" stroke-width="3.29952"/>
<line x1="100.862" y1="203.927" x2="110.76" y2="210.526" stroke="#0022FF" stroke-width="3.29952"/>
<line x1="100.937" y1="170.984" x2="114.135" y2="180.883" stroke="#0022FF" stroke-width="3.29952"/>
<line x1="120.659" y1="180.83" x2="130.558" y2="187.429" stroke="#0022FF" stroke-width="3.29952"/>
<line x1="635.139" y1="500.748" x2="664.834" y2="513.946" stroke="#0022FF" stroke-width="3.29952"/>
<line x1="651.488" y1="457.797" x2="681.184" y2="467.696" stroke="#0022FF" stroke-width="3.29952"/>
<line x1="680.662" y1="375.224" x2="697.159" y2="375.224" stroke="#0022FF" stroke-width="3.29952"/>
<line x1="673.663" y1="286.187" x2="700.059" y2="279.588" stroke="#0022FF" stroke-width="3.29952"/>
<line x1="673.663" y1="305.984" x2="700.059" y2="299.385" stroke="#0022FF" stroke-width="3.29952"/>
<line x1="647.054" y1="249.961" x2="680.049" y2="236.763" stroke="#0022FF" stroke-width="3.29952"/>
<line x1="663.552" y1="269.758" x2="696.547" y2="256.56" stroke="#0022FF" stroke-width="3.29952"/>
<line x1="646.865" y1="223.654" x2="676.561" y2="207.157" stroke="#0022FF" stroke-width="3.29952"/>
<line x1="610.382" y1="203.979" x2="636.778" y2="184.182" stroke="#0022FF" stroke-width="3.29952"/>
<line x1="636.778" y1="190.781" x2="649.976" y2="180.883" stroke="#0022FF" stroke-width="3.29952"/>
<line x1="607.083" y1="180.883" x2="620.281" y2="170.984" stroke="#0022FF" stroke-width="3.29952"/>
<line x1="613.505" y1="157.939" x2="626.703" y2="144.741" stroke="#0022FF" stroke-width="3.29952"/>
<line x1="587.219" y1="171.037" x2="607.017" y2="154.539" stroke="#0022FF" stroke-width="3.29952"/>
<line x1="560.627" y1="148.134" x2="580.424" y2="125.037" stroke="#0022FF" stroke-width="3.29952"/>
<line x1="573.911" y1="121.645" x2="590.408" y2="105.147" stroke="#0022FF" stroke-width="3.29952"/>
<line x1="527.717" y1="118.345" x2="544.215" y2="101.848" stroke="#0022FF" stroke-width="3.29952"/>
<line x1="471.206" y1="66.2662" x2="477.805" y2="43.1696" stroke="#0022FF" stroke-width="3.29952"/>
<line x1="471.26" y1="85.9041" x2="477.859" y2="69.4065" stroke="#0022FF" stroke-width="3.29952"/>
<line x1="504.415" y1="95.5" x2="511.014" y2="85.6015" stroke="#0022FF" stroke-width="3.29952"/>
<line x1="514.254" y1="82.3985" x2="527.452" y2="59.3019" stroke="#0022FF" stroke-width="3.29952"/>
<line x1="444.763" y1="86.2835" x2="448.063" y2="63.1868" stroke="#0022FF" stroke-width="3.29952"/>
<line x1="401.863" y1="53.3393" x2="405.162" y2="23.6436" stroke="#0022FF" stroke-width="3.29952"/>
<line x1="368.858" y1="76.6182" x2="368.858" y2="53.5216" stroke="#0022FF" stroke-width="3.29952"/>
<line x1="382.056" y1="53.5215" x2="382.056" y2="20.5263" stroke="#0022FF" stroke-width="3.29952"/>
<line x1="362.258" y1="50.222" x2="362.258" y2="17.2268" stroke="#0022FF" stroke-width="3.29952"/>
<line x1="312.815" y1="83.6172" x2="306.216" y2="57.221" stroke="#0022FF" stroke-width="3.29952"/>
<line x1="339.194" y1="70.3427" x2="335.895" y2="53.8451" stroke="#0022FF" stroke-width="3.29952"/>
<line x1="276.386" y1="36.5023" x2="286.285" y2="66.198" stroke="#0022FF" stroke-width="3.29952"/>
<line x1="269.957" y1="93.6372" x2="263.358" y2="73.8401" stroke="#0022FF" stroke-width="3.29952"/>
<line x1="233.459" y1="89.2034" x2="240.059" y2="105.701" stroke="#0022FF" stroke-width="3.29952"/>
<line x1="180.423" y1="121.781" x2="193.621" y2="138.278" stroke="#0022FF" stroke-width="3.29952"/>
<line x1="117.611" y1="111.746" x2="134.108" y2="128.244" stroke="#0022FF" stroke-width="3.29952"/>
<line x1="214.005" y1="123.643" x2="190.908" y2="84.0484" stroke="#0022FF" stroke-width="3.29952"/>
<line x1="161.471" y1="166.872" x2="141.674" y2="147.075" stroke="#0022FF" stroke-width="3.29952"/>
<line x1="160.627" y1="134.979" x2="173.825" y2="151.476" stroke="#0022FF" stroke-width="3.29952"/>
<line x1="332.575" y1="235.2" x2="329.276" y2="208.803" stroke="#0022FF" stroke-width="3.29952"/>
<line x1="408.585" y1="234.345" x2="418.484" y2="211.248" stroke="#0022FF" stroke-width="3.29952"/>
<line x1="458.342" y1="263.617" x2="478.139" y2="240.52" stroke="#0022FF" stroke-width="3.29952"/>
<line x1="484.934" y1="283.22" x2="504.731" y2="266.723" stroke="#0022FF" stroke-width="3.29952"/>
<line x1="491.755" y1="302.689" x2="513.991" y2="289.663" stroke="#0022FF" stroke-width="3.29952"/>
<line x1="498.538" y1="319.266" x2="521.635" y2="309.367" stroke="#0022FF" stroke-width="3.29952"/>
<line x1="505.788" y1="362.026" x2="535.483" y2="362.026" stroke="#0022FF" stroke-width="3.29952"/>
<line x1="502.846" y1="411.558" x2="532.541" y2="418.157" stroke="#0022FF" stroke-width="3.29952"/>
<line x1="493.408" y1="441.432" x2="516.504" y2="454.63" stroke="#0022FF" stroke-width="3.29952"/>
<line x1="483.747" y1="458.095" x2="503.544" y2="474.592" stroke="#0022FF" stroke-width="3.29952"/>
<line x1="478.124" y1="500.012" x2="461.626" y2="480.215" stroke="#0022FF" stroke-width="3.29952"/>
<line x1="421.713" y1="535.704" x2="415.114" y2="512.608" stroke="#0022FF" stroke-width="3.29952"/>
<line x1="458.222" y1="516.369" x2="445.023" y2="496.572" stroke="#0022FF" stroke-width="3.29952"/>
<line x1="398.576" y1="542.121" x2="388.677" y2="482.73" stroke="#0022FF" stroke-width="3.29952"/>
</svg>
