<svg width="191" height="175" viewBox="0 0 191 175" fill="none" xmlns="http://www.w3.org/2000/svg">
<circle cx="62.0018" cy="62.0018" r="59.236" fill="#0022FF" stroke="white" stroke-width="5.53176"/>
<path d="M36.6532 30.1982H59.8688C66.6484 30.1982 72.5367 30.9274 77.5337 32.386C82.5306 33.8446 86.6633 35.9379 89.9315 38.666C93.2268 41.367 95.6713 44.6623 97.2649 48.5518C98.8855 52.4143 99.6959 56.763 99.6959 61.5979C99.6959 66.1897 98.899 70.4439 97.3054 74.3604C95.7118 78.2499 93.2808 81.6263 90.0126 84.4894C86.7443 87.3255 82.6117 89.5539 77.6147 91.1745C72.6178 92.7681 66.7295 93.5649 59.9498 93.5649L36.6532 93.5244V30.1982ZM63.029 82.4231C66.8645 82.4231 70.2273 81.9369 73.1175 80.9645C76.0076 79.9651 78.4115 78.5606 80.3293 76.7509C82.274 74.9411 83.7326 72.7533 84.705 70.1873C85.6774 67.6213 86.1636 64.7582 86.1636 61.5979C86.1636 58.4917 85.6774 55.6961 84.705 53.2112C83.7326 50.6992 82.274 48.5788 80.3293 46.8502C78.4115 45.0945 76.0076 43.744 73.1175 42.7986C70.2273 41.8532 66.8645 41.3805 63.029 41.3805H49.4967V82.4231H63.029Z" fill="white"/>
</svg>
