<svg width="147" height="248" viewBox="0 0 147 248" fill="none" xmlns="http://www.w3.org/2000/svg">
<rect x="3.71014" y="3.71014" width="138.887" height="240.58" fill="white" stroke="#4192F5" stroke-width="7.42029"/>
<path d="M12.7344 12.7891H17.2109C18.5182 12.7891 19.6536 12.9297 20.6172 13.2109C21.5807 13.4922 22.3776 13.8958 23.0078 14.4219C23.6432 14.9427 24.1146 15.5781 24.4219 16.3281C24.7344 17.0729 24.8906 17.9115 24.8906 18.8438C24.8906 19.7292 24.737 20.5495 24.4297 21.3047C24.1224 22.0547 23.6536 22.7057 23.0234 23.2578C22.3932 23.8047 21.5964 24.2344 20.6328 24.5469C19.6693 24.8542 18.5339 25.0078 17.2266 25.0078L12.7344 25V12.7891ZM17.8203 22.8594C18.5599 22.8594 19.2083 22.7656 19.7656 22.5781C20.3229 22.3854 20.7865 22.1146 21.1562 21.7656C21.5312 21.4167 21.8125 20.9948 22 20.5C22.1875 20.0052 22.2812 19.4531 22.2812 18.8438C22.2812 18.2448 22.1875 17.7057 22 17.2266C21.8125 16.7422 21.5312 16.3333 21.1562 16C20.7865 15.6615 20.3229 15.401 19.7656 15.2188C19.2083 15.0365 18.5599 14.9453 17.8203 14.9453H15.2109V22.8594H17.8203ZM27.375 12.7891H37.7734V14.9609H29.8516V17.3984H36.8672V19.4375H29.8516V22.8359H37.9375V25H27.375V12.7891ZM41.2578 21.3672C41.7005 21.6172 42.1484 21.8438 42.6016 22.0469C43.0599 22.2448 43.5339 22.4141 44.0234 22.5547C44.513 22.6901 45.026 22.7943 45.5625 22.8672C46.1042 22.9401 46.6797 22.9766 47.2891 22.9766C48.0234 22.9766 48.6484 22.9297 49.1641 22.8359C49.6797 22.737 50.099 22.6042 50.4219 22.4375C50.75 22.2656 50.987 22.0625 51.1328 21.8281C51.2839 21.5938 51.3594 21.3385 51.3594 21.0625C51.3594 20.6198 51.1745 20.2708 50.8047 20.0156C50.4349 19.7552 49.8646 19.625 49.0938 19.625C48.7552 19.625 48.3984 19.6484 48.0234 19.6953C47.6484 19.737 47.2682 19.7839 46.8828 19.8359C46.5026 19.888 46.125 19.9375 45.75 19.9844C45.3802 20.026 45.0312 20.0469 44.7031 20.0469C44.1562 20.0469 43.6302 19.9766 43.125 19.8359C42.625 19.6953 42.1797 19.4844 41.7891 19.2031C41.4036 18.9219 41.0964 18.5703 40.8672 18.1484C40.638 17.7266 40.5234 17.2344 40.5234 16.6719C40.5234 16.3385 40.5677 16.0078 40.6562 15.6797C40.75 15.3516 40.8958 15.0391 41.0938 14.7422C41.2969 14.4401 41.5573 14.1615 41.875 13.9062C42.1927 13.6458 42.5755 13.4219 43.0234 13.2344C43.4766 13.0469 43.9974 12.901 44.5859 12.7969C45.1797 12.6875 45.8542 12.6328 46.6094 12.6328C47.1562 12.6328 47.7057 12.6641 48.2578 12.7266C48.8099 12.7839 49.3464 12.8672 49.8672 12.9766C50.3932 13.0859 50.8984 13.2188 51.3828 13.375C51.8672 13.526 52.3177 13.6953 52.7344 13.8828L51.6484 15.8828C51.3047 15.7318 50.9349 15.5938 50.5391 15.4688C50.1432 15.3385 49.7292 15.2266 49.2969 15.1328C48.8646 15.0391 48.4167 14.9661 47.9531 14.9141C47.4948 14.8568 47.026 14.8281 46.5469 14.8281C45.8646 14.8281 45.3021 14.8776 44.8594 14.9766C44.4219 15.0755 44.0729 15.2031 43.8125 15.3594C43.5521 15.5104 43.3698 15.6823 43.2656 15.875C43.1667 16.0625 43.1172 16.25 43.1172 16.4375C43.1172 16.8021 43.2812 17.1016 43.6094 17.3359C43.9375 17.5651 44.4375 17.6797 45.1094 17.6797C45.3802 17.6797 45.6901 17.6615 46.0391 17.625C46.3932 17.5833 46.763 17.5391 47.1484 17.4922C47.5391 17.4453 47.9349 17.4036 48.3359 17.3672C48.7422 17.3255 49.1354 17.3047 49.5156 17.3047C50.2344 17.3047 50.8698 17.3854 51.4219 17.5469C51.9792 17.7083 52.4453 17.9401 52.8203 18.2422C53.1953 18.5391 53.4792 18.901 53.6719 19.3281C53.8646 19.75 53.9609 20.224 53.9609 20.75C53.9609 21.4531 53.7969 22.0807 53.4688 22.6328C53.1458 23.1797 52.6823 23.6432 52.0781 24.0234C51.4792 24.3984 50.7552 24.6849 49.9062 24.8828C49.0573 25.0755 48.112 25.1719 47.0703 25.1719C46.3828 25.1719 45.7109 25.1276 45.0547 25.0391C44.3984 24.9557 43.7682 24.8359 43.1641 24.6797C42.5651 24.5182 41.9922 24.3281 41.4453 24.1094C40.9036 23.8854 40.401 23.6406 39.9375 23.375L41.2578 21.3672ZM56.375 12.7891H58.8672V25H56.375V12.7891ZM61.1953 18.7812C61.1953 17.9219 61.3568 17.1198 61.6797 16.375C62.0026 15.625 62.474 14.974 63.0938 14.4219C63.7135 13.8698 64.474 13.4349 65.375 13.1172C66.2812 12.7995 67.3177 12.6406 68.4844 12.6406C68.9062 12.6406 69.3281 12.6641 69.75 12.7109C70.1771 12.7526 70.5964 12.8203 71.0078 12.9141C71.4245 13.0078 71.8281 13.1276 72.2188 13.2734C72.6146 13.4141 72.9896 13.5833 73.3438 13.7812L72.2031 15.6562C71.9896 15.5312 71.7474 15.4193 71.4766 15.3203C71.2057 15.2161 70.9141 15.1302 70.6016 15.0625C70.2943 14.9896 69.974 14.9349 69.6406 14.8984C69.3125 14.862 68.9818 14.8438 68.6484 14.8438C67.8776 14.8438 67.1901 14.9427 66.5859 15.1406C65.9818 15.3333 65.4714 15.6068 65.0547 15.9609C64.638 16.3099 64.3203 16.7292 64.1016 17.2188C63.8828 17.7083 63.7734 18.2448 63.7734 18.8281C63.7734 19.4323 63.888 19.987 64.1172 20.4922C64.3464 20.9974 64.6719 21.4323 65.0938 21.7969C65.5156 22.1615 66.026 22.4479 66.625 22.6562C67.224 22.8594 67.8932 22.9609 68.6328 22.9609C69.2214 22.9609 69.7604 22.8958 70.25 22.7656C70.7396 22.6302 71.1667 22.4401 71.5312 22.1953C71.8958 21.9505 72.1927 21.6562 72.4219 21.3125C72.651 20.9635 72.8021 20.5729 72.875 20.1406H68.6094V18.1016H75.1016V18.1094L75.1094 18.1016C75.2396 18.7266 75.2786 19.3359 75.2266 19.9297C75.1797 20.5182 75.0443 21.0755 74.8203 21.6016C74.6016 22.1224 74.2995 22.6016 73.9141 23.0391C73.5286 23.4766 73.0677 23.8542 72.5312 24.1719C71.9948 24.4844 71.3854 24.7292 70.7031 24.9062C70.0208 25.0781 69.2734 25.1641 68.4609 25.1641C67.3255 25.1641 66.3073 24.9974 65.4062 24.6641C64.5104 24.3307 63.75 23.875 63.125 23.2969C62.5 22.7188 62.0208 22.0417 61.6875 21.2656C61.3594 20.4896 61.1953 19.6615 61.1953 18.7812ZM78.0156 12.7891H80.4922L88.1016 16.7734V12.7891H90.5781V25H88.1016V19.3984L80.4922 15.4375V25H78.0156V12.7891ZM94.0312 12.7891H104.43V14.9609H96.5078V17.3984H103.523V19.4375H96.5078V22.8359H104.594V25H94.0312V12.7891ZM107.344 12.7891H111.82C113.128 12.7891 114.263 12.9297 115.227 13.2109C116.19 13.4922 116.987 13.8958 117.617 14.4219C118.253 14.9427 118.724 15.5781 119.031 16.3281C119.344 17.0729 119.5 17.9115 119.5 18.8438C119.5 19.7292 119.346 20.5495 119.039 21.3047C118.732 22.0547 118.263 22.7057 117.633 23.2578C117.003 23.8047 116.206 24.2344 115.242 24.5469C114.279 24.8542 113.143 25.0078 111.836 25.0078L107.344 25V12.7891ZM112.43 22.8594C113.169 22.8594 113.818 22.7656 114.375 22.5781C114.932 22.3854 115.396 22.1146 115.766 21.7656C116.141 21.4167 116.422 20.9948 116.609 20.5C116.797 20.0052 116.891 19.4531 116.891 18.8438C116.891 18.2448 116.797 17.7057 116.609 17.2266C116.422 16.7422 116.141 16.3333 115.766 16C115.396 15.6615 114.932 15.401 114.375 15.2188C113.818 15.0365 113.169 14.9453 112.43 14.9453H109.82V22.8594H112.43ZM12.7344 32.7891H19.2578C20.0547 32.7891 20.7474 32.875 21.3359 33.0469C21.9297 33.2135 22.4219 33.4453 22.8125 33.7422C23.2031 34.0391 23.4922 34.3932 23.6797 34.8047C23.8724 35.2109 23.9688 35.651 23.9688 36.125C23.9688 36.901 23.724 37.5807 23.2344 38.1641C23.7969 38.4974 24.2161 38.9297 24.4922 39.4609C24.7682 39.9922 24.9062 40.5964 24.9062 41.2734C24.9062 41.8411 24.8099 42.3542 24.6172 42.8125C24.4297 43.2708 24.1406 43.6641 23.75 43.9922C23.3646 44.3151 22.875 44.5651 22.2812 44.7422C21.6927 44.9141 20.9974 45 20.1953 45H12.7344V32.7891ZM20.2109 37.4766C20.4245 37.4766 20.6328 37.4844 20.8359 37.5C21.1849 37.1667 21.3594 36.7865 21.3594 36.3594C21.3594 35.9167 21.1849 35.5755 20.8359 35.3359C20.4922 35.0911 19.987 34.9688 19.3203 34.9688H15.2109V37.4766H20.2109ZM20.2578 42.8438C20.9245 42.8438 21.4297 42.7005 21.7734 42.4141C22.1224 42.1276 22.2969 41.724 22.2969 41.2031C22.2969 40.6823 22.1224 40.276 21.7734 39.9844C21.4297 39.6927 20.9245 39.5469 20.2578 39.5469H15.2109V42.8438H20.2578ZM31.1641 41.9766L25.8281 32.7891H28.6328L32.3906 39.7344L36.1016 32.7891H38.9062L33.6406 41.9609V45H31.1641V41.9766ZM12.0156 58.8594C12.0156 57.9375 12.1849 57.0938 12.5234 56.3281C12.862 55.5625 13.3359 54.9062 13.9453 54.3594C14.5599 53.8073 15.2943 53.3802 16.1484 53.0781C17.0078 52.776 17.9583 52.625 19 52.625C20.0365 52.625 20.9844 52.776 21.8438 53.0781C22.7031 53.3802 23.4375 53.8073 24.0469 54.3594C24.6615 54.9062 25.138 55.5625 25.4766 56.3281C25.8151 57.0938 25.9844 57.9375 25.9844 58.8594C25.9844 59.7865 25.8151 60.638 25.4766 61.4141C25.138 62.1849 24.6615 62.849 24.0469 63.4062C23.4375 63.9635 22.7031 64.3984 21.8438 64.7109C20.9844 65.0182 20.0365 65.1719 19 65.1719C17.9583 65.1719 17.0078 65.0182 16.1484 64.7109C15.2943 64.3984 14.5599 63.9635 13.9453 63.4062C13.3359 62.849 12.862 62.1849 12.5234 61.4141C12.1849 60.638 12.0156 59.7865 12.0156 58.8594ZM14.4922 58.8594C14.4922 59.4896 14.6042 60.0573 14.8281 60.5625C15.0573 61.0677 15.3724 61.5 15.7734 61.8594C16.1797 62.2135 16.6562 62.487 17.2031 62.6797C17.7552 62.8724 18.3542 62.9688 19 62.9688C19.6458 62.9688 20.2422 62.8724 20.7891 62.6797C21.3411 62.487 21.8177 62.2135 22.2188 61.8594C22.6198 61.5 22.9349 61.0677 23.1641 60.5625C23.3932 60.0573 23.5078 59.4896 23.5078 58.8594C23.5078 58.2292 23.3932 57.6641 23.1641 57.1641C22.9349 56.6641 22.6198 56.2422 22.2188 55.8984C21.8177 55.5495 21.3411 55.2839 20.7891 55.1016C20.2422 54.9193 19.6458 54.8281 19 54.8281C18.3542 54.8281 17.7552 54.9193 17.2031 55.1016C16.6562 55.2839 16.1797 55.5495 15.7734 55.8984C15.3724 56.2422 15.0573 56.6641 14.8281 57.1641C14.6042 57.6641 14.4922 58.2292 14.4922 58.8594ZM28.7344 52.7891H34.9453C35.8828 52.7891 36.6953 52.888 37.3828 53.0859C38.0703 53.2786 38.6406 53.5599 39.0938 53.9297C39.5469 54.2995 39.8828 54.75 40.1016 55.2812C40.3255 55.8125 40.4375 56.4141 40.4375 57.0859C40.4375 57.5391 40.3828 57.9714 40.2734 58.3828C40.1641 58.7891 39.9948 59.1641 39.7656 59.5078C39.5417 59.8516 39.2578 60.1589 38.9141 60.4297C38.5703 60.6953 38.1667 60.9167 37.7031 61.0938L40.3594 65H37.3281L35.0312 61.5312H34.9609L31.2109 61.5234V65H28.7344V52.7891ZM35.0078 59.3828C35.4766 59.3828 35.8854 59.3281 36.2344 59.2188C36.5885 59.1094 36.8828 58.9557 37.1172 58.7578C37.3568 58.5599 37.5339 58.3203 37.6484 58.0391C37.7682 57.7526 37.8281 57.4349 37.8281 57.0859C37.8281 56.4036 37.5938 55.8776 37.125 55.5078C36.6562 55.1328 35.9505 54.9453 35.0078 54.9453H31.2109V59.3828H35.0078ZM43.375 52.7891H45.8516V62.8281H52.9531V65H43.375V52.7891ZM54.6406 58.8594C54.6406 57.9375 54.8099 57.0938 55.1484 56.3281C55.487 55.5625 55.9609 54.9062 56.5703 54.3594C57.1849 53.8073 57.9193 53.3802 58.7734 53.0781C59.6328 52.776 60.5833 52.625 61.625 52.625C62.6615 52.625 63.6094 52.776 64.4688 53.0781C65.3281 53.3802 66.0625 53.8073 66.6719 54.3594C67.2865 54.9062 67.763 55.5625 68.1016 56.3281C68.4401 57.0938 68.6094 57.9375 68.6094 58.8594C68.6094 59.7865 68.4401 60.638 68.1016 61.4141C67.763 62.1849 67.2865 62.849 66.6719 63.4062C66.0625 63.9635 65.3281 64.3984 64.4688 64.7109C63.6094 65.0182 62.6615 65.1719 61.625 65.1719C60.5833 65.1719 59.6328 65.0182 58.7734 64.7109C57.9193 64.3984 57.1849 63.9635 56.5703 63.4062C55.9609 62.849 55.487 62.1849 55.1484 61.4141C54.8099 60.638 54.6406 59.7865 54.6406 58.8594ZM57.1172 58.8594C57.1172 59.4896 57.2292 60.0573 57.4531 60.5625C57.6823 61.0677 57.9974 61.5 58.3984 61.8594C58.8047 62.2135 59.2812 62.487 59.8281 62.6797C60.3802 62.8724 60.9792 62.9688 61.625 62.9688C62.2708 62.9688 62.8672 62.8724 63.4141 62.6797C63.9661 62.487 64.4427 62.2135 64.8438 61.8594C65.2448 61.5 65.5599 61.0677 65.7891 60.5625C66.0182 60.0573 66.1328 59.4896 66.1328 58.8594C66.1328 58.2292 66.0182 57.6641 65.7891 57.1641C65.5599 56.6641 65.2448 56.2422 64.8438 55.8984C64.4427 55.5495 63.9661 55.2839 63.4141 55.1016C62.8672 54.9193 62.2708 54.8281 61.625 54.8281C60.9792 54.8281 60.3802 54.9193 59.8281 55.1016C59.2812 55.2839 58.8047 55.5495 58.3984 55.8984C57.9974 56.2422 57.6823 56.6641 57.4531 57.1641C57.2292 57.6641 57.1172 58.2292 57.1172 58.8594ZM69.7266 52.7891H72.4688L76.3047 62.1016L80.1406 52.7891H82.8828L77.5312 65H75.0781L69.7266 52.7891ZM88.8828 52.7891H91.5078L97.4141 65H94.8125L93.8359 62.9453H86.7031L85.7578 65H83.1484L88.8828 52.7891ZM92.8594 60.9062L90.2188 55.3594L87.6484 60.9062H92.8594ZM13.3047 81.3672C13.7474 81.6172 14.1953 81.8438 14.6484 82.0469C15.1068 82.2448 15.5807 82.4141 16.0703 82.5547C16.5599 82.6901 17.0729 82.7943 17.6094 82.8672C18.151 82.9401 18.7266 82.9766 19.3359 82.9766C20.0703 82.9766 20.6953 82.9297 21.2109 82.8359C21.7266 82.737 22.1458 82.6042 22.4688 82.4375C22.7969 82.2656 23.0339 82.0625 23.1797 81.8281C23.3307 81.5938 23.4062 81.3385 23.4062 81.0625C23.4062 80.6198 23.2214 80.2708 22.8516 80.0156C22.4818 79.7552 21.9115 79.625 21.1406 79.625C20.8021 79.625 20.4453 79.6484 20.0703 79.6953C19.6953 79.737 19.3151 79.7839 18.9297 79.8359C18.5495 79.888 18.1719 79.9375 17.7969 79.9844C17.4271 80.026 17.0781 80.0469 16.75 80.0469C16.2031 80.0469 15.6771 79.9766 15.1719 79.8359C14.6719 79.6953 14.2266 79.4844 13.8359 79.2031C13.4505 78.9219 13.1432 78.5703 12.9141 78.1484C12.6849 77.7266 12.5703 77.2344 12.5703 76.6719C12.5703 76.3385 12.6146 76.0078 12.7031 75.6797C12.7969 75.3516 12.9427 75.0391 13.1406 74.7422C13.3438 74.4401 13.6042 74.1615 13.9219 73.9062C14.2396 73.6458 14.6224 73.4219 15.0703 73.2344C15.5234 73.0469 16.0443 72.901 16.6328 72.7969C17.2266 72.6875 17.901 72.6328 18.6562 72.6328C19.2031 72.6328 19.7526 72.6641 20.3047 72.7266C20.8568 72.7839 21.3932 72.8672 21.9141 72.9766C22.4401 73.0859 22.9453 73.2188 23.4297 73.375C23.9141 73.526 24.3646 73.6953 24.7812 73.8828L23.6953 75.8828C23.3516 75.7318 22.9818 75.5938 22.5859 75.4688C22.1901 75.3385 21.776 75.2266 21.3438 75.1328C20.9115 75.0391 20.4635 74.9661 20 74.9141C19.5417 74.8568 19.0729 74.8281 18.5938 74.8281C17.9115 74.8281 17.349 74.8776 16.9062 74.9766C16.4688 75.0755 16.1198 75.2031 15.8594 75.3594C15.599 75.5104 15.4167 75.6823 15.3125 75.875C15.2135 76.0625 15.1641 76.25 15.1641 76.4375C15.1641 76.8021 15.3281 77.1016 15.6562 77.3359C15.9844 77.5651 16.4844 77.6797 17.1562 77.6797C17.4271 77.6797 17.737 77.6615 18.0859 77.625C18.4401 77.5833 18.8099 77.5391 19.1953 77.4922C19.5859 77.4453 19.9818 77.4036 20.3828 77.3672C20.7891 77.3255 21.1823 77.3047 21.5625 77.3047C22.2812 77.3047 22.9167 77.3854 23.4688 77.5469C24.026 77.7083 24.4922 77.9401 24.8672 78.2422C25.2422 78.5391 25.526 78.901 25.7188 79.3281C25.9115 79.75 26.0078 80.224 26.0078 80.75C26.0078 81.4531 25.8438 82.0807 25.5156 82.6328C25.1927 83.1797 24.7292 83.6432 24.125 84.0234C23.526 84.3984 22.8021 84.6849 21.9531 84.8828C21.1042 85.0755 20.1589 85.1719 19.1172 85.1719C18.4297 85.1719 17.7578 85.1276 17.1016 85.0391C16.4453 84.9557 15.8151 84.8359 15.2109 84.6797C14.612 84.5182 14.0391 84.3281 13.4922 84.1094C12.9505 83.8854 12.4479 83.6406 11.9844 83.375L13.3047 81.3672ZM28.0156 78.8594C28.0156 77.9375 28.1849 77.0938 28.5234 76.3281C28.862 75.5625 29.3359 74.9062 29.9453 74.3594C30.5599 73.8073 31.2943 73.3802 32.1484 73.0781C33.0078 72.776 33.9583 72.625 35 72.625C36.0365 72.625 36.9844 72.776 37.8438 73.0781C38.7031 73.3802 39.4375 73.8073 40.0469 74.3594C40.6615 74.9062 41.138 75.5625 41.4766 76.3281C41.8151 77.0938 41.9844 77.9375 41.9844 78.8594C41.9844 79.7865 41.8151 80.638 41.4766 81.4141C41.138 82.1849 40.6615 82.849 40.0469 83.4062C39.4375 83.9635 38.7031 84.3984 37.8438 84.7109C36.9844 85.0182 36.0365 85.1719 35 85.1719C33.9583 85.1719 33.0078 85.0182 32.1484 84.7109C31.2943 84.3984 30.5599 83.9635 29.9453 83.4062C29.3359 82.849 28.862 82.1849 28.5234 81.4141C28.1849 80.638 28.0156 79.7865 28.0156 78.8594ZM30.4922 78.8594C30.4922 79.4896 30.6042 80.0573 30.8281 80.5625C31.0573 81.0677 31.3724 81.5 31.7734 81.8594C32.1797 82.2135 32.6562 82.487 33.2031 82.6797C33.7552 82.8724 34.3542 82.9688 35 82.9688C35.6458 82.9688 36.2422 82.8724 36.7891 82.6797C37.3411 82.487 37.8177 82.2135 38.2188 81.8594C38.6198 81.5 38.9349 81.0677 39.1641 80.5625C39.3932 80.0573 39.5078 79.4896 39.5078 78.8594C39.5078 78.2292 39.3932 77.6641 39.1641 77.1641C38.9349 76.6641 38.6198 76.2422 38.2188 75.8984C37.8177 75.5495 37.3411 75.2839 36.7891 75.1016C36.2422 74.9193 35.6458 74.8281 35 74.8281C34.3542 74.8281 33.7552 74.9193 33.2031 75.1016C32.6562 75.2839 32.1797 75.5495 31.7734 75.8984C31.3724 76.2422 31.0573 76.6641 30.8281 77.1641C30.6042 77.6641 30.4922 78.2292 30.4922 78.8594ZM44.7188 72.7891H47.1953L54.8047 76.7734V72.7891H57.2812V85H54.8047V79.3984L47.1953 75.4375V85H44.7188V72.7891ZM64.4766 81.9766L59.1406 72.7891H61.9453L65.7031 79.7344L69.4141 72.7891H72.2188L66.9531 81.9609V85H64.4766V81.9766ZM78.2578 72.7891H80.8828L86.7891 85H84.1875L83.2109 82.9453H76.0781L75.1328 85H72.5234L78.2578 72.7891ZM82.2344 80.9062L79.5938 75.3594L77.0234 80.9062H82.2344ZM12.7188 102.875L17.0234 99.9219C17.6693 99.4792 18.1979 99.0938 18.6094 98.7656C19.0208 98.4375 19.3438 98.1458 19.5781 97.8906C19.8125 97.6302 19.974 97.3958 20.0625 97.1875C20.151 96.9792 20.1953 96.7708 20.1953 96.5625C20.1953 96.3229 20.1458 96.099 20.0469 95.8906C19.9479 95.6823 19.7917 95.5 19.5781 95.3438C19.3698 95.1875 19.099 95.0651 18.7656 94.9766C18.4375 94.888 18.0443 94.8438 17.5859 94.8438C16.9193 94.8438 16.2552 94.9375 15.5938 95.125C14.9323 95.3125 14.2578 95.612 13.5703 96.0234L12.4297 94.1484C13.1953 93.6745 14.0234 93.3047 14.9141 93.0391C15.8099 92.7734 16.75 92.6406 17.7344 92.6406C18.5938 92.6406 19.3385 92.7448 19.9688 92.9531C20.6042 93.1562 21.1276 93.4349 21.5391 93.7891C21.9557 94.1432 22.2656 94.5547 22.4688 95.0234C22.6719 95.4922 22.7734 95.9896 22.7734 96.5156C22.7734 96.9219 22.7057 97.3099 22.5703 97.6797C22.4349 98.0495 22.1979 98.4323 21.8594 98.8281C21.5208 99.224 21.0625 99.651 20.4844 100.109C19.9115 100.562 19.1875 101.078 18.3125 101.656L16.5312 102.828H23.2188V105H12.7188V102.875ZM25.3672 98.8672C25.3672 97.8828 25.5156 97 25.8125 96.2188C26.1094 95.4375 26.5312 94.776 27.0781 94.2344C27.625 93.6875 28.2891 93.2708 29.0703 92.9844C29.8516 92.6979 30.7266 92.5547 31.6953 92.5547C32.6641 92.5547 33.5391 92.6979 34.3203 92.9844C35.1016 93.2708 35.7656 93.6875 36.3125 94.2344C36.8594 94.776 37.2812 95.4375 37.5781 96.2188C37.875 97 38.0234 97.8828 38.0234 98.8672C38.0234 99.8516 37.875 100.734 37.5781 101.516C37.2812 102.297 36.8594 102.958 36.3125 103.5C35.7656 104.042 35.1016 104.456 34.3203 104.742C33.5391 105.029 32.6641 105.172 31.6953 105.172C30.7266 105.172 29.8516 105.029 29.0703 104.742C28.2891 104.456 27.625 104.042 27.0781 103.5C26.5312 102.958 26.1094 102.297 25.8125 101.516C25.5156 100.734 25.3672 99.8516 25.3672 98.8672ZM27.8438 98.8594C27.8438 99.526 27.9323 100.115 28.1094 100.625C28.2917 101.135 28.5495 101.565 28.8828 101.914C29.2161 102.258 29.6198 102.521 30.0938 102.703C30.5677 102.88 31.1016 102.969 31.6953 102.969C32.2891 102.969 32.8229 102.88 33.2969 102.703C33.7708 102.521 34.1745 102.258 34.5078 101.914C34.8411 101.565 35.0964 101.135 35.2734 100.625C35.4557 100.115 35.5469 99.526 35.5469 98.8594C35.5469 98.1979 35.4557 97.6146 35.2734 97.1094C35.0964 96.599 34.8411 96.1693 34.5078 95.8203C34.1745 95.4714 33.7708 95.2083 33.2969 95.0312C32.8229 94.849 32.2891 94.7578 31.6953 94.7578C31.1016 94.7578 30.5677 94.849 30.0938 95.0312C29.6198 95.2083 29.2161 95.4714 28.8828 95.8203C28.5495 96.1693 28.2917 96.599 28.1094 97.1094C27.9323 97.6146 27.8438 98.1979 27.8438 98.8594ZM40.7656 102.875L45.0703 99.9219C45.7161 99.4792 46.2448 99.0938 46.6562 98.7656C47.0677 98.4375 47.3906 98.1458 47.625 97.8906C47.8594 97.6302 48.0208 97.3958 48.1094 97.1875C48.1979 96.9792 48.2422 96.7708 48.2422 96.5625C48.2422 96.3229 48.1927 96.099 48.0938 95.8906C47.9948 95.6823 47.8385 95.5 47.625 95.3438C47.4167 95.1875 47.1458 95.0651 46.8125 94.9766C46.4844 94.888 46.0911 94.8438 45.6328 94.8438C44.9661 94.8438 44.3021 94.9375 43.6406 95.125C42.9792 95.3125 42.3047 95.612 41.6172 96.0234L40.4766 94.1484C41.2422 93.6745 42.0703 93.3047 42.9609 93.0391C43.8568 92.7734 44.7969 92.6406 45.7812 92.6406C46.6406 92.6406 47.3854 92.7448 48.0156 92.9531C48.651 93.1562 49.1745 93.4349 49.5859 93.7891C50.0026 94.1432 50.3125 94.5547 50.5156 95.0234C50.7188 95.4922 50.8203 95.9896 50.8203 96.5156C50.8203 96.9219 50.7526 97.3099 50.6172 97.6797C50.4818 98.0495 50.2448 98.4323 49.9062 98.8281C49.5677 99.224 49.1094 99.651 48.5312 100.109C47.9583 100.562 47.2344 101.078 46.3594 101.656L44.5781 102.828H51.2656V105H40.7656V102.875ZM53.8984 100.219L61.0391 92.7891H63.5156V100.219H66.1484V102.391H63.5156V105H61.0391V102.391H53.8828L53.8984 100.219ZM61.0391 100.219V95.9219L56.8672 100.219H61.0391ZM68.6953 91.1719H70.7031V108.766H68.6953V91.1719ZM73.4297 97.9219H80.5938V99.6562H73.4297V97.9219ZM82.7422 97.9219H89.9062V99.6562H82.7422V97.9219ZM92.0547 97.9219H99.2188V99.6562H92.0547V97.9219ZM101.945 91.1719H103.953V108.766H101.945V91.1719ZM107.328 102.875L111.633 99.9219C112.279 99.4792 112.807 99.0938 113.219 98.7656C113.63 98.4375 113.953 98.1458 114.188 97.8906C114.422 97.6302 114.583 97.3958 114.672 97.1875C114.76 96.9792 114.805 96.7708 114.805 96.5625C114.805 96.3229 114.755 96.099 114.656 95.8906C114.557 95.6823 114.401 95.5 114.188 95.3438C113.979 95.1875 113.708 95.0651 113.375 94.9766C113.047 94.888 112.654 94.8438 112.195 94.8438C111.529 94.8438 110.865 94.9375 110.203 95.125C109.542 95.3125 108.867 95.612 108.18 96.0234L107.039 94.1484C107.805 93.6745 108.633 93.3047 109.523 93.0391C110.419 92.7734 111.359 92.6406 112.344 92.6406C113.203 92.6406 113.948 92.7448 114.578 92.9531C115.214 93.1562 115.737 93.4349 116.148 93.7891C116.565 94.1432 116.875 94.5547 117.078 95.0234C117.281 95.4922 117.383 95.9896 117.383 96.5156C117.383 96.9219 117.315 97.3099 117.18 97.6797C117.044 98.0495 116.807 98.4323 116.469 98.8281C116.13 99.224 115.672 99.651 115.094 100.109C114.521 100.562 113.797 101.078 112.922 101.656L111.141 102.828H117.828V105H107.328V102.875ZM121.039 102.094C121.336 102.245 121.656 102.375 122 102.484C122.349 102.589 122.706 102.677 123.07 102.75C123.44 102.823 123.81 102.878 124.18 102.914C124.555 102.945 124.919 102.961 125.273 102.961C125.898 102.961 126.438 102.917 126.891 102.828C127.349 102.734 127.724 102.604 128.016 102.438C128.312 102.271 128.531 102.073 128.672 101.844C128.818 101.609 128.891 101.352 128.891 101.07C128.891 100.784 128.815 100.521 128.664 100.281C128.518 100.042 128.297 99.8359 128 99.6641C127.708 99.4922 127.339 99.3594 126.891 99.2656C126.448 99.1667 125.93 99.1172 125.336 99.1172C125.07 99.1172 124.771 99.1302 124.438 99.1562C124.104 99.1771 123.75 99.2135 123.375 99.2656C123 99.3177 122.609 99.3906 122.203 99.4844C121.797 99.5729 121.385 99.6823 120.969 99.8125V92.7891H130.336V94.9844H123.258V97.3516C123.648 97.263 124.057 97.1901 124.484 97.1328C124.911 97.0703 125.388 97.0391 125.914 97.0391C126.773 97.0391 127.542 97.1328 128.219 97.3203C128.896 97.5078 129.466 97.776 129.93 98.125C130.398 98.474 130.755 98.8958 131 99.3906C131.245 99.8802 131.367 100.43 131.367 101.039C131.367 101.669 131.234 102.24 130.969 102.75C130.708 103.255 130.32 103.688 129.805 104.047C129.294 104.406 128.664 104.682 127.914 104.875C127.169 105.068 126.312 105.164 125.344 105.164C124.844 105.164 124.346 105.135 123.852 105.078C123.362 105.026 122.885 104.951 122.422 104.852C121.958 104.747 121.513 104.622 121.086 104.477C120.664 104.326 120.268 104.156 119.898 103.969L121.039 102.094Z" fill="#0022FF"/>
</svg>
