<svg width="317" height="321" viewBox="0 0 317 321" fill="none" xmlns="http://www.w3.org/2000/svg">
<path d="M315.307 0.0664062H59.12V40.1054H78.8267V60.1249H98.5333V80.1445H118.24V100.164H137.947V120.183H177.36V80.1445H157.653V40.1054H177.36V60.1249H197.067V80.1445H216.773V140.203H236.48V160.223H275.893V180.242H315.307V0.0664062Z" fill="#0022FF"/>
<path d="M59.1201 0.0664062H0.000127792V60.1249H39.4135V40.1054H59.1201V0.0664062Z" fill="white"/>
<path d="M39.4131 20.0859H19.7064V40.1054H39.4131V20.0859Z" fill="#0022FF"/>
<path d="M177.36 40.1055H157.653V80.1445H177.36V120.184H137.947V140.203H157.653V160.223H177.36V180.242H197.067V200.262H216.773V220.281H236.48V240.301H256.187V220.281H275.893V240.301H256.187V260.32H236.48V280.34H216.773V260.32H236.48V240.301H216.773V220.281H197.067V200.262H177.36V180.242H157.653V200.262H98.5333V220.281H118.24V240.301H157.653V260.32H177.36V320.379H295.6V300.359H315.307V180.242H275.893V160.223H236.48V140.203H216.773V80.1445H197.067V60.125H177.36V40.1055Z" fill="white"/>
<path d="M78.8267 40.1055H59.12V60.125H78.8267V40.1055Z" fill="white"/>
<path d="M59.1201 40.1055H39.4135V60.125H59.1201V40.1055Z" fill="#0022FF"/>
<path d="M98.5332 60.125H78.8265V80.1445H98.5332V60.125Z" fill="white"/>
<path d="M78.8267 60.125H59.12V80.1445H78.8267V60.125Z" fill="#0022FF"/>
<path d="M59.1201 60.125H39.4135V80.1445H59.1201V60.125Z" fill="white"/>
<path d="M39.4132 60.125H-0.000104904V320.379H177.36V260.32H157.653V240.301H118.24V220.281H98.5332V200.262H157.653V180.242H137.947V160.223H118.24V140.203H98.5332V120.184H78.8265V100.164H59.1199V80.1445H39.4132V60.125Z" fill="#0022FF"/>
<path d="M118.24 80.1445H98.5336V100.164H118.24V80.1445Z" fill="white"/>
<path d="M98.5332 80.1445H78.8265V100.164H98.5332V80.1445Z" fill="#0022FF"/>
<path d="M78.8267 80.1445H59.12V100.164H78.8267V80.1445Z" fill="white"/>
<path d="M137.947 100.164H118.24V120.184H137.947V100.164Z" fill="white"/>
<path d="M118.24 100.164H98.5336V120.184H118.24V100.164Z" fill="#0022FF"/>
<path d="M98.5332 100.164H78.8265V120.184H98.5332V100.164Z" fill="white"/>
<path d="M137.947 120.184H118.24V140.203H137.947V120.184Z" fill="#0022FF"/>
<path d="M118.24 120.184H98.5336V140.203H118.24V120.184Z" fill="white"/>
<path d="M157.653 140.203H137.947V160.223H157.653V140.203Z" fill="#0022FF"/>
<path d="M137.947 140.203H118.24V160.223H137.947V140.203Z" fill="white"/>
<path d="M177.36 160.223H157.653V180.242H177.36V160.223Z" fill="#0022FF"/>
<path d="M157.653 160.223H137.947V180.242H157.653V160.223Z" fill="white"/>
<path d="M197.067 180.242H177.36V200.262H197.067V180.242Z" fill="#0022FF"/>
<path d="M216.773 200.262H197.067V220.281H216.773V200.262Z" fill="#0022FF"/>
<path d="M275.893 220.281H256.186V240.301H275.893V220.281Z" fill="#0022FF"/>
<path d="M236.48 220.281H216.773V240.301H236.48V220.281Z" fill="#0022FF"/>
<path d="M256.187 240.301H236.48V260.32H256.187V240.301Z" fill="#0022FF"/>
<path d="M236.48 260.32H216.773V280.34H236.48V260.32Z" fill="#0022FF"/>
<path d="M315.307 300.359H295.6V320.379H315.307V300.359Z" fill="#0022FF"/>
<rect x="284" y="286" width="32.9235" height="34.395" fill="white"/>
</svg>
