<svg width="184" height="176" viewBox="0 0 184 176" fill="none" xmlns="http://www.w3.org/2000/svg">
<circle cx="62.6683" cy="62.7689" r="59.236" fill="#0022FF" stroke="white" stroke-width="5.53176"/>
<path d="M25.6343 62.7047C25.6343 58.1939 26.4851 53.9938 28.1868 50.1042C29.8884 46.1877 32.3464 42.7979 35.5607 39.9348C38.8019 37.0446 42.7455 34.7757 47.3913 33.1281C52.0641 31.4804 57.3447 30.6566 63.233 30.6566C68.392 30.6566 73.1188 31.1833 77.4135 32.2367C81.7352 33.2631 85.7463 34.8433 89.4467 36.9771L83.5314 46.7009C82.424 45.9716 81.141 45.3234 79.6824 44.7561C78.2509 44.1889 76.7113 43.7162 75.0636 43.3381C73.443 42.9329 71.7548 42.6223 69.9991 42.4062C68.2705 42.1901 66.5553 42.0821 64.8536 42.0821C60.748 42.0821 57.0881 42.5953 53.8738 43.6217C50.6596 44.6211 47.945 46.0391 45.7301 47.8759C43.5423 49.6856 41.8676 51.8599 40.7062 54.3989C39.5717 56.9109 39.0045 59.6795 39.0045 62.7047C39.0045 65.8379 39.5987 68.7145 40.7872 71.3345C41.9757 73.9546 43.6908 76.2234 45.9327 78.1412C48.2016 80.0319 50.9567 81.5175 54.1979 82.5979C57.4662 83.6513 61.1532 84.1781 65.2588 84.1781C67.1225 84.1781 68.9727 84.043 70.8094 83.7729C72.6462 83.5028 74.4154 83.1381 76.117 82.679C77.8457 82.1928 79.5068 81.6256 81.1005 80.9773C82.6941 80.302 84.1797 79.5728 85.5572 78.7894L91.4725 88.5132C88.0152 90.7281 84.0176 92.4703 79.4798 93.7398C74.9421 94.9823 70.1207 95.6035 65.0157 95.6035C58.5061 95.6035 52.7934 94.7662 47.8775 93.0915C42.9616 91.3899 38.856 89.067 35.5607 86.1228C32.2654 83.1517 29.7804 79.6673 28.1057 75.6697C26.4581 71.6452 25.6343 67.3235 25.6343 62.7047Z" fill="white"/>
</svg>
