<svg width="141" height="129" viewBox="0 0 141 129" fill="none" xmlns="http://www.w3.org/2000/svg">
<circle cx="62.7391" cy="62.6054" r="59.236" fill="#0022FF" stroke="white" stroke-width="5.53176"/>
<path d="M21.4239 40.8474H45.4813C48.4201 40.8474 50.9747 41.1643 53.1451 41.7982C55.3348 42.4128 57.1499 43.2675 58.5905 44.3624C60.031 45.4572 61.097 46.7633 61.7885 48.2807C62.4992 49.7789 62.8545 51.4019 62.8545 53.1498C62.8545 56.0117 61.9518 58.5183 60.1463 60.6695C62.2207 61.8988 63.7669 63.493 64.7849 65.4522C65.8029 67.4114 66.3119 69.6394 66.3119 72.1364C66.3119 74.23 65.9565 76.122 65.2459 77.8122C64.5544 79.5025 63.4884 80.9527 62.0478 82.1627C60.6265 83.3536 58.821 84.2756 56.6313 84.9286C54.4608 85.5625 51.8966 85.8794 48.9387 85.8794H21.4239V40.8474ZM48.9963 58.1341C49.7838 58.1341 50.5521 58.163 51.3012 58.2206C52.5881 56.9913 53.2316 55.5892 53.2316 54.0141C53.2316 52.3815 52.5881 51.1234 51.3012 50.2399C50.0335 49.3371 48.1704 48.8857 45.7118 48.8857H30.5571V58.1341H48.9963ZM49.1692 77.9275C51.6277 77.9275 53.4909 77.3993 54.7586 76.3429C56.0455 75.2865 56.6889 73.7979 56.6889 71.8771C56.6889 69.9564 56.0455 68.4582 54.7586 67.3826C53.4909 66.3069 51.6277 65.7691 49.1692 65.7691H30.5571V77.9275H49.1692ZM74.2926 38.0815H82.8207V55.0802C83.5698 54.5616 84.4534 54.0718 85.4714 53.6108C86.4894 53.1498 87.5842 52.7464 88.7559 52.4007C89.9275 52.055 91.1376 51.7861 92.3861 51.594C93.6346 51.3827 94.883 51.2771 96.1315 51.2771C99.0127 51.2771 101.654 51.6996 104.055 52.5448C106.475 53.3899 108.549 54.5808 110.278 56.1174C112.007 57.654 113.351 59.4979 114.311 61.6491C115.291 63.7812 115.781 66.1437 115.781 68.7367C115.781 71.445 115.272 73.8939 114.254 76.0836C113.236 78.254 111.824 80.1171 110.019 81.673C108.232 83.2096 106.1 84.4004 103.622 85.2455C101.164 86.0715 98.4941 86.4844 95.6129 86.4844C94.3837 86.4844 93.164 86.4076 91.9539 86.2539C90.763 86.1003 89.6106 85.889 88.4966 85.6201C87.4017 85.3512 86.3645 85.0343 85.3849 84.6693C84.4246 84.2852 83.5698 83.8722 82.8207 83.4304V85.8794H74.2926V38.0815ZM82.8207 75.1904C83.6851 75.8819 84.5974 76.4677 85.5578 76.9479C86.5182 77.4281 87.4978 77.8218 88.4966 78.1292C89.4953 78.4365 90.5037 78.667 91.5217 78.8206C92.5397 78.9551 93.5289 79.0223 94.4893 79.0223C96.4485 79.0223 98.1867 78.763 99.7041 78.2444C101.241 77.7066 102.528 76.9767 103.565 76.0548C104.621 75.1328 105.428 74.0476 105.985 72.7991C106.542 71.5506 106.821 70.1965 106.821 68.7367C106.821 67.373 106.542 66.0861 105.985 64.876C105.447 63.6659 104.66 62.6095 103.622 61.7067C102.604 60.7848 101.366 60.0645 99.9058 59.5459C98.4652 59.0081 96.8422 58.7392 95.0367 58.7392C93.8843 58.7392 92.7318 58.8544 91.5794 59.0849C90.4269 59.2962 89.3129 59.6035 88.2372 60.0069C87.1808 60.4102 86.182 60.9 85.2409 61.4763C84.3189 62.0525 83.5122 62.6959 82.8207 63.4066V75.1904Z" fill="white"/>
</svg>
