<svg width="1025" height="509" viewBox="0 0 1025 509" fill="none" xmlns="http://www.w3.org/2000/svg">
<rect x="7.7533" y="7.55359" width="1009.16" height="493.449" fill="#4192F5" stroke="white" stroke-width="14.8406"/>
<rect x="89.3765" y="48.3658" width="204.058" height="25.971" fill="#0022FF"/>
<rect x="89.3765" y="74.3365" width="11.1304" height="404.406" fill="#0022FF"/>
<rect x="152.448" y="74.3365" width="11.1304" height="404.406" fill="#0022FF"/>
<rect x="282.304" y="74.3365" width="11.1304" height="404.406" fill="#0022FF"/>
<rect x="219.231" y="74.3365" width="11.1304" height="404.406" fill="#0022FF"/>
<rect x="286.013" y="467.612" width="11.1304" height="185.507" transform="rotate(90 286.013 467.612)" fill="#0022FF"/>
<rect x="286.013" y="385.989" width="11.1304" height="185.507" transform="rotate(90 286.013 385.989)" fill="#0022FF"/>
<rect x="286.013" y="304.365" width="11.1304" height="185.507" transform="rotate(90 286.013 304.365)" fill="#0022FF"/>
<rect x="286.013" y="222.742" width="11.1304" height="185.507" transform="rotate(90 286.013 222.742)" fill="#0022FF"/>
<rect x="282.304" y="141.119" width="11.1304" height="185.507" transform="rotate(90 282.304 141.119)" fill="#0022FF"/>
<rect x="734.942" y="48.3658" width="204.058" height="25.971" fill="#0022FF"/>
<rect x="734.942" y="74.3365" width="11.1304" height="404.406" fill="#0022FF"/>
<rect x="798.014" y="74.3365" width="11.1304" height="404.406" fill="#0022FF"/>
<rect x="927.87" y="74.3365" width="11.1304" height="404.406" fill="#0022FF"/>
<rect x="864.796" y="74.3365" width="11.1304" height="404.406" fill="#0022FF"/>
<rect x="931.58" y="467.612" width="11.1304" height="185.507" transform="rotate(90 931.58 467.612)" fill="#0022FF"/>
<rect x="931.58" y="385.989" width="11.1304" height="185.507" transform="rotate(90 931.58 385.989)" fill="#0022FF"/>
<rect x="931.58" y="304.365" width="11.1304" height="185.507" transform="rotate(90 931.58 304.365)" fill="#0022FF"/>
<rect x="931.58" y="222.742" width="11.1304" height="185.507" transform="rotate(90 931.58 222.742)" fill="#0022FF"/>
<rect x="927.87" y="141.119" width="11.1304" height="185.507" transform="rotate(90 927.87 141.119)" fill="#0022FF"/>
<rect x="412.159" y="48.3658" width="204.058" height="25.971" fill="#0022FF"/>
<rect x="412.159" y="74.3365" width="11.1304" height="404.406" fill="#0022FF"/>
<rect x="475.231" y="74.3365" width="11.1304" height="404.406" fill="#0022FF"/>
<rect x="605.086" y="74.3365" width="11.1304" height="404.406" fill="#0022FF"/>
<rect x="542.014" y="74.3365" width="11.1304" height="404.406" fill="#0022FF"/>
<rect x="608.796" y="467.612" width="11.1304" height="185.507" transform="rotate(90 608.796 467.612)" fill="#0022FF"/>
<rect x="608.796" y="385.989" width="11.1304" height="185.507" transform="rotate(90 608.796 385.989)" fill="#0022FF"/>
<rect x="608.796" y="304.365" width="11.1304" height="185.507" transform="rotate(90 608.796 304.365)" fill="#0022FF"/>
<rect x="608.796" y="222.742" width="11.1304" height="185.507" transform="rotate(90 608.796 222.742)" fill="#0022FF"/>
<rect x="605.086" y="141.119" width="11.1304" height="185.507" transform="rotate(90 605.086 141.119)" fill="#0022FF"/>
</svg>
