<svg width="347" height="381" viewBox="0 0 347 381" fill="none" xmlns="http://www.w3.org/2000/svg">
<path d="M0.478027 0.465637H130.141V119.19H108.531V142.935H65.3097V190.425H130.141V166.68H151.752V24.2106H238.194V47.9555H194.973V71.7004H238.194V142.935H216.583V166.68H173.362V214.17H238.194V190.425H259.805V0.465637H346.247V285.405H324.636V261.66H281.415V237.915H65.3097V261.66H22.0886V285.405H0.478027V0.465637Z" fill="#4192F5"/>
<path d="M130.141 0.465637H259.804V190.425H238.194V214.17H173.362V166.68H216.583V142.935H238.194V71.7004H194.973V47.9555H238.194V24.2106H151.752V166.68H130.141V190.425H65.3096V142.935H108.531V119.19H130.141V0.465637Z" fill="white"/>
<path d="M65.3097 237.915H281.415V261.66H324.636V285.405H238.194V309.15H281.415V332.895H324.636V356.639H281.415V380.384H43.6992V356.639H22.0886V332.895H43.6992V309.15H86.9203V285.405H22.0886V261.66H65.3097V237.915Z" fill="white"/>
<path d="M0.478027 285.405H22.0886V332.895H0.478027V285.405Z" fill="white"/>
<path d="M22.0886 285.405H86.9203V309.15H43.6992V332.895H22.0886V285.405Z" fill="#4192F5"/>
<path d="M238.194 285.405H324.636V332.895H281.415V309.15H238.194V285.405Z" fill="#4192F5"/>
<path d="M324.636 285.405H346.247V332.895H324.636V285.405Z" fill="white"/>
<path d="M130.141 309.15H194.973V332.895H216.583V356.639H108.531V332.895H130.141V309.15Z" fill="#4192F5"/>
<path d="M0.478027 332.895H22.0886V356.639H43.6991V380.384H0.478027V332.895Z" fill="#4192F5"/>
<path d="M324.636 332.895H346.247V380.384H281.415V356.639H324.636V332.895Z" fill="#4192F5"/>
</svg>
