<svg width="1024" height="106" viewBox="0 0 1024 106" fill="none" xmlns="http://www.w3.org/2000/svg">
<rect x="1.74691" y="5.34701" width="1016.77" height="83.9729" fill="white" stroke="#4192F5" stroke-width="9.89372"/>
<path d="M18.9523 37.1935H27.9487C30.5759 37.1935 32.8577 37.4761 34.7941 38.0414C36.7305 38.6066 38.3319 39.4178 39.5984 40.4749C40.8754 41.5216 41.8227 42.7986 42.4402 44.3059C43.0683 45.8026 43.3823 47.4878 43.3823 49.3614C43.3823 51.1408 43.0735 52.7894 42.4559 54.3071C41.8384 55.8143 40.8964 57.1227 39.6298 58.2322C38.3633 59.3312 36.7619 60.1948 34.8255 60.8228C32.8891 61.4403 30.6073 61.7491 27.9801 61.7491L18.9523 61.7334V37.1935ZM29.1733 57.4315C30.6596 57.4315 31.9628 57.2431 33.0827 56.8662C34.2027 56.479 35.1343 55.9347 35.8774 55.2334C36.6311 54.5321 37.1963 53.6843 37.5731 52.6899C37.9499 51.6956 38.1383 50.5861 38.1383 49.3614C38.1383 48.1577 37.9499 47.0744 37.5731 46.1114C37.1963 45.138 36.6311 44.3163 35.8774 43.6464C35.1343 42.9661 34.2027 42.4427 33.0827 42.0764C31.9628 41.71 30.6596 41.5269 29.1733 41.5269H23.9294V57.4315H29.1733ZM48.375 37.1935H69.2724V41.5583H53.3521V46.4568H67.4511V50.5547H53.3521V57.3844H69.6021V61.7334H48.375V37.1935ZM76.2748 54.4327C77.1645 54.9351 78.0646 55.3904 78.9753 55.7986C79.8964 56.1964 80.8489 56.5365 81.8328 56.8191C82.8167 57.0913 83.8477 57.3006 84.9258 57.4472C86.0143 57.5937 87.1709 57.667 88.3956 57.667C89.8714 57.667 91.1274 57.5728 92.1637 57.3844C93.1999 57.1855 94.0425 56.9186 94.6915 56.5836C95.3509 56.2382 95.8271 55.83 96.1202 55.359C96.4237 54.888 96.5755 54.3751 96.5755 53.8204C96.5755 52.9307 96.2039 52.2294 95.4608 51.7165C94.7176 51.1931 93.5715 50.9315 92.0224 50.9315C91.342 50.9315 90.625 50.9786 89.8714 51.0728C89.1178 51.1565 88.3537 51.2507 87.5791 51.3554C86.815 51.46 86.0562 51.5595 85.3026 51.6537C84.5594 51.7374 83.8581 51.7793 83.1987 51.7793C82.0997 51.7793 81.0425 51.638 80.0272 51.3554C79.0224 51.0728 78.1274 50.6489 77.3424 50.0836C76.5679 49.5184 75.9503 48.8119 75.4898 47.9641C75.0292 47.1162 74.7989 46.1271 74.7989 44.9967C74.7989 44.3268 74.8879 43.6621 75.0658 43.0027C75.2543 42.3433 75.5473 41.7153 75.9451 41.1187C76.3533 40.5116 76.8766 39.9516 77.5151 39.4387C78.1536 38.9154 78.9229 38.4653 79.8231 38.0885C80.7337 37.7117 81.7804 37.4186 82.9632 37.2092C84.1564 36.9894 85.5119 36.8795 87.0296 36.8795C88.1287 36.8795 89.2329 36.9423 90.3424 37.0679C91.4519 37.1831 92.53 37.3505 93.5767 37.5703C94.6339 37.7902 95.6492 38.0571 96.6226 38.3711C97.596 38.6746 98.5014 39.0148 99.3388 39.3916L97.1564 43.4109C96.4656 43.1074 95.7225 42.83 94.927 42.5788C94.1315 42.3171 93.2993 42.0921 92.4306 41.9037C91.5618 41.7153 90.6617 41.5687 89.7301 41.4641C88.809 41.3489 87.867 41.2914 86.904 41.2914C85.5328 41.2914 84.4024 41.3908 83.5127 41.5897C82.6335 41.7885 81.9322 42.045 81.4088 42.359C80.8855 42.6625 80.5192 43.008 80.3098 43.3952C80.1109 43.772 80.0115 44.1489 80.0115 44.5257C80.0115 45.2584 80.3412 45.8602 81.0006 46.3312C81.6601 46.7918 82.6649 47.022 84.0151 47.022C84.5594 47.022 85.1822 46.9854 85.8835 46.9121C86.5952 46.8284 87.3384 46.7394 88.113 46.6452C88.898 46.551 89.6935 46.4673 90.4994 46.394C91.3159 46.3103 92.1061 46.2684 92.8702 46.2684C94.3146 46.2684 95.5916 46.4307 96.7011 46.7551C97.8211 47.0796 98.7579 47.5454 99.5115 48.1525C100.265 48.7491 100.836 49.4766 101.223 50.3348C101.61 51.1827 101.804 52.1352 101.804 53.1923C101.804 54.6054 101.474 55.8666 100.815 56.9762C100.166 58.0752 99.2341 59.0067 98.02 59.7708C96.8163 60.5245 95.3613 61.1001 93.6552 61.4979C91.9491 61.8852 90.0493 62.0788 87.9559 62.0788C86.5743 62.0788 85.2241 61.9898 83.9052 61.8119C82.5864 61.6444 81.3199 61.4037 80.1057 61.0897C78.902 60.7652 77.7506 60.3832 76.6516 59.9435C75.563 59.4935 74.553 59.0015 73.6214 58.4677L76.2748 54.4327ZM106.655 37.1935H111.664V61.7334H106.655V37.1935ZM116.342 49.2358C116.342 47.5088 116.667 45.8968 117.316 44.4001C117.965 42.8928 118.912 41.5844 120.158 40.4749C121.403 39.3654 122.931 38.4914 124.742 37.853C126.563 37.2145 128.646 36.8952 130.991 36.8952C131.839 36.8952 132.687 36.9423 133.534 37.0365C134.393 37.1203 135.235 37.2563 136.062 37.4447C136.9 37.6332 137.711 37.8739 138.496 38.167C139.291 38.4496 140.045 38.7898 140.757 39.1875L138.464 42.9556C138.035 42.7044 137.549 42.4794 137.004 42.2805C136.46 42.0712 135.874 41.8984 135.246 41.7624C134.628 41.6158 133.985 41.5059 133.315 41.4327C132.655 41.3594 131.991 41.3228 131.321 41.3228C129.772 41.3228 128.39 41.5216 127.176 41.9194C125.962 42.3067 124.936 42.8562 124.098 43.5679C123.261 44.2692 122.623 45.1118 122.183 46.0957C121.743 47.0796 121.524 48.1577 121.524 49.33C121.524 50.5442 121.754 51.6589 122.214 52.6742C122.675 53.6895 123.329 54.5635 124.177 55.2962C125.025 56.0289 126.051 56.6046 127.254 57.0233C128.458 57.4315 129.803 57.6356 131.289 57.6356C132.472 57.6356 133.555 57.5047 134.539 57.2431C135.523 56.9709 136.381 56.5889 137.114 56.0969C137.847 55.605 138.443 55.0136 138.904 54.3228C139.365 53.6215 139.668 52.8365 139.815 51.9677H131.242V47.8699H144.289V47.8856L144.305 47.8699C144.567 49.1259 144.645 50.3505 144.541 51.5438C144.446 52.7266 144.174 53.8465 143.724 54.9037C143.284 55.9504 142.677 56.9133 141.903 57.7926C141.128 58.6718 140.202 59.4307 139.124 60.0691C138.046 60.6972 136.821 61.1891 135.45 61.545C134.079 61.8904 132.577 62.0631 130.944 62.0631C128.662 62.0631 126.616 61.7282 124.805 61.0583C123.005 60.3884 121.476 59.4725 120.22 58.3107C118.964 57.1489 118.001 55.7881 117.332 54.2286C116.672 52.669 116.342 51.0047 116.342 49.2358ZM150.146 37.1935H155.123L170.415 45.2008V37.1935H175.392V61.7334H170.415V50.4761L155.123 42.516V61.7334H150.146V37.1935ZM182.332 37.1935H203.229V41.5583H187.309V46.4568H201.408V50.5547H187.309V57.3844H203.559V61.7334H182.332V37.1935ZM209.085 37.1935H218.082C220.709 37.1935 222.991 37.4761 224.927 38.0414C226.863 38.6066 228.465 39.4178 229.731 40.4749C231.008 41.5216 231.956 42.7986 232.573 44.3059C233.201 45.8026 233.515 47.4878 233.515 49.3614C233.515 51.1408 233.206 52.7894 232.589 54.3071C231.971 55.8143 231.029 57.1227 229.763 58.2322C228.496 59.3312 226.895 60.1948 224.958 60.8228C223.022 61.4403 220.74 61.7491 218.113 61.7491L209.085 61.7334V37.1935ZM219.306 57.4315C220.793 57.4315 222.096 57.2431 223.216 56.8662C224.336 56.479 225.267 55.9347 226.01 55.2334C226.764 54.5321 227.329 53.6843 227.706 52.6899C228.083 51.6956 228.271 50.5861 228.271 49.3614C228.271 48.1577 228.083 47.0744 227.706 46.1114C227.329 45.138 226.764 44.3163 226.01 43.6464C225.267 42.9661 224.336 42.4427 223.216 42.0764C222.096 41.71 220.793 41.5269 219.306 41.5269H214.062V57.4315H219.306ZM249.184 37.1935H262.294C263.896 37.1935 265.288 37.3662 266.47 37.7117C267.664 38.0466 268.653 38.5124 269.438 39.109C270.223 39.7056 270.804 40.4174 271.181 41.2443C271.568 42.0607 271.762 42.9451 271.762 43.8976C271.762 45.4572 271.27 46.8232 270.286 47.9955C271.416 48.6654 272.259 49.5341 272.813 50.6018C273.368 51.6694 273.646 52.8836 273.646 54.2443C273.646 55.3852 273.452 56.4162 273.065 57.3373C272.688 58.2584 272.107 59.0486 271.322 59.708C270.547 60.357 269.563 60.8594 268.37 61.2153C267.187 61.5607 265.79 61.7334 264.178 61.7334H249.184V37.1935ZM264.21 46.6138C264.639 46.6138 265.057 46.6295 265.466 46.6609C266.167 45.991 266.518 45.227 266.518 44.3687C266.518 43.479 266.167 42.7934 265.466 42.3119C264.775 41.8199 263.76 41.574 262.42 41.574H254.161V46.6138H264.21ZM264.304 57.4001C265.644 57.4001 266.659 57.1122 267.35 56.5365C268.051 55.9609 268.402 55.1497 268.402 54.103C268.402 53.0563 268.051 52.2398 267.35 51.6537C266.659 51.0675 265.644 50.7745 264.304 50.7745H254.161V57.4001H264.304ZM286.222 55.6573L275.498 37.1935H281.135L288.687 51.1513L296.144 37.1935H301.781L291.199 55.6259V61.7334H286.222V55.6573ZM314.781 49.3928C314.781 47.5402 315.121 45.8445 315.801 44.3059C316.482 42.7672 317.434 41.4484 318.659 40.3493C319.894 39.2398 321.37 38.3815 323.086 37.7745C324.814 37.1674 326.724 36.8638 328.817 36.8638C330.9 36.8638 332.805 37.1674 334.532 37.7745C336.259 38.3815 337.735 39.2398 338.96 40.3493C340.195 41.4484 341.152 42.7672 341.833 44.3059C342.513 45.8445 342.853 47.5402 342.853 49.3928C342.853 51.2559 342.513 52.9673 341.833 54.5269C341.152 56.076 340.195 57.4105 338.96 58.5305C337.735 59.6505 336.259 60.5245 334.532 61.1525C332.805 61.77 330.9 62.0788 328.817 62.0788C326.724 62.0788 324.814 61.77 323.086 61.1525C321.37 60.5245 319.894 59.6505 318.659 58.5305C317.434 57.4105 316.482 56.076 315.801 54.5269C315.121 52.9673 314.781 51.2559 314.781 49.3928ZM319.758 49.3928C319.758 50.6593 319.983 51.8002 320.433 52.8155C320.894 53.8308 321.527 54.6996 322.333 55.4218C323.149 56.1336 324.107 56.6831 325.206 57.0704C326.316 57.4576 327.519 57.6513 328.817 57.6513C330.115 57.6513 331.314 57.4576 332.413 57.0704C333.522 56.6831 334.48 56.1336 335.286 55.4218C336.092 54.6996 336.725 53.8308 337.185 52.8155C337.646 51.8002 337.876 50.6593 337.876 49.3928C337.876 48.1263 337.646 46.9906 337.185 45.9858C336.725 44.981 336.092 44.1332 335.286 43.4423C334.48 42.741 333.522 42.2072 332.413 41.8409C331.314 41.4745 330.115 41.2914 328.817 41.2914C327.519 41.2914 326.316 41.4745 325.206 41.8409C324.107 42.2072 323.149 42.741 322.333 43.4423C321.527 44.1332 320.894 44.981 320.433 45.9858C319.983 46.9906 319.758 48.1263 319.758 49.3928ZM348.38 37.1935H360.862C362.746 37.1935 364.379 37.3924 365.76 37.7902C367.142 38.1774 368.288 38.7427 369.199 39.4858C370.109 40.229 370.785 41.1344 371.224 42.202C371.674 43.2696 371.899 44.4786 371.899 45.8288C371.899 46.7394 371.789 47.6082 371.57 48.4351C371.35 49.2515 371.01 50.0051 370.549 50.696C370.099 51.3868 369.528 52.0043 368.838 52.5486C368.147 53.0824 367.336 53.5273 366.404 53.8832L371.742 61.7334H365.65L361.035 54.7624H360.893L353.357 54.7467V61.7334H348.38V37.1935ZM360.987 50.4447C361.929 50.4447 362.751 50.3348 363.452 50.115C364.164 49.8952 364.756 49.5865 365.227 49.1887C365.708 48.791 366.064 48.3095 366.294 47.7443C366.535 47.1686 366.655 46.5301 366.655 45.8288C366.655 44.4576 366.184 43.4005 365.242 42.6573C364.3 41.9037 362.882 41.5269 360.987 41.5269H353.357V50.4447H360.987ZM377.803 37.1935H382.78V57.3687H397.051V61.7334H377.803V37.1935ZM400.443 49.3928C400.443 47.5402 400.783 45.8445 401.463 44.3059C402.144 42.7672 403.096 41.4484 404.321 40.3493C405.556 39.2398 407.032 38.3815 408.748 37.7745C410.475 37.1674 412.386 36.8638 414.479 36.8638C416.562 36.8638 418.467 37.1674 420.194 37.7745C421.921 38.3815 423.397 39.2398 424.621 40.3493C425.857 41.4484 426.814 42.7672 427.495 44.3059C428.175 45.8445 428.515 47.5402 428.515 49.3928C428.515 51.2559 428.175 52.9673 427.495 54.5269C426.814 56.076 425.857 57.4105 424.621 58.5305C423.397 59.6505 421.921 60.5245 420.194 61.1525C418.467 61.77 416.562 62.0788 414.479 62.0788C412.386 62.0788 410.475 61.77 408.748 61.1525C407.032 60.5245 405.556 59.6505 404.321 58.5305C403.096 57.4105 402.144 56.076 401.463 54.5269C400.783 52.9673 400.443 51.2559 400.443 49.3928ZM405.42 49.3928C405.42 50.6593 405.645 51.8002 406.095 52.8155C406.555 53.8308 407.189 54.6996 407.995 55.4218C408.811 56.1336 409.769 56.6831 410.868 57.0704C411.977 57.4576 413.181 57.6513 414.479 57.6513C415.777 57.6513 416.975 57.4576 418.074 57.0704C419.184 56.6831 420.142 56.1336 420.948 55.4218C421.754 54.6996 422.387 53.8308 422.847 52.8155C423.308 51.8002 423.538 50.6593 423.538 49.3928C423.538 48.1263 423.308 46.9906 422.847 45.9858C422.387 44.981 421.754 44.1332 420.948 43.4423C420.142 42.741 419.184 42.2072 418.074 41.8409C416.975 41.4745 415.777 41.2914 414.479 41.2914C413.181 41.2914 411.977 41.4745 410.868 41.8409C409.769 42.2072 408.811 42.741 407.995 43.4423C407.189 44.1332 406.555 44.981 406.095 45.9858C405.645 46.9906 405.42 48.1263 405.42 49.3928ZM430.76 37.1935H436.271L443.98 55.9085L451.689 37.1935H457.2L446.445 61.7334H441.515L430.76 37.1935ZM469.258 37.1935H474.533L486.403 61.7334H481.175L479.212 57.6042H464.878L462.978 61.7334H457.734L469.258 37.1935ZM477.25 53.5063L471.943 42.359L466.777 53.5063H477.25ZM512.717 54.4327C513.607 54.9351 514.507 55.3904 515.417 55.7986C516.339 56.1964 517.291 56.5365 518.275 56.8191C519.259 57.0913 520.29 57.3006 521.368 57.4472C522.456 57.5937 523.613 57.667 524.838 57.667C526.314 57.667 527.57 57.5728 528.606 57.3844C529.642 57.1855 530.485 56.9186 531.134 56.5836C531.793 56.2382 532.269 55.83 532.562 55.359C532.866 54.888 533.018 54.3751 533.018 53.8204C533.018 52.9307 532.646 52.2294 531.903 51.7165C531.16 51.1931 530.014 50.9315 528.465 50.9315C527.784 50.9315 527.067 50.9786 526.314 51.0728C525.56 51.1565 524.796 51.2507 524.021 51.3554C523.257 51.46 522.498 51.5595 521.745 51.6537C521.002 51.7374 520.3 51.7793 519.641 51.7793C518.542 51.7793 517.485 51.638 516.469 51.3554C515.465 51.0728 514.57 50.6489 513.785 50.0836C513.01 49.5184 512.392 48.8119 511.932 47.9641C511.471 47.1162 511.241 46.1271 511.241 44.9967C511.241 44.3268 511.33 43.6621 511.508 43.0027C511.696 42.3433 511.989 41.7153 512.387 41.1187C512.795 40.5116 513.319 39.9516 513.957 39.4387C514.596 38.9154 515.365 38.4653 516.265 38.0885C517.176 37.7117 518.223 37.4186 519.405 37.2092C520.599 36.9894 521.954 36.8795 523.472 36.8795C524.571 36.8795 525.675 36.9423 526.785 37.0679C527.894 37.1831 528.972 37.3505 530.019 37.5703C531.076 37.7902 532.091 38.0571 533.065 38.3711C534.038 38.6746 534.944 39.0148 535.781 39.3916L533.599 43.4109C532.908 43.1074 532.165 42.83 531.369 42.5788C530.574 42.3171 529.742 42.0921 528.873 41.9037C528.004 41.7153 527.104 41.5687 526.172 41.4641C525.251 41.3489 524.309 41.2914 523.346 41.2914C521.975 41.2914 520.845 41.3908 519.955 41.5897C519.076 41.7885 518.374 42.045 517.851 42.359C517.328 42.6625 516.961 43.008 516.752 43.3952C516.553 43.772 516.454 44.1489 516.454 44.5257C516.454 45.2584 516.783 45.8602 517.443 46.3312C518.102 46.7918 519.107 47.022 520.457 47.022C521.002 47.022 521.624 46.9854 522.326 46.9121C523.037 46.8284 523.781 46.7394 524.555 46.6452C525.34 46.551 526.136 46.4673 526.942 46.394C527.758 46.3103 528.548 46.2684 529.312 46.2684C530.757 46.2684 532.034 46.4307 533.143 46.7551C534.263 47.0796 535.2 47.5454 535.954 48.1525C536.707 48.7491 537.278 49.4766 537.665 50.3348C538.052 51.1827 538.246 52.1352 538.246 53.1923C538.246 54.6054 537.916 55.8666 537.257 56.9762C536.608 58.0752 535.676 59.0067 534.462 59.7708C533.258 60.5245 531.803 61.1001 530.097 61.4979C528.391 61.8852 526.492 62.0788 524.398 62.0788C523.016 62.0788 521.666 61.9898 520.347 61.8119C519.029 61.6444 517.762 61.4037 516.548 61.0897C515.344 60.7652 514.193 60.3832 513.094 59.9435C512.005 59.4935 510.995 59.0015 510.064 58.4677L512.717 54.4327ZM542.281 49.3928C542.281 47.5402 542.621 45.8445 543.301 44.3059C543.982 42.7672 544.934 41.4484 546.159 40.3493C547.394 39.2398 548.87 38.3815 550.586 37.7745C552.314 37.1674 554.224 36.8638 556.317 36.8638C558.4 36.8638 560.305 37.1674 562.032 37.7745C563.759 38.3815 565.235 39.2398 566.46 40.3493C567.695 41.4484 568.653 42.7672 569.333 44.3059C570.013 45.8445 570.353 47.5402 570.353 49.3928C570.353 51.2559 570.013 52.9673 569.333 54.5269C568.653 56.076 567.695 57.4105 566.46 58.5305C565.235 59.6505 563.759 60.5245 562.032 61.1525C560.305 61.77 558.4 62.0788 556.317 62.0788C554.224 62.0788 552.314 61.77 550.586 61.1525C548.87 60.5245 547.394 59.6505 546.159 58.5305C544.934 57.4105 543.982 56.076 543.301 54.5269C542.621 52.9673 542.281 51.2559 542.281 49.3928ZM547.258 49.3928C547.258 50.6593 547.483 51.8002 547.933 52.8155C548.394 53.8308 549.027 54.6996 549.833 55.4218C550.649 56.1336 551.607 56.6831 552.706 57.0704C553.816 57.4576 555.019 57.6513 556.317 57.6513C557.615 57.6513 558.814 57.4576 559.913 57.0704C561.022 56.6831 561.98 56.1336 562.786 55.4218C563.592 54.6996 564.225 53.8308 564.686 52.8155C565.146 51.8002 565.376 50.6593 565.376 49.3928C565.376 48.1263 565.146 46.9906 564.686 45.9858C564.225 44.981 563.592 44.1332 562.786 43.4423C561.98 42.741 561.022 42.2072 559.913 41.8409C558.814 41.4745 557.615 41.2914 556.317 41.2914C555.019 41.2914 553.816 41.4745 552.706 41.8409C551.607 42.2072 550.649 42.741 549.833 43.4423C549.027 44.1332 548.394 44.981 547.933 45.9858C547.483 46.9906 547.258 48.1263 547.258 49.3928ZM575.849 37.1935H580.826L596.118 45.2008V37.1935H601.095V61.7334H596.118V50.4761L580.826 42.516V61.7334H575.849V37.1935ZM615.555 55.6573L604.832 37.1935H610.468L618.02 51.1513L625.478 37.1935H631.114L620.532 55.6259V61.7334H615.555V55.6573ZM643.251 37.1935H648.526L660.396 61.7334H655.167L653.205 57.6042H638.87L636.971 61.7334H631.727L643.251 37.1935ZM651.242 53.5063L645.936 42.359L640.77 53.5063H651.242ZM738.914 57.4629L747.565 51.5281C748.863 50.6384 749.925 49.8638 750.752 49.2044C751.579 48.545 752.228 47.9588 752.699 47.446C753.17 46.9226 753.494 46.4516 753.672 46.0329C753.85 45.6142 753.939 45.1956 753.939 44.7769C753.939 44.2954 753.84 43.8453 753.641 43.4266C753.442 43.008 753.128 42.6416 752.699 42.3276C752.28 42.0136 751.736 41.7676 751.066 41.5897C750.407 41.4117 749.616 41.3228 748.695 41.3228C747.356 41.3228 746.021 41.5112 744.692 41.888C743.362 42.2648 742.007 42.8666 740.625 43.6935L738.333 39.9254C739.872 38.9729 741.536 38.2298 743.326 37.696C745.126 37.1621 747.015 36.8952 748.994 36.8952C750.721 36.8952 752.217 37.1046 753.484 37.5232C754.761 37.9315 755.813 38.4914 756.64 39.2032C757.477 39.915 758.1 40.7418 758.508 41.6839C758.916 42.6259 759.12 43.6255 759.12 44.6827C759.12 45.4991 758.984 46.2789 758.712 47.022C758.44 47.7652 757.964 48.5345 757.283 49.33C756.603 50.1255 755.682 50.9838 754.52 51.9049C753.369 52.8155 751.914 53.8518 750.155 55.0136L746.576 57.3687H760.015V61.7334H738.914V57.4629ZM764.333 49.4085C764.333 47.4303 764.631 45.6561 765.228 44.0861C765.824 42.516 766.672 41.1867 767.771 40.0981C768.87 38.9991 770.205 38.1617 771.775 37.586C773.345 37.0104 775.103 36.7225 777.05 36.7225C778.997 36.7225 780.756 37.0104 782.326 37.586C783.896 38.1617 785.23 38.9991 786.329 40.0981C787.428 41.1867 788.276 42.516 788.873 44.0861C789.469 45.6561 789.768 47.4303 789.768 49.4085C789.768 51.3868 789.469 53.1609 788.873 54.731C788.276 56.301 787.428 57.6303 786.329 58.7189C785.23 59.8075 783.896 60.6396 782.326 61.2153C780.756 61.791 778.997 62.0788 777.05 62.0788C775.103 62.0788 773.345 61.791 771.775 61.2153C770.205 60.6396 768.87 59.8075 767.771 58.7189C766.672 57.6303 765.824 56.301 765.228 54.731C764.631 53.1609 764.333 51.3868 764.333 49.4085ZM769.31 49.3928C769.31 50.7326 769.488 51.9154 769.844 52.9411C770.21 53.9669 770.728 54.8304 771.398 55.5317C772.068 56.2225 772.879 56.7511 773.832 57.1175C774.784 57.4733 775.857 57.6513 777.05 57.6513C778.244 57.6513 779.316 57.4733 780.269 57.1175C781.221 56.7511 782.033 56.2225 782.702 55.5317C783.372 54.8304 783.885 53.9669 784.241 52.9411C784.607 51.9154 784.791 50.7326 784.791 49.3928C784.791 48.0635 784.607 46.8912 784.241 45.8759C783.885 44.8501 783.372 43.9866 782.702 43.2853C782.033 42.584 781.221 42.0555 780.269 41.6996C779.316 41.3332 778.244 41.1501 777.05 41.1501C775.857 41.1501 774.784 41.3332 773.832 41.6996C772.879 42.0555 772.068 42.584 771.398 43.2853C770.728 43.9866 770.21 44.8501 769.844 45.8759C769.488 46.8912 769.31 48.0635 769.31 49.3928ZM795.279 57.4629L803.93 51.5281C805.228 50.6384 806.29 49.8638 807.117 49.2044C807.944 48.545 808.593 47.9588 809.064 47.446C809.535 46.9226 809.859 46.4516 810.037 46.0329C810.215 45.6142 810.304 45.1956 810.304 44.7769C810.304 44.2954 810.205 43.8453 810.006 43.4266C809.807 43.008 809.493 42.6416 809.064 42.3276C808.645 42.0136 808.101 41.7676 807.431 41.5897C806.771 41.4117 805.981 41.3228 805.06 41.3228C803.72 41.3228 802.386 41.5112 801.056 41.888C799.727 42.2648 798.372 42.8666 796.99 43.6935L794.698 39.9254C796.236 38.9729 797.901 38.2298 799.69 37.696C801.491 37.1621 803.38 36.8952 805.358 36.8952C807.085 36.8952 808.582 37.1046 809.849 37.5232C811.126 37.9315 812.178 38.4914 813.004 39.2032C813.842 39.915 814.465 40.7418 814.873 41.6839C815.281 42.6259 815.485 43.6255 815.485 44.6827C815.485 45.4991 815.349 46.2789 815.077 47.022C814.805 47.7652 814.329 48.5345 813.648 49.33C812.968 50.1255 812.047 50.9838 810.885 51.9049C809.734 52.8155 808.279 53.8518 806.52 55.0136L802.94 57.3687H816.38V61.7334H795.279V57.4629ZM821.671 52.1247L836.021 37.1935H840.998V52.1247H846.29V56.4894H840.998V61.7334H836.021V56.4894H821.64L821.671 52.1247ZM836.021 52.1247V43.4894L827.637 52.1247H836.021ZM851.408 33.9435H855.443V69.301H851.408V33.9435ZM860.922 47.5088H875.32V50.9943H860.922V47.5088ZM879.637 47.5088H894.035V50.9943H879.637V47.5088ZM898.352 47.5088H912.75V50.9943H898.352V47.5088ZM917.067 47.5088H931.465V50.9943H917.067V47.5088ZM936.944 33.9435H940.979V69.301H936.944V33.9435ZM947.762 57.4629L956.413 51.5281C957.711 50.6384 958.773 49.8638 959.6 49.2044C960.427 48.545 961.076 47.9588 961.547 47.446C962.018 46.9226 962.342 46.4516 962.52 46.0329C962.698 45.6142 962.787 45.1956 962.787 44.7769C962.787 44.2954 962.688 43.8453 962.489 43.4266C962.29 43.008 961.976 42.6416 961.547 42.3276C961.128 42.0136 960.584 41.7676 959.914 41.5897C959.254 41.4117 958.464 41.3228 957.543 41.3228C956.203 41.3228 954.869 41.5112 953.54 41.888C952.21 42.2648 950.855 42.8666 949.473 43.6935L947.181 39.9254C948.719 38.9729 950.384 38.2298 952.174 37.696C953.974 37.1621 955.863 36.8952 957.841 36.8952C959.568 36.8952 961.065 37.1046 962.332 37.5232C963.609 37.9315 964.661 38.4914 965.488 39.2032C966.325 39.915 966.948 40.7418 967.356 41.6839C967.764 42.6259 967.968 43.6255 967.968 44.6827C967.968 45.4991 967.832 46.2789 967.56 47.022C967.288 47.7652 966.812 48.5345 966.131 49.33C965.451 50.1255 964.53 50.9838 963.368 51.9049C962.217 52.8155 960.762 53.8518 959.003 55.0136L955.424 57.3687H968.863V61.7334H947.762V57.4629ZM975.316 55.8928C975.913 56.1964 976.556 56.458 977.247 56.6778C977.949 56.8872 978.666 57.0651 979.398 57.2117C980.141 57.3582 980.885 57.4681 981.628 57.5414C982.381 57.6042 983.114 57.6356 983.826 57.6356C985.082 57.6356 986.165 57.5466 987.076 57.3687C987.997 57.1803 988.75 56.9186 989.337 56.5836C989.933 56.2487 990.373 55.8509 990.655 55.3904C990.949 54.9194 991.095 54.4013 991.095 53.8361C991.095 53.2604 990.943 52.7318 990.64 52.2503C990.347 51.7688 989.902 51.3554 989.305 51.01C988.719 50.6646 987.976 50.3976 987.076 50.2092C986.186 50.0104 985.145 49.9109 983.951 49.9109C983.418 49.9109 982.816 49.9371 982.146 49.9894C981.476 50.0313 980.764 50.1046 980.011 50.2092C979.257 50.3139 978.472 50.4604 977.655 50.6489C976.839 50.8268 976.012 51.0466 975.175 51.3083V37.1935H994V41.6054H979.775V46.3626C980.56 46.1847 981.382 46.0381 982.24 45.923C983.098 45.7974 984.056 45.7346 985.113 45.7346C986.84 45.7346 988.384 45.923 989.745 46.2998C991.106 46.6766 992.252 47.2157 993.183 47.917C994.125 48.6183 994.842 49.4661 995.334 50.4604C995.826 51.4443 996.072 52.5486 996.072 53.7733C996.072 55.0398 995.805 56.1859 995.271 57.2117C994.748 58.227 993.968 59.0957 992.932 59.8179C991.906 60.5402 990.64 61.0949 989.133 61.4822C987.636 61.8695 985.914 62.0631 983.967 62.0631C982.962 62.0631 981.963 62.0055 980.968 61.8904C979.984 61.7857 979.027 61.634 978.095 61.4351C977.164 61.2257 976.269 60.9745 975.41 60.6815C974.562 60.3779 973.767 60.0377 973.024 59.6609L975.316 55.8928Z" fill="#0022FF"/>
</svg>
