<svg width="1024" height="106" viewBox="0 0 1024 106" fill="none" xmlns="http://www.w3.org/2000/svg">
<rect x="1.74691" y="5.34701" width="1016.77" height="83.9729" fill="white" stroke="#4192F5" stroke-width="9.89372"/>
<path d="M18.9523 37.1935H27.9487C30.5759 37.1935 32.8577 37.4761 34.7941 38.0414C36.7305 38.6066 38.3319 39.4178 39.5984 40.4749C40.8754 41.5216 41.8227 42.7986 42.4402 44.3059C43.0683 45.8026 43.3823 47.4878 43.3823 49.3614C43.3823 51.1408 43.0735 52.7894 42.4559 54.3071C41.8384 55.8143 40.8964 57.1227 39.6298 58.2322C38.3633 59.3312 36.7619 60.1948 34.8255 60.8228C32.8891 61.4403 30.6073 61.7491 27.9801 61.7491L18.9523 61.7334V37.1935ZM29.1733 57.4315C30.6596 57.4315 31.9628 57.2431 33.0827 56.8662C34.2027 56.479 35.1343 55.9347 35.8774 55.2334C36.6311 54.5321 37.1963 53.6843 37.5731 52.6899C37.9499 51.6956 38.1383 50.5861 38.1383 49.3614C38.1383 48.1577 37.9499 47.0744 37.5731 46.1114C37.1963 45.138 36.6311 44.3163 35.8774 43.6464C35.1343 42.9661 34.2027 42.4427 33.0827 42.0764C31.9628 41.71 30.6596 41.5269 29.1733 41.5269H23.9294V57.4315H29.1733ZM47.747 37.1935H52.7555V61.7334H47.747V37.1935ZM60.2603 54.4327C61.15 54.9351 62.0501 55.3904 62.9608 55.7986C63.8819 56.1964 64.8344 56.5365 65.8183 56.8191C66.8022 57.0913 67.8332 57.3006 68.9113 57.4472C69.9998 57.5937 71.1564 57.667 72.3811 57.667C73.8569 57.667 75.113 57.5728 76.1492 57.3844C77.1854 57.1855 78.028 56.9186 78.677 56.5836C79.3364 56.2382 79.8126 55.83 80.1057 55.359C80.4092 54.888 80.561 54.3751 80.561 53.8204C80.561 52.9307 80.1894 52.2294 79.4463 51.7165C78.7031 51.1931 77.557 50.9315 76.0079 50.9315C75.3275 50.9315 74.6105 50.9786 73.8569 51.0728C73.1033 51.1565 72.3392 51.2507 71.5646 51.3554C70.8006 51.46 70.0417 51.5595 69.2881 51.6537C68.5449 51.7374 67.8436 51.7793 67.1842 51.7793C66.0852 51.7793 65.028 51.638 64.0127 51.3554C63.0079 51.0728 62.1129 50.6489 61.3279 50.0836C60.5534 49.5184 59.9358 48.8119 59.4753 47.9641C59.0147 47.1162 58.7844 46.1271 58.7844 44.9967C58.7844 44.3268 58.8734 43.6621 59.0514 43.0027C59.2398 42.3433 59.5328 41.7153 59.9306 41.1187C60.3388 40.5116 60.8621 39.9516 61.5006 39.4387C62.1391 38.9154 62.9084 38.4653 63.8086 38.0885C64.7192 37.7117 65.7659 37.4186 66.9487 37.2092C68.1419 36.9894 69.4974 36.8795 71.0151 36.8795C72.1142 36.8795 73.2184 36.9423 74.3279 37.0679C75.4374 37.1831 76.5155 37.3505 77.5622 37.5703C78.6194 37.7902 79.6347 38.0571 80.6081 38.3711C81.5816 38.6746 82.4869 39.0148 83.3243 39.3916L81.1419 43.4109C80.4511 43.1074 79.708 42.83 78.9125 42.5788C78.117 42.3171 77.2849 42.0921 76.4161 41.9037C75.5473 41.7153 74.6472 41.5687 73.7156 41.4641C72.7945 41.3489 71.8525 41.2914 70.8895 41.2914C69.5183 41.2914 68.3879 41.3908 67.4982 41.5897C66.619 41.7885 65.9177 42.045 65.3944 42.359C64.871 42.6625 64.5047 43.008 64.2953 43.3952C64.0964 43.772 63.997 44.1489 63.997 44.5257C63.997 45.2584 64.3267 45.8602 64.9861 46.3312C65.6456 46.7918 66.6504 47.022 68.0006 47.022C68.5449 47.022 69.1677 46.9854 69.869 46.9121C70.5807 46.8284 71.3239 46.7394 72.0985 46.6452C72.8835 46.551 73.679 46.4673 74.4849 46.394C75.3014 46.3103 76.0916 46.2684 76.8557 46.2684C78.3002 46.2684 79.5771 46.4307 80.6866 46.7551C81.8066 47.0796 82.7434 47.5454 83.497 48.1525C84.2506 48.7491 84.8211 49.4766 85.2084 50.3348C85.5956 51.1827 85.7893 52.1352 85.7893 53.1923C85.7893 54.6054 85.4596 55.8666 84.8002 56.9762C84.1512 58.0752 83.2196 59.0067 82.0055 59.7708C80.8018 60.5245 79.3468 61.1001 77.6407 61.4979C75.9346 61.8852 74.0349 62.0788 71.9415 62.0788C70.5598 62.0788 69.2096 61.9898 67.8907 61.8119C66.5719 61.6444 65.3054 61.4037 64.0912 61.0897C62.8875 60.7652 61.7361 60.3832 60.6371 59.9435C59.5485 59.4935 58.5385 59.0015 57.6069 58.4677L60.2603 54.4327ZM91.2687 37.1935H112.166V41.5583H96.2458V46.4568H110.345V50.5547H96.2458V57.3844H112.496V61.7334H91.2687V37.1935ZM116.342 49.2358C116.342 47.5088 116.667 45.8968 117.316 44.4001C117.965 42.8928 118.912 41.5844 120.158 40.4749C121.403 39.3654 122.931 38.4914 124.742 37.853C126.563 37.2145 128.646 36.8952 130.991 36.8952C131.839 36.8952 132.687 36.9423 133.534 37.0365C134.393 37.1203 135.235 37.2563 136.062 37.4447C136.9 37.6332 137.711 37.8739 138.496 38.167C139.291 38.4496 140.045 38.7898 140.757 39.1875L138.464 42.9556C138.035 42.7044 137.549 42.4794 137.004 42.2805C136.46 42.0712 135.874 41.8984 135.246 41.7624C134.628 41.6158 133.985 41.5059 133.315 41.4327C132.655 41.3594 131.991 41.3228 131.321 41.3228C129.772 41.3228 128.39 41.5216 127.176 41.9194C125.962 42.3067 124.936 42.8562 124.098 43.5679C123.261 44.2692 122.623 45.1118 122.183 46.0957C121.743 47.0796 121.524 48.1577 121.524 49.33C121.524 50.5442 121.754 51.6589 122.214 52.6742C122.675 53.6895 123.329 54.5635 124.177 55.2962C125.025 56.0289 126.051 56.6046 127.254 57.0233C128.458 57.4315 129.803 57.6356 131.289 57.6356C132.472 57.6356 133.555 57.5047 134.539 57.2431C135.523 56.9709 136.381 56.5889 137.114 56.0969C137.847 55.605 138.443 55.0136 138.904 54.3228C139.365 53.6215 139.668 52.8365 139.815 51.9677H131.242V47.8699H144.289V47.8856L144.305 47.8699C144.567 49.1259 144.645 50.3505 144.541 51.5438C144.446 52.7266 144.174 53.8465 143.724 54.9037C143.284 55.9504 142.677 56.9133 141.903 57.7926C141.128 58.6718 140.202 59.4307 139.124 60.0691C138.046 60.6972 136.821 61.1891 135.45 61.545C134.079 61.8904 132.577 62.0631 130.944 62.0631C128.662 62.0631 126.616 61.7282 124.805 61.0583C123.005 60.3884 121.476 59.4725 120.22 58.3107C118.964 57.1489 118.001 55.7881 117.332 54.2286C116.672 52.669 116.342 51.0047 116.342 49.2358ZM150.146 37.1935H155.123L170.415 45.2008V37.1935H175.392V61.7334H170.415V50.4761L155.123 42.516V61.7334H150.146V37.1935ZM182.332 37.1935H203.229V41.5583H187.309V46.4568H201.408V50.5547H187.309V57.3844H203.559V61.7334H182.332V37.1935ZM209.085 37.1935H218.082C220.709 37.1935 222.991 37.4761 224.927 38.0414C226.863 38.6066 228.465 39.4178 229.731 40.4749C231.008 41.5216 231.956 42.7986 232.573 44.3059C233.201 45.8026 233.515 47.4878 233.515 49.3614C233.515 51.1408 233.206 52.7894 232.589 54.3071C231.971 55.8143 231.029 57.1227 229.763 58.2322C228.496 59.3312 226.895 60.1948 224.958 60.8228C223.022 61.4403 220.74 61.7491 218.113 61.7491L209.085 61.7334V37.1935ZM219.306 57.4315C220.793 57.4315 222.096 57.2431 223.216 56.8662C224.336 56.479 225.267 55.9347 226.01 55.2334C226.764 54.5321 227.329 53.6843 227.706 52.6899C228.083 51.6956 228.271 50.5861 228.271 49.3614C228.271 48.1577 228.083 47.0744 227.706 46.1114C227.329 45.138 226.764 44.3163 226.01 43.6464C225.267 42.9661 224.336 42.4427 223.216 42.0764C222.096 41.71 220.793 41.5269 219.306 41.5269H214.062V57.4315H219.306ZM249.184 37.1935H262.294C263.896 37.1935 265.288 37.3662 266.47 37.7117C267.664 38.0466 268.653 38.5124 269.438 39.109C270.223 39.7056 270.804 40.4174 271.181 41.2443C271.568 42.0607 271.762 42.9451 271.762 43.8976C271.762 45.4572 271.27 46.8232 270.286 47.9955C271.416 48.6654 272.259 49.5341 272.813 50.6018C273.368 51.6694 273.646 52.8836 273.646 54.2443C273.646 55.3852 273.452 56.4162 273.065 57.3373C272.688 58.2584 272.107 59.0486 271.322 59.708C270.547 60.357 269.563 60.8594 268.37 61.2153C267.187 61.5607 265.79 61.7334 264.178 61.7334H249.184V37.1935ZM264.21 46.6138C264.639 46.6138 265.057 46.6295 265.466 46.6609C266.167 45.991 266.518 45.227 266.518 44.3687C266.518 43.479 266.167 42.7934 265.466 42.3119C264.775 41.8199 263.76 41.574 262.42 41.574H254.161V46.6138H264.21ZM264.304 57.4001C265.644 57.4001 266.659 57.1122 267.35 56.5365C268.051 55.9609 268.402 55.1497 268.402 54.103C268.402 53.0563 268.051 52.2398 267.35 51.6537C266.659 51.0675 265.644 50.7745 264.304 50.7745H254.161V57.4001H264.304ZM286.222 55.6573L275.498 37.1935H281.135L288.687 51.1513L296.144 37.1935H301.781L291.199 55.6259V61.7334H286.222V55.6573ZM325.457 49.3928C325.457 47.5402 325.797 45.8445 326.478 44.3059C327.158 42.7672 328.111 41.4484 329.335 40.3493C330.57 39.2398 332.046 38.3815 333.763 37.7745C335.49 37.1674 337.4 36.8638 339.493 36.8638C341.576 36.8638 343.481 37.1674 345.208 37.7745C346.935 38.3815 348.411 39.2398 349.636 40.3493C350.871 41.4484 351.829 42.7672 352.509 44.3059C353.19 45.8445 353.53 47.5402 353.53 49.3928C353.53 51.2559 353.19 52.9673 352.509 54.5269C351.829 56.076 350.871 57.4105 349.636 58.5305C348.411 59.6505 346.935 60.5245 345.208 61.1525C343.481 61.77 341.576 62.0788 339.493 62.0788C337.4 62.0788 335.49 61.77 333.763 61.1525C332.046 60.5245 330.57 59.6505 329.335 58.5305C328.111 57.4105 327.158 56.076 326.478 54.5269C325.797 52.9673 325.457 51.2559 325.457 49.3928ZM330.434 49.3928C330.434 50.6593 330.659 51.8002 331.109 52.8155C331.57 53.8308 332.203 54.6996 333.009 55.4218C333.826 56.1336 334.783 56.6831 335.882 57.0704C336.992 57.4576 338.196 57.6513 339.493 57.6513C340.791 57.6513 341.99 57.4576 343.089 57.0704C344.198 56.6831 345.156 56.1336 345.962 55.4218C346.768 54.6996 347.401 53.8308 347.862 52.8155C348.322 51.8002 348.553 50.6593 348.553 49.3928C348.553 48.1263 348.322 46.9906 347.862 45.9858C347.401 44.981 346.768 44.1332 345.962 43.4423C345.156 42.741 344.198 42.2072 343.089 41.8409C341.99 41.4745 340.791 41.2914 339.493 41.2914C338.196 41.2914 336.992 41.4745 335.882 41.8409C334.783 42.2072 333.826 42.741 333.009 43.4423C332.203 44.1332 331.57 44.981 331.109 45.9858C330.659 46.9906 330.434 48.1263 330.434 49.3928ZM359.056 37.1935H371.538C373.422 37.1935 375.055 37.3924 376.437 37.7902C377.818 38.1774 378.964 38.7427 379.875 39.4858C380.786 40.229 381.461 41.1344 381.9 42.202C382.351 43.2696 382.576 44.4786 382.576 45.8288C382.576 46.7394 382.466 47.6082 382.246 48.4351C382.026 49.2515 381.686 50.0051 381.225 50.696C380.775 51.3868 380.205 52.0043 379.514 52.5486C378.823 53.0824 378.012 53.5273 377.08 53.8832L382.419 61.7334H376.327L371.711 54.7624H371.57L364.033 54.7467V61.7334H359.056V37.1935ZM371.664 50.4447C372.606 50.4447 373.427 50.3348 374.129 50.115C374.841 49.8952 375.432 49.5865 375.903 49.1887C376.384 48.791 376.74 48.3095 376.971 47.7443C377.211 47.1686 377.332 46.5301 377.332 45.8288C377.332 44.4576 376.861 43.4005 375.919 42.6573C374.977 41.9037 373.558 41.5269 371.664 41.5269H364.033V50.4447H371.664ZM388.479 37.1935H393.456V57.3687H407.728V61.7334H388.479V37.1935ZM411.119 49.3928C411.119 47.5402 411.459 45.8445 412.14 44.3059C412.82 42.7672 413.772 41.4484 414.997 40.3493C416.232 39.2398 417.708 38.3815 419.425 37.7745C421.152 37.1674 423.062 36.8638 425.155 36.8638C427.238 36.8638 429.143 37.1674 430.87 37.7745C432.597 38.3815 434.073 39.2398 435.298 40.3493C436.533 41.4484 437.491 42.7672 438.171 44.3059C438.851 45.8445 439.192 47.5402 439.192 49.3928C439.192 51.2559 438.851 52.9673 438.171 54.5269C437.491 56.076 436.533 57.4105 435.298 58.5305C434.073 59.6505 432.597 60.5245 430.87 61.1525C429.143 61.77 427.238 62.0788 425.155 62.0788C423.062 62.0788 421.152 61.77 419.425 61.1525C417.708 60.5245 416.232 59.6505 414.997 58.5305C413.772 57.4105 412.82 56.076 412.14 54.5269C411.459 52.9673 411.119 51.2559 411.119 49.3928ZM416.096 49.3928C416.096 50.6593 416.321 51.8002 416.771 52.8155C417.232 53.8308 417.865 54.6996 418.671 55.4218C419.487 56.1336 420.445 56.6831 421.544 57.0704C422.654 57.4576 423.857 57.6513 425.155 57.6513C426.453 57.6513 427.652 57.4576 428.751 57.0704C429.86 56.6831 430.818 56.1336 431.624 55.4218C432.43 54.6996 433.063 53.8308 433.524 52.8155C433.984 51.8002 434.214 50.6593 434.214 49.3928C434.214 48.1263 433.984 46.9906 433.524 45.9858C433.063 44.981 432.43 44.1332 431.624 43.4423C430.818 42.741 429.86 42.2072 428.751 41.8409C427.652 41.4745 426.453 41.2914 425.155 41.2914C423.857 41.2914 422.654 41.4745 421.544 41.8409C420.445 42.2072 419.487 42.741 418.671 43.4423C417.865 44.1332 417.232 44.981 416.771 45.9858C416.321 46.9906 416.096 48.1263 416.096 49.3928ZM441.437 37.1935H446.948L454.657 55.9085L462.365 37.1935H467.876L457.121 61.7334H452.192L441.437 37.1935ZM479.934 37.1935H485.21L497.079 61.7334H491.851L489.888 57.6042H475.554L473.654 61.7334H468.41L479.934 37.1935ZM487.926 53.5063L482.619 42.359L477.454 53.5063H487.926ZM523.393 54.4327C524.283 54.9351 525.183 55.3904 526.094 55.7986C527.015 56.1964 527.967 56.5365 528.951 56.8191C529.935 57.0913 530.966 57.3006 532.044 57.4472C533.133 57.5937 534.289 57.667 535.514 57.667C536.99 57.667 538.246 57.5728 539.282 57.3844C540.318 57.1855 541.161 56.9186 541.81 56.5836C542.469 56.2382 542.946 55.83 543.239 55.359C543.542 54.888 543.694 54.3751 543.694 53.8204C543.694 52.9307 543.322 52.2294 542.579 51.7165C541.836 51.1931 540.69 50.9315 539.141 50.9315C538.461 50.9315 537.744 50.9786 536.99 51.0728C536.236 51.1565 535.472 51.2507 534.698 51.3554C533.934 51.46 533.175 51.5595 532.421 51.6537C531.678 51.7374 530.977 51.7793 530.317 51.7793C529.218 51.7793 528.161 51.638 527.146 51.3554C526.141 51.0728 525.246 50.6489 524.461 50.0836C523.686 49.5184 523.069 48.8119 522.608 47.9641C522.148 47.1162 521.917 46.1271 521.917 44.9967C521.917 44.3268 522.006 43.6621 522.184 43.0027C522.373 42.3433 522.666 41.7153 523.064 41.1187C523.472 40.5116 523.995 39.9516 524.634 39.4387C525.272 38.9154 526.041 38.4653 526.942 38.0885C527.852 37.7117 528.899 37.4186 530.082 37.2092C531.275 36.9894 532.63 36.8795 534.148 36.8795C535.247 36.8795 536.351 36.9423 537.461 37.0679C538.57 37.1831 539.649 37.3505 540.695 37.5703C541.752 37.7902 542.768 38.0571 543.741 38.3711C544.715 38.6746 545.62 39.0148 546.457 39.3916L544.275 43.4109C543.584 43.1074 542.841 42.83 542.045 42.5788C541.25 42.3171 540.418 42.0921 539.549 41.9037C538.68 41.7153 537.78 41.5687 536.849 41.4641C535.927 41.3489 534.985 41.2914 534.023 41.2914C532.651 41.2914 531.521 41.3908 530.631 41.5897C529.752 41.7885 529.051 42.045 528.527 42.359C528.004 42.6625 527.638 43.008 527.428 43.3952C527.229 43.772 527.13 44.1489 527.13 44.5257C527.13 45.2584 527.46 45.8602 528.119 46.3312C528.779 46.7918 529.783 47.022 531.134 47.022C531.678 47.022 532.301 46.9854 533.002 46.9121C533.714 46.8284 534.457 46.7394 535.231 46.6452C536.016 46.551 536.812 46.4673 537.618 46.394C538.434 46.3103 539.225 46.2684 539.989 46.2684C541.433 46.2684 542.71 46.4307 543.82 46.7551C544.94 47.0796 545.876 47.5454 546.63 48.1525C547.384 48.7491 547.954 49.4766 548.341 50.3348C548.729 51.1827 548.922 52.1352 548.922 53.1923C548.922 54.6054 548.593 55.8666 547.933 56.9762C547.284 58.0752 546.353 59.0067 545.138 59.7708C543.935 60.5245 542.48 61.1001 540.774 61.4979C539.068 61.8852 537.168 62.0788 535.074 62.0788C533.693 62.0788 532.343 61.9898 531.024 61.8119C529.705 61.6444 528.438 61.4037 527.224 61.0897C526.02 60.7652 524.869 60.3832 523.77 59.9435C522.682 59.4935 521.671 59.0015 520.74 58.4677L523.393 54.4327ZM552.957 49.3928C552.957 47.5402 553.297 45.8445 553.978 44.3059C554.658 42.7672 555.611 41.4484 556.835 40.3493C558.07 39.2398 559.546 38.3815 561.263 37.7745C562.99 37.1674 564.9 36.8638 566.993 36.8638C569.076 36.8638 570.981 37.1674 572.708 37.7745C574.436 38.3815 575.911 39.2398 577.136 40.3493C578.371 41.4484 579.329 42.7672 580.009 44.3059C580.69 45.8445 581.03 47.5402 581.03 49.3928C581.03 51.2559 580.69 52.9673 580.009 54.5269C579.329 56.076 578.371 57.4105 577.136 58.5305C575.911 59.6505 574.436 60.5245 572.708 61.1525C570.981 61.77 569.076 62.0788 566.993 62.0788C564.9 62.0788 562.99 61.77 561.263 61.1525C559.546 60.5245 558.07 59.6505 556.835 58.5305C555.611 57.4105 554.658 56.076 553.978 54.5269C553.297 52.9673 552.957 51.2559 552.957 49.3928ZM557.934 49.3928C557.934 50.6593 558.159 51.8002 558.609 52.8155C559.07 53.8308 559.703 54.6996 560.509 55.4218C561.326 56.1336 562.283 56.6831 563.382 57.0704C564.492 57.4576 565.696 57.6513 566.993 57.6513C568.291 57.6513 569.49 57.4576 570.589 57.0704C571.698 56.6831 572.656 56.1336 573.462 55.4218C574.268 54.6996 574.901 53.8308 575.362 52.8155C575.822 51.8002 576.053 50.6593 576.053 49.3928C576.053 48.1263 575.822 46.9906 575.362 45.9858C574.901 44.981 574.268 44.1332 573.462 43.4423C572.656 42.741 571.698 42.2072 570.589 41.8409C569.49 41.4745 568.291 41.2914 566.993 41.2914C565.696 41.2914 564.492 41.4745 563.382 41.8409C562.283 42.2072 561.326 42.741 560.509 43.4423C559.703 44.1332 559.07 44.981 558.609 45.9858C558.159 46.9906 557.934 48.1263 557.934 49.3928ZM586.525 37.1935H591.502L606.794 45.2008V37.1935H611.771V61.7334H606.794V50.4761L591.502 42.516V61.7334H586.525V37.1935ZM626.231 55.6573L615.508 37.1935H621.144L628.696 51.1513L636.154 37.1935H641.791L631.208 55.6259V61.7334H626.231V55.6573ZM653.927 37.1935H659.202L671.072 61.7334H665.844L663.881 57.6042H649.547L647.647 61.7334H642.403L653.927 37.1935ZM661.919 53.5063L656.612 42.359L651.446 53.5063H661.919ZM760.267 57.4629L768.918 51.5281C770.215 50.6384 771.278 49.8638 772.105 49.2044C772.932 48.545 773.581 47.9588 774.052 47.446C774.523 46.9226 774.847 46.4516 775.025 46.0329C775.203 45.6142 775.292 45.1956 775.292 44.7769C775.292 44.2954 775.192 43.8453 774.994 43.4266C774.795 43.008 774.481 42.6416 774.052 42.3276C773.633 42.0136 773.089 41.7676 772.419 41.5897C771.759 41.4117 770.969 41.3228 770.048 41.3228C768.708 41.3228 767.374 41.5112 766.044 41.888C764.715 42.2648 763.36 42.8666 761.978 43.6935L759.686 39.9254C761.224 38.9729 762.889 38.2298 764.678 37.696C766.479 37.1621 768.368 36.8952 770.346 36.8952C772.073 36.8952 773.57 37.1046 774.837 37.5232C776.114 37.9315 777.166 38.4914 777.992 39.2032C778.83 39.915 779.453 40.7418 779.861 41.6839C780.269 42.6259 780.473 43.6255 780.473 44.6827C780.473 45.4991 780.337 46.2789 780.065 47.022C779.793 47.7652 779.316 48.5345 778.636 49.33C777.956 50.1255 777.035 50.9838 775.873 51.9049C774.721 52.8155 773.267 53.8518 771.508 55.0136L767.928 57.3687H781.368V61.7334H760.267V57.4629ZM785.686 49.4085C785.686 47.4303 785.984 45.6561 786.581 44.0861C787.177 42.516 788.025 41.1867 789.124 40.0981C790.223 38.9991 791.558 38.1617 793.128 37.586C794.698 37.0104 796.456 36.7225 798.403 36.7225C800.35 36.7225 802.108 37.0104 803.678 37.586C805.248 38.1617 806.583 38.9991 807.682 40.0981C808.781 41.1867 809.629 42.516 810.225 44.0861C810.822 45.6561 811.12 47.4303 811.12 49.4085C811.12 51.3868 810.822 53.1609 810.225 54.731C809.629 56.301 808.781 57.6303 807.682 58.7189C806.583 59.8075 805.248 60.6396 803.678 61.2153C802.108 61.791 800.35 62.0788 798.403 62.0788C796.456 62.0788 794.698 61.791 793.128 61.2153C791.558 60.6396 790.223 59.8075 789.124 58.7189C788.025 57.6303 787.177 56.301 786.581 54.731C785.984 53.1609 785.686 51.3868 785.686 49.4085ZM790.663 49.3928C790.663 50.7326 790.841 51.9154 791.196 52.9411C791.563 53.9669 792.081 54.8304 792.751 55.5317C793.421 56.2225 794.232 56.7511 795.184 57.1175C796.137 57.4733 797.21 57.6513 798.403 57.6513C799.596 57.6513 800.669 57.4733 801.622 57.1175C802.574 56.7511 803.385 56.2225 804.055 55.5317C804.725 54.8304 805.238 53.9669 805.594 52.9411C805.96 51.9154 806.143 50.7326 806.143 49.3928C806.143 48.0635 805.96 46.8912 805.594 45.8759C805.238 44.8501 804.725 43.9866 804.055 43.2853C803.385 42.584 802.574 42.0555 801.622 41.6996C800.669 41.3332 799.596 41.1501 798.403 41.1501C797.21 41.1501 796.137 41.3332 795.184 41.6996C794.232 42.0555 793.421 42.584 792.751 43.2853C792.081 43.9866 791.563 44.8501 791.196 45.8759C790.841 46.8912 790.663 48.0635 790.663 49.3928ZM816.631 57.4629L825.282 51.5281C826.58 50.6384 827.643 49.8638 828.469 49.2044C829.296 48.545 829.945 47.9588 830.416 47.446C830.887 46.9226 831.212 46.4516 831.39 46.0329C831.568 45.6142 831.657 45.1956 831.657 44.7769C831.657 44.2954 831.557 43.8453 831.358 43.4266C831.159 43.008 830.845 42.6416 830.416 42.3276C829.998 42.0136 829.453 41.7676 828.783 41.5897C828.124 41.4117 827.334 41.3228 826.413 41.3228C825.073 41.3228 823.738 41.5112 822.409 41.888C821.08 42.2648 819.724 42.8666 818.343 43.6935L816.05 39.9254C817.589 38.9729 819.253 38.2298 821.043 37.696C822.843 37.1621 824.733 36.8952 826.711 36.8952C828.438 36.8952 829.935 37.1046 831.201 37.5232C832.478 37.9315 833.53 38.4914 834.357 39.2032C835.195 39.915 835.817 40.7418 836.226 41.6839C836.634 42.6259 836.838 43.6255 836.838 44.6827C836.838 45.4991 836.702 46.2789 836.43 47.022C836.157 47.7652 835.681 48.5345 835.001 49.33C834.321 50.1255 833.399 50.9838 832.238 51.9049C831.086 52.8155 829.631 53.8518 827.873 55.0136L824.293 57.3687H837.733V61.7334H816.631V57.4629ZM843.024 52.1247L857.374 37.1935H862.351V52.1247H867.642V56.4894H862.351V61.7334H857.374V56.4894H842.992L843.024 52.1247ZM857.374 52.1247V43.4894L848.99 52.1247H857.374ZM872.76 33.9435H876.796V69.301H872.76V33.9435ZM882.275 47.5088H896.672V50.9943H882.275V47.5088ZM900.99 47.5088H915.387V50.9943H900.99V47.5088ZM919.705 47.5088H934.102V50.9943H919.705V47.5088ZM939.582 33.9435H943.617V69.301H939.582V33.9435ZM950.399 57.4629L959.05 51.5281C960.348 50.6384 961.411 49.8638 962.238 49.2044C963.064 48.545 963.713 47.9588 964.184 47.446C964.655 46.9226 964.98 46.4516 965.158 46.0329C965.336 45.6142 965.425 45.1956 965.425 44.7769C965.425 44.2954 965.325 43.8453 965.126 43.4266C964.928 43.008 964.614 42.6416 964.184 42.3276C963.766 42.0136 963.221 41.7676 962.552 41.5897C961.892 41.4117 961.102 41.3228 960.181 41.3228C958.841 41.3228 957.507 41.5112 956.177 41.888C954.848 42.2648 953.492 42.8666 952.111 43.6935L949.819 39.9254C951.357 38.9729 953.021 38.2298 954.811 37.696C956.612 37.1621 958.501 36.8952 960.479 36.8952C962.206 36.8952 963.703 37.1046 964.969 37.5232C966.246 37.9315 967.298 38.4914 968.125 39.2032C968.963 39.915 969.585 40.7418 969.994 41.6839C970.402 42.6259 970.606 43.6255 970.606 44.6827C970.606 45.4991 970.47 46.2789 970.198 47.022C969.926 47.7652 969.449 48.5345 968.769 49.33C968.089 50.1255 967.168 50.9838 966.006 51.9049C964.854 52.8155 963.399 53.8518 961.641 55.0136L958.061 57.3687H971.501V61.7334H950.399V57.4629ZM977.954 55.8928C978.55 56.1964 979.194 56.458 979.885 56.6778C980.586 56.8872 981.303 57.0651 982.036 57.2117C982.779 57.3582 983.522 57.4681 984.265 57.5414C985.019 57.6042 985.752 57.6356 986.463 57.6356C987.719 57.6356 988.803 57.5466 989.713 57.3687C990.635 57.1803 991.388 56.9186 991.974 56.5836C992.571 56.2487 993.011 55.8509 993.293 55.3904C993.586 54.9194 993.733 54.4013 993.733 53.8361C993.733 53.2604 993.581 52.7318 993.277 52.2503C992.984 51.7688 992.54 51.3554 991.943 51.01C991.357 50.6646 990.614 50.3976 989.713 50.2092C988.824 50.0104 987.782 49.9109 986.589 49.9109C986.055 49.9109 985.453 49.9371 984.783 49.9894C984.114 50.0313 983.402 50.1046 982.648 50.2092C981.895 50.3139 981.11 50.4604 980.293 50.6489C979.477 50.8268 978.65 51.0466 977.812 51.3083V37.1935H996.637V41.6054H982.413V46.3626C983.198 46.1847 984.019 46.0381 984.878 45.923C985.736 45.7974 986.694 45.7346 987.751 45.7346C989.478 45.7346 991.022 45.923 992.383 46.2998C993.743 46.6766 994.889 47.2157 995.821 47.917C996.763 48.6183 997.48 49.4661 997.972 50.4604C998.464 51.4443 998.71 52.5486 998.71 53.7733C998.71 55.0398 998.443 56.1859 997.909 57.2117C997.386 58.227 996.606 59.0957 995.57 59.8179C994.544 60.5402 993.277 61.0949 991.77 61.4822C990.273 61.8695 988.552 62.0631 986.605 62.0631C985.6 62.0631 984.6 62.0055 983.606 61.8904C982.622 61.7857 981.664 61.634 980.733 61.4351C979.801 61.2257 978.906 60.9745 978.048 60.6815C977.2 60.3779 976.405 60.0377 975.662 59.6609L977.954 55.8928Z" fill="#0022FF"/>
</svg>
