<svg width="473" height="158" viewBox="0 0 473 158" fill="none" xmlns="http://www.w3.org/2000/svg">
<mask id="path-1-outside-1_49_240" maskUnits="userSpaceOnUse" x="58" y="63" width="386" height="74" fill="black">
<rect fill="white" x="58" y="63" width="386" height="74"/>
<path d="M83.5092 84.2375C89.1486 85.3753 92.9577 90.1242 92.9577 97.6929C92.9577 106.498 88.1592 111.495 80.5905 111.495C73.566 111.495 68.4213 106.498 68.4213 97.6929C68.4213 89.4812 72.5766 84.6332 79.3538 84.0396C79.7001 83.446 79.9474 82.6545 79.9474 81.5662C79.9474 80.3295 79.2549 79.5874 78.315 78.8454C76.9299 77.7571 75.2974 76.4709 75.2974 73.4039H79.6506C79.6506 74.9374 80.4916 75.9268 81.5304 76.8172C82.8661 77.955 84.2017 79.1917 84.2017 81.2694C84.2017 82.4566 83.9544 83.3965 83.5092 84.2375ZM80.6895 107.883C86.0321 107.883 88.456 103.975 88.456 97.6929C88.456 91.4104 86.0321 87.6508 80.64 87.6508C75.2479 87.6508 72.9229 91.4104 72.9229 97.6929C72.9229 103.975 75.2974 107.883 80.6895 107.883ZM109.156 111.495C102.972 111.495 98.1739 108.081 98.1739 101.453C98.1739 100.018 98.5202 98.5339 98.817 97.7424H102.972C102.725 98.6328 102.527 99.9685 102.527 101.453C102.527 105.657 105.149 107.883 109.156 107.883C113.163 107.883 115.636 105.657 115.636 101.205C115.636 97.7919 113.905 95.9121 112.025 94.0323C109.651 91.6578 106.93 89.1349 106.93 84.4848H111.283C111.283 87.354 113.113 89.3328 115.142 91.361C117.566 93.7849 120.138 96.5057 120.138 101.205C120.138 107.389 115.438 111.495 109.156 111.495ZM138.284 111.495C130.716 111.495 126.56 106.894 126.56 98.1876V73.4039H130.914V98.6328C130.914 104.223 133.09 107.883 138.284 107.883C143.231 107.883 145.556 104.223 145.556 99.5728C145.556 96.852 144.517 95.0216 143.231 93.1913C141.648 90.9157 140.016 88.5413 140.016 84.4848H144.369C144.369 87.4529 145.754 89.4812 147.337 91.7072C148.821 93.8344 150.058 96.2089 150.058 99.7212C150.058 106.894 145.26 111.495 138.284 111.495ZM158.54 111C156.512 106.399 155.523 102.491 155.523 97.3467C155.523 89.2338 159.53 83.9901 166.999 83.9901C174.568 83.9901 178.476 89.2338 178.476 97.3467C178.476 102.491 177.487 106.399 175.459 111H171.006C173.084 106.35 174.024 102.541 174.024 97.2972C174.024 90.9157 171.402 87.6014 166.999 87.6014C162.547 87.6014 159.975 90.9157 159.975 97.2972C159.975 102.541 160.915 106.35 162.992 111H158.54ZM196.642 111.495C189.073 111.495 184.918 106.894 184.918 98.1876V73.4039H189.271V98.6328C189.271 104.223 191.448 107.883 196.642 107.883C201.589 107.883 203.914 104.223 203.914 99.5728C203.914 96.852 202.875 95.0216 201.589 93.1913C200.006 90.9157 198.373 88.5413 198.373 84.4848H202.727C202.727 87.4529 204.112 89.4812 205.695 91.7072C207.179 93.8344 208.415 96.2089 208.415 99.7212C208.415 106.894 203.617 111.495 196.642 111.495ZM241.04 111.495C234.856 111.495 230.058 108.081 230.058 101.453C230.058 100.018 230.404 98.5339 230.701 97.7424H234.856C234.609 98.6328 234.411 99.9685 234.411 101.453C234.411 105.657 237.033 107.883 241.04 107.883C245.047 107.883 247.52 105.657 247.52 101.205C247.52 97.7919 245.789 95.9121 243.909 94.0323C241.535 91.6578 238.814 89.1349 238.814 84.4848H243.167C243.167 87.354 244.997 89.3328 247.026 91.361C249.45 93.7849 252.022 96.5057 252.022 101.205C252.022 107.389 247.323 111.495 241.04 111.495ZM281.843 123.367C279.666 119.212 274.522 116.59 270.713 116.59C267.942 116.59 265.914 117.184 263.243 118.42L261.759 115.353C263.292 114.611 265.123 113.968 268.14 113.82V113.671C261.363 110.456 257.455 105.113 257.455 96.9509C257.455 89.5306 260.868 83.9901 267.299 83.9901C271.504 83.9901 274.324 85.8205 275.462 89.5801H275.709C277.094 85.8205 280.606 83.9901 284.317 83.9901C291.143 83.9901 295.595 88.937 295.595 97.4456C295.595 106.004 290.698 111 284.366 111C277.539 111 273.038 106.004 273.038 97.4456V95.0216C273.038 89.9264 270.812 87.6014 267.448 87.6014C264.034 87.6014 261.907 90.9157 261.907 96.852C261.907 106.251 266.953 110.011 272.691 112.484C278.43 114.957 282.684 116.788 285.158 121.586L281.843 123.367ZM284.267 107.389C288.967 107.389 291.094 103.481 291.094 97.4456C291.094 91.4104 289.016 87.6508 284.317 87.6508C279.666 87.6508 277.539 91.4104 277.539 97.4456C277.539 103.481 279.666 107.389 284.267 107.389ZM311.986 123.367C304.961 123.367 299.816 118.371 299.816 110.06C299.816 101.799 304.219 97.6435 311.343 96.7036C315.152 96.2089 316.685 94.3785 316.685 91.8062C316.685 89.2338 314.954 87.4529 311.936 87.4529C308.869 87.4529 307.286 89.0854 307.286 91.7072C307.286 92.2019 307.385 92.7461 307.484 93.3397H303.23C303.032 92.5482 302.933 91.7567 302.933 91.0147C302.933 86.9088 306.495 83.9901 311.936 83.9901C317.279 83.9901 321.038 87.0572 321.038 91.4104C321.038 94.428 319.554 96.852 316.339 97.8414V97.9898C321.929 99.5728 324.353 104.52 324.353 110.06C324.353 118.371 319.604 123.367 311.986 123.367ZM312.085 119.756C317.427 119.756 319.851 115.848 319.851 110.06C319.851 104.272 317.427 100.513 312.035 100.513C306.643 100.513 304.318 104.272 304.318 110.06C304.318 115.848 306.693 119.756 312.085 119.756ZM331.584 111C329.556 106.399 328.566 102.491 328.566 97.3467C328.566 89.2338 332.573 83.9901 340.043 83.9901C347.612 83.9901 351.52 89.2338 351.52 97.3467C351.52 102.491 350.53 106.399 348.502 111H344.05C346.128 106.35 347.067 102.541 347.067 97.2972C347.067 90.9157 344.446 87.6014 340.043 87.6014C335.591 87.6014 333.018 90.9157 333.018 97.2972C333.018 102.541 333.958 106.35 336.036 111H331.584ZM388.78 123.367C385.713 118.42 380.024 115.798 374.138 115.798C370.922 115.798 367.806 116.738 364.887 118.371L363.156 115.205C365.184 114.215 367.657 113.424 369.933 113.276V113.127C362.809 110.901 356.972 105.905 356.972 96.4562C356.972 88.937 360.385 83.9901 366.767 83.9901C370.427 83.9901 372.703 85.771 373.742 88.6897H373.989C375.078 85.771 377.501 83.9901 381.162 83.9901C385.021 83.9901 387.296 85.771 388.335 88.6897H388.582C389.671 85.771 392.095 83.9901 395.607 83.9901C401.988 83.9901 405.402 89.3822 405.402 97.3467C405.402 101.551 404.511 105.113 402.681 108.576L398.921 107.191C400.455 103.975 400.95 101.106 400.95 97.2972C400.95 90.9157 398.822 87.6014 395.261 87.6014C392.293 87.6014 390.561 89.9264 390.561 94.0323V101.997H386.406V94.0323C386.406 90.3221 384.922 87.6014 381.162 87.6014C377.699 87.6014 375.968 89.9264 375.968 94.0323V101.997H371.813V94.0323C371.813 90.3221 370.329 87.6014 367.064 87.6014C363.551 87.6014 361.424 90.4705 361.424 96.4562C361.424 105.657 368.003 109.862 375.078 111.396C381.756 112.83 389.077 115.452 392.095 121.586L388.78 123.367ZM413.854 111C411.826 106.399 410.837 102.491 410.837 97.3467C410.837 89.2338 414.844 83.9901 422.313 83.9901C429.882 83.9901 433.79 89.2338 433.79 97.3467C433.79 102.491 432.801 106.399 430.773 111H426.32C428.398 106.35 429.338 102.541 429.338 97.2972C429.338 90.9157 426.716 87.6014 422.313 87.6014C417.861 87.6014 415.289 90.9157 415.289 97.2972C415.289 102.541 416.229 106.35 418.306 111H413.854Z"/>
</mask>
<path d="M83.5092 84.2375C89.1486 85.3753 92.9577 90.1242 92.9577 97.6929C92.9577 106.498 88.1592 111.495 80.5905 111.495C73.566 111.495 68.4213 106.498 68.4213 97.6929C68.4213 89.4812 72.5766 84.6332 79.3538 84.0396C79.7001 83.446 79.9474 82.6545 79.9474 81.5662C79.9474 80.3295 79.2549 79.5874 78.315 78.8454C76.9299 77.7571 75.2974 76.4709 75.2974 73.4039H79.6506C79.6506 74.9374 80.4916 75.9268 81.5304 76.8172C82.8661 77.955 84.2017 79.1917 84.2017 81.2694C84.2017 82.4566 83.9544 83.3965 83.5092 84.2375ZM80.6895 107.883C86.0321 107.883 88.456 103.975 88.456 97.6929C88.456 91.4104 86.0321 87.6508 80.64 87.6508C75.2479 87.6508 72.9229 91.4104 72.9229 97.6929C72.9229 103.975 75.2974 107.883 80.6895 107.883ZM109.156 111.495C102.972 111.495 98.1739 108.081 98.1739 101.453C98.1739 100.018 98.5202 98.5339 98.817 97.7424H102.972C102.725 98.6328 102.527 99.9685 102.527 101.453C102.527 105.657 105.149 107.883 109.156 107.883C113.163 107.883 115.636 105.657 115.636 101.205C115.636 97.7919 113.905 95.9121 112.025 94.0323C109.651 91.6578 106.93 89.1349 106.93 84.4848H111.283C111.283 87.354 113.113 89.3328 115.142 91.361C117.566 93.7849 120.138 96.5057 120.138 101.205C120.138 107.389 115.438 111.495 109.156 111.495ZM138.284 111.495C130.716 111.495 126.56 106.894 126.56 98.1876V73.4039H130.914V98.6328C130.914 104.223 133.09 107.883 138.284 107.883C143.231 107.883 145.556 104.223 145.556 99.5728C145.556 96.852 144.517 95.0216 143.231 93.1913C141.648 90.9157 140.016 88.5413 140.016 84.4848H144.369C144.369 87.4529 145.754 89.4812 147.337 91.7072C148.821 93.8344 150.058 96.2089 150.058 99.7212C150.058 106.894 145.26 111.495 138.284 111.495ZM158.54 111C156.512 106.399 155.523 102.491 155.523 97.3467C155.523 89.2338 159.53 83.9901 166.999 83.9901C174.568 83.9901 178.476 89.2338 178.476 97.3467C178.476 102.491 177.487 106.399 175.459 111H171.006C173.084 106.35 174.024 102.541 174.024 97.2972C174.024 90.9157 171.402 87.6014 166.999 87.6014C162.547 87.6014 159.975 90.9157 159.975 97.2972C159.975 102.541 160.915 106.35 162.992 111H158.54ZM196.642 111.495C189.073 111.495 184.918 106.894 184.918 98.1876V73.4039H189.271V98.6328C189.271 104.223 191.448 107.883 196.642 107.883C201.589 107.883 203.914 104.223 203.914 99.5728C203.914 96.852 202.875 95.0216 201.589 93.1913C200.006 90.9157 198.373 88.5413 198.373 84.4848H202.727C202.727 87.4529 204.112 89.4812 205.695 91.7072C207.179 93.8344 208.415 96.2089 208.415 99.7212C208.415 106.894 203.617 111.495 196.642 111.495ZM241.04 111.495C234.856 111.495 230.058 108.081 230.058 101.453C230.058 100.018 230.404 98.5339 230.701 97.7424H234.856C234.609 98.6328 234.411 99.9685 234.411 101.453C234.411 105.657 237.033 107.883 241.04 107.883C245.047 107.883 247.52 105.657 247.52 101.205C247.52 97.7919 245.789 95.9121 243.909 94.0323C241.535 91.6578 238.814 89.1349 238.814 84.4848H243.167C243.167 87.354 244.997 89.3328 247.026 91.361C249.45 93.7849 252.022 96.5057 252.022 101.205C252.022 107.389 247.323 111.495 241.04 111.495ZM281.843 123.367C279.666 119.212 274.522 116.59 270.713 116.59C267.942 116.59 265.914 117.184 263.243 118.42L261.759 115.353C263.292 114.611 265.123 113.968 268.14 113.82V113.671C261.363 110.456 257.455 105.113 257.455 96.9509C257.455 89.5306 260.868 83.9901 267.299 83.9901C271.504 83.9901 274.324 85.8205 275.462 89.5801H275.709C277.094 85.8205 280.606 83.9901 284.317 83.9901C291.143 83.9901 295.595 88.937 295.595 97.4456C295.595 106.004 290.698 111 284.366 111C277.539 111 273.038 106.004 273.038 97.4456V95.0216C273.038 89.9264 270.812 87.6014 267.448 87.6014C264.034 87.6014 261.907 90.9157 261.907 96.852C261.907 106.251 266.953 110.011 272.691 112.484C278.43 114.957 282.684 116.788 285.158 121.586L281.843 123.367ZM284.267 107.389C288.967 107.389 291.094 103.481 291.094 97.4456C291.094 91.4104 289.016 87.6508 284.317 87.6508C279.666 87.6508 277.539 91.4104 277.539 97.4456C277.539 103.481 279.666 107.389 284.267 107.389ZM311.986 123.367C304.961 123.367 299.816 118.371 299.816 110.06C299.816 101.799 304.219 97.6435 311.343 96.7036C315.152 96.2089 316.685 94.3785 316.685 91.8062C316.685 89.2338 314.954 87.4529 311.936 87.4529C308.869 87.4529 307.286 89.0854 307.286 91.7072C307.286 92.2019 307.385 92.7461 307.484 93.3397H303.23C303.032 92.5482 302.933 91.7567 302.933 91.0147C302.933 86.9088 306.495 83.9901 311.936 83.9901C317.279 83.9901 321.038 87.0572 321.038 91.4104C321.038 94.428 319.554 96.852 316.339 97.8414V97.9898C321.929 99.5728 324.353 104.52 324.353 110.06C324.353 118.371 319.604 123.367 311.986 123.367ZM312.085 119.756C317.427 119.756 319.851 115.848 319.851 110.06C319.851 104.272 317.427 100.513 312.035 100.513C306.643 100.513 304.318 104.272 304.318 110.06C304.318 115.848 306.693 119.756 312.085 119.756ZM331.584 111C329.556 106.399 328.566 102.491 328.566 97.3467C328.566 89.2338 332.573 83.9901 340.043 83.9901C347.612 83.9901 351.52 89.2338 351.52 97.3467C351.52 102.491 350.53 106.399 348.502 111H344.05C346.128 106.35 347.067 102.541 347.067 97.2972C347.067 90.9157 344.446 87.6014 340.043 87.6014C335.591 87.6014 333.018 90.9157 333.018 97.2972C333.018 102.541 333.958 106.35 336.036 111H331.584ZM388.78 123.367C385.713 118.42 380.024 115.798 374.138 115.798C370.922 115.798 367.806 116.738 364.887 118.371L363.156 115.205C365.184 114.215 367.657 113.424 369.933 113.276V113.127C362.809 110.901 356.972 105.905 356.972 96.4562C356.972 88.937 360.385 83.9901 366.767 83.9901C370.427 83.9901 372.703 85.771 373.742 88.6897H373.989C375.078 85.771 377.501 83.9901 381.162 83.9901C385.021 83.9901 387.296 85.771 388.335 88.6897H388.582C389.671 85.771 392.095 83.9901 395.607 83.9901C401.988 83.9901 405.402 89.3822 405.402 97.3467C405.402 101.551 404.511 105.113 402.681 108.576L398.921 107.191C400.455 103.975 400.95 101.106 400.95 97.2972C400.95 90.9157 398.822 87.6014 395.261 87.6014C392.293 87.6014 390.561 89.9264 390.561 94.0323V101.997H386.406V94.0323C386.406 90.3221 384.922 87.6014 381.162 87.6014C377.699 87.6014 375.968 89.9264 375.968 94.0323V101.997H371.813V94.0323C371.813 90.3221 370.329 87.6014 367.064 87.6014C363.551 87.6014 361.424 90.4705 361.424 96.4562C361.424 105.657 368.003 109.862 375.078 111.396C381.756 112.83 389.077 115.452 392.095 121.586L388.78 123.367ZM413.854 111C411.826 106.399 410.837 102.491 410.837 97.3467C410.837 89.2338 414.844 83.9901 422.313 83.9901C429.882 83.9901 433.79 89.2338 433.79 97.3467C433.79 102.491 432.801 106.399 430.773 111H426.32C428.398 106.35 429.338 102.541 429.338 97.2972C429.338 90.9157 426.716 87.6014 422.313 87.6014C417.861 87.6014 415.289 90.9157 415.289 97.2972C415.289 102.541 416.229 106.35 418.306 111H413.854Z" fill="#0022FF"/>
<path d="M83.5092 84.2375L74.7652 79.6083L68.5671 91.3159L81.5525 93.9358L83.5092 84.2375ZM79.3538 84.0396L80.2171 93.8956L85.3192 93.4487L87.8998 89.0248L79.3538 84.0396ZM78.315 78.8454L84.4456 71.08L84.4366 71.0729L84.4275 71.0658L78.315 78.8454ZM75.2974 73.4039V63.5101H65.4037V73.4039H75.2974ZM79.6506 73.4039H89.5444V63.5101H79.6506V73.4039ZM81.5304 76.8172L75.0917 84.3291L75.1032 84.3389L75.1147 84.3487L81.5304 76.8172ZM81.5525 93.9358C82.0671 94.0396 82.2231 94.203 82.3506 94.378C82.5339 94.6297 83.064 95.55 83.064 97.6929H102.851C102.851 92.2672 101.477 87.0287 98.3459 82.7292C95.1589 78.3531 90.5907 75.5731 85.4659 74.5392L81.5525 93.9358ZM83.064 97.6929C83.064 100.359 82.3523 101.174 82.3064 101.224C82.2683 101.266 82.2115 101.322 82.0399 101.391C81.8451 101.469 81.3962 101.601 80.5905 101.601V121.388C86.6349 121.388 92.5741 119.325 96.9183 114.567C101.164 109.918 102.851 103.833 102.851 97.6929H83.064ZM80.5905 101.601C79.5146 101.601 79.2283 101.279 79.149 101.193C79.016 101.049 78.315 100.18 78.315 97.6929H58.5275C58.5275 104.011 60.3989 110.044 64.5944 114.599C68.8436 119.212 74.6419 121.388 80.5905 121.388V101.601ZM78.315 97.6929C78.315 95.1956 78.9404 94.3518 79.0134 94.2623C79.0551 94.2112 79.0909 94.1775 79.1845 94.131C79.2953 94.076 79.6046 93.9493 80.2171 93.8956L78.4905 74.1836C72.8283 74.6796 67.4844 77.0901 63.6787 81.7567C59.9798 86.2924 58.5275 91.9785 58.5275 97.6929H78.315ZM87.8998 89.0248C89.2091 86.7802 89.8412 84.2394 89.8412 81.5662H70.0537C70.0537 81.3556 70.0784 80.9906 70.1995 80.5206C70.3227 80.042 70.5237 79.5416 70.8078 79.0545L87.8998 89.0248ZM89.8412 81.5662C89.8412 75.5515 85.9237 72.2469 84.4456 71.08L72.1844 86.6108C72.4324 86.8066 71.8569 86.4099 71.2697 85.5354C70.9399 85.0442 70.6135 84.4192 70.3802 83.6715C70.146 82.9212 70.0537 82.2017 70.0537 81.5662H89.8412ZM84.4275 71.0658C84.2439 70.9215 84.1463 70.8444 84.0613 70.7747C83.9848 70.7119 83.9644 70.6924 83.9752 70.7024C83.9997 70.725 84.1954 70.9082 84.4256 71.2413C84.6705 71.5956 84.8886 72.0238 85.032 72.4908C85.1723 72.9479 85.1911 73.2793 85.1911 73.4039H65.4037C65.4037 76.8851 66.3891 79.9473 68.1479 82.492C69.6999 84.7374 71.6315 86.1764 72.2024 86.625L84.4275 71.0658ZM75.2974 83.2976H79.6506V63.5101H75.2974V83.2976ZM69.7569 73.4039C69.7569 79.3628 73.386 82.867 75.0917 84.3291L87.9692 69.3053C87.7521 69.1193 88.1708 69.428 88.6173 70.1506C89.1692 71.0437 89.5444 72.1978 89.5444 73.4039H69.7569ZM75.1147 84.3487C75.4185 84.6075 75.524 84.7054 75.5678 84.7486C75.6005 84.7808 75.4661 84.6547 75.2783 84.3881C75.0788 84.1049 74.8175 83.6613 74.6137 83.0673C74.4048 82.4583 74.308 81.8404 74.308 81.2694H94.0955C94.0955 74.1911 89.1057 70.2734 87.9462 69.2857L75.1147 84.3487ZM74.308 81.2694C74.308 81.1667 74.3198 80.9156 74.403 80.5698C74.4883 80.2151 74.6188 79.885 74.7652 79.6083L92.2531 88.8666C93.4999 86.5116 94.0955 83.9679 94.0955 81.2694H74.308ZM80.6895 117.777C86.0908 117.777 91.2141 115.617 94.5946 110.94C97.5895 106.797 98.3498 101.853 98.3498 97.6929H78.5623C78.5623 98.6545 78.4669 99.2489 78.3924 99.5486C78.3187 99.8448 78.3053 99.6977 78.5578 99.3484C78.8467 98.9487 79.3168 98.5205 79.914 98.237C80.4747 97.9707 80.8135 97.9898 80.6895 97.9898V117.777ZM98.3498 97.6929C98.3498 93.5414 97.5931 88.5686 94.5157 84.4208C91.0529 79.7535 85.896 77.7571 80.64 77.7571V97.5445C80.8409 97.5445 80.5544 97.5777 80.0218 97.3341C79.443 97.0695 78.9488 96.6483 78.6244 96.2111C78.3383 95.8254 78.3341 95.6326 78.3993 95.8914C78.4664 96.1576 78.5623 96.7295 78.5623 97.6929H98.3498ZM80.64 77.7571C75.3696 77.7571 70.1984 79.7683 66.7593 84.495C63.7343 88.6524 63.0292 93.6139 63.0292 97.6929H82.8166C82.8166 96.7019 82.9114 96.1082 82.981 95.8235C83.0492 95.5447 83.049 95.7391 82.7596 96.1369C82.4288 96.5915 81.9164 97.0375 81.3059 97.3193C80.7454 97.5781 80.4378 97.5445 80.64 97.5445V77.7571ZM63.0292 97.6929C63.0292 101.815 63.7631 106.766 66.7524 110.921C70.1417 115.633 75.288 117.777 80.6895 117.777V97.9898C80.5398 97.9898 80.8718 97.9659 81.4359 98.2331C82.04 98.5192 82.5198 98.9552 82.8159 99.3669C83.0738 99.7255 83.0606 99.8783 82.9865 99.5766C82.9116 99.2715 82.8166 98.6686 82.8166 97.6929H63.0292ZM98.817 97.7424V87.8487H91.9607L89.5532 94.2685L98.817 97.7424ZM102.972 97.7424L112.505 100.39L115.989 87.8487H102.972V97.7424ZM106.93 84.4848V74.5911H97.0361V84.4848H106.93ZM111.283 84.4848H121.177V74.5911H111.283V84.4848ZM115.142 91.361L108.146 98.3569L108.146 98.3569L115.142 91.361ZM109.156 101.601C108.508 101.601 108.082 101.51 107.855 101.438C107.637 101.367 107.647 101.33 107.765 101.431C107.903 101.548 108.024 101.715 108.088 101.861C108.146 101.993 108.068 101.905 108.068 101.453H88.2802C88.2802 107.354 90.5241 112.734 94.9268 116.488C99.117 120.061 104.341 121.388 109.156 121.388V101.601ZM108.068 101.453C108.068 101.485 108.066 101.472 108.072 101.412C108.078 101.355 108.089 101.284 108.103 101.208C108.118 101.131 108.132 101.075 108.138 101.051C108.141 101.04 108.14 101.046 108.133 101.068C108.126 101.088 108.11 101.139 108.081 101.216L89.5532 94.2685C88.8825 96.0572 88.2802 98.716 88.2802 101.453H108.068ZM98.817 107.636H102.972V87.8487H98.817V107.636ZM93.4396 95.0944C92.9227 96.9552 92.6334 99.1932 92.6334 101.453H112.421C112.421 101.141 112.442 100.854 112.471 100.626C112.503 100.38 112.53 100.3 112.505 100.39L93.4396 95.0944ZM92.6334 101.453C92.6334 105.671 94.0103 110.129 97.5786 113.469C101.046 116.713 105.383 117.777 109.156 117.777V97.9898C108.922 97.9898 109.945 97.9405 111.099 99.021C111.657 99.5433 112.026 100.141 112.231 100.672C112.425 101.177 112.421 101.482 112.421 101.453H92.6334ZM109.156 117.777C112.941 117.777 117.385 116.7 120.875 113.229C124.381 109.743 125.53 105.228 125.53 101.205H105.743C105.743 101.634 105.655 100.459 106.922 99.1986C108.174 97.9538 109.378 97.9898 109.156 97.9898V117.777ZM125.53 101.205C125.53 93.5084 121.103 89.1181 119.021 87.0364L105.029 101.028C105.246 101.245 105.416 101.417 105.565 101.573C105.711 101.727 105.817 101.843 105.895 101.934C106.054 102.117 106.062 102.152 106.015 102.072C105.958 101.975 105.871 101.799 105.808 101.573C105.779 101.468 105.761 101.376 105.752 101.305C105.742 101.234 105.743 101.198 105.743 101.205H125.53ZM119.021 87.0364C118.328 86.3431 117.924 85.9481 117.523 85.5104C117.162 85.1159 116.984 84.8764 116.892 84.7343C116.813 84.6121 116.815 84.5891 116.829 84.6319C116.845 84.6834 116.824 84.6572 116.824 84.4848H97.0361C97.0361 93.7735 103.029 99.0275 105.029 101.028L119.021 87.0364ZM106.93 94.3785H111.283V74.5911H106.93V94.3785ZM101.389 84.4848C101.389 91.9643 106.44 96.6511 108.146 98.3569L122.138 84.3651C121.653 83.8803 121.336 83.5523 121.088 83.2731C120.848 83.0025 120.774 82.8873 120.776 82.8905C120.786 82.9068 120.898 83.0851 121.003 83.405C121.114 83.7438 121.177 84.1204 121.177 84.4848H101.389ZM108.146 98.3569C109.381 99.5925 109.823 100.118 110.074 100.535C110.164 100.684 110.191 100.763 110.202 100.803C110.213 100.838 110.244 100.953 110.244 101.205H130.032C130.032 92.1399 124.642 86.8694 122.138 84.365L108.146 98.3569ZM110.244 101.205C110.244 101.483 110.195 101.563 110.215 101.518C110.235 101.471 110.275 101.415 110.312 101.38C110.405 101.295 110.147 101.601 109.156 101.601V121.388C114.447 121.388 119.68 119.641 123.694 115.957C127.784 112.203 130.032 106.945 130.032 101.205H110.244ZM126.56 73.4039V63.5101H116.667V73.4039H126.56ZM130.914 73.4039H140.807V63.5101H130.914V73.4039ZM143.231 93.1913L135.11 98.8413L135.123 98.8605L135.136 98.8797L143.231 93.1913ZM140.016 84.4848V74.5911H130.122V84.4848H140.016ZM144.369 84.4848H154.263V74.5911H144.369V84.4848ZM147.337 91.7072L155.451 86.0462L155.426 86.0098L155.4 85.9736L147.337 91.7072ZM138.284 101.601C137.381 101.601 136.958 101.463 136.856 101.423C136.797 101.4 136.893 101.436 136.987 101.542C137.164 101.741 136.454 101.119 136.454 98.1876H116.667C116.667 103.963 118.035 109.994 122.182 114.67C126.503 119.543 132.443 121.388 138.284 121.388V101.601ZM136.454 98.1876V73.4039H116.667V98.1876H136.454ZM126.56 83.2976H130.914V63.5101H126.56V83.2976ZM121.02 73.4039V98.6328H140.807V73.4039H121.02ZM121.02 98.6328C121.02 102.455 121.721 107.214 124.696 111.237C128.054 115.778 133.089 117.777 138.284 117.777V97.9898C138.148 97.9898 138.495 97.968 139.081 98.2382C139.711 98.5285 140.247 98.9866 140.606 99.4719C140.928 99.9066 140.967 100.169 140.927 100.014C140.886 99.8519 140.807 99.4165 140.807 98.6328H121.02ZM138.284 117.777C143.455 117.777 148.235 115.727 151.495 111.66C154.508 107.902 155.45 103.4 155.45 99.5728H135.663C135.663 100.396 135.442 100.049 136.056 99.2835C136.392 98.8639 136.864 98.4821 137.409 98.234C137.937 97.9936 138.288 97.9898 138.284 97.9898V117.777ZM155.45 99.5728C155.45 93.8244 153.042 89.9443 151.326 87.503L135.136 98.8797C135.379 99.2253 135.523 99.4472 135.617 99.6065C135.705 99.7565 135.726 99.812 135.721 99.7985C135.712 99.7774 135.691 99.7183 135.675 99.6404C135.66 99.5625 135.663 99.5316 135.663 99.5728H155.45ZM151.353 87.5414C150.513 86.334 150.258 85.915 150.094 85.5403C150.007 85.3414 149.91 85.0796 149.91 84.4848H130.122C130.122 91.7992 133.376 96.3493 135.11 98.8413L151.353 87.5414ZM140.016 94.3785H144.369V74.5911H140.016V94.3785ZM134.475 84.4848C134.475 90.9433 137.761 95.3135 139.274 97.4409L155.4 85.9736C155.003 85.4152 154.744 85.0443 154.534 84.7158C154.334 84.404 154.247 84.2363 154.212 84.1616C154.183 84.1 154.205 84.1345 154.229 84.2374C154.256 84.347 154.263 84.4406 154.263 84.4848H134.475ZM139.223 97.3682C139.722 98.0838 139.913 98.4657 140.009 98.7169C140.082 98.9094 140.164 99.1886 140.164 99.7212H159.952C159.952 93.441 157.58 89.097 155.451 86.0462L139.223 97.3682ZM140.164 99.7212C140.164 100.409 140.051 100.814 139.976 101.007C139.905 101.191 139.845 101.249 139.833 101.26C139.82 101.273 139.753 101.339 139.554 101.415C139.346 101.494 138.94 101.601 138.284 101.601V121.388C143.982 121.388 149.555 119.471 153.741 115.336C157.945 111.182 159.952 105.576 159.952 99.7212H140.164ZM158.54 111L149.487 114.991L152.09 120.894H158.54V111ZM175.459 111V120.894H181.909L184.512 114.991L175.459 111ZM171.006 111L161.973 106.964L155.749 120.894H171.006V111ZM162.992 111V120.894H178.249L172.026 106.964L162.992 111ZM167.593 107.009C166.025 103.451 165.416 100.901 165.416 97.3467H145.629C145.629 104.082 146.999 109.347 149.487 114.991L167.593 107.009ZM165.416 97.3467C165.416 94.7865 166.058 93.9634 166.064 93.9559C166.068 93.9511 166.054 93.968 166.024 93.9907C165.993 94.0136 165.976 94.0197 165.991 94.0134C166.01 94.0051 166.294 93.8839 166.999 93.8839V74.0964C160.764 74.0964 154.934 76.3969 150.856 81.2963C146.991 85.9388 145.629 91.794 145.629 97.3467H165.416ZM166.999 93.8839C167.747 93.8839 168.045 94.0111 168.061 94.018C168.073 94.0233 168.05 94.0145 168.013 93.9861C167.996 93.9734 167.981 93.9606 167.969 93.9493C167.957 93.938 167.952 93.9314 167.952 93.9319C167.953 93.9326 167.961 93.943 167.977 93.9663C167.992 93.9898 168.015 94.0277 168.044 94.0831C168.101 94.1943 168.181 94.3778 168.263 94.6528C168.43 95.2149 168.582 96.0936 168.582 97.3467H188.37C188.37 91.8493 187.058 85.9854 183.2 81.3202C179.111 76.3765 173.252 74.0964 166.999 74.0964V93.8839ZM168.582 97.3467C168.582 100.901 167.974 103.451 166.406 107.009L184.512 114.991C187 109.347 188.37 104.082 188.37 97.3467H168.582ZM175.459 101.106H171.006V120.894H175.459V101.106ZM180.039 115.036C182.616 109.27 183.918 104.091 183.918 97.2972H164.13C164.13 100.991 163.552 103.43 161.973 106.964L180.039 115.036ZM183.918 97.2972C183.918 92.9633 183.06 88.1414 180.11 84.1636C176.838 79.7501 171.982 77.7076 166.999 77.7076V97.4951C166.848 97.4951 166.355 97.4622 165.713 97.1573C165.044 96.8399 164.534 96.3784 164.215 95.9489C163.926 95.5589 163.912 95.3581 163.971 95.5832C164.031 95.8139 164.13 96.3557 164.13 97.2972H183.918ZM166.999 77.7076C162.019 77.7076 157.139 79.7318 153.856 84.1832C150.912 88.1739 150.081 93.001 150.081 97.2972H169.869C169.869 96.3418 169.967 95.7911 170.028 95.5545C170.088 95.3234 170.074 95.5299 169.78 95.9293C169.454 96.3712 168.933 96.8413 168.256 97.1617C167.609 97.4681 167.122 97.4951 166.999 97.4951V77.7076ZM150.081 97.2972C150.081 104.091 151.383 109.27 153.959 115.036L172.026 106.964C170.446 103.43 169.869 100.991 169.869 97.2972H150.081ZM162.992 101.106H158.54V120.894H162.992V101.106ZM184.918 73.4039V63.5101H175.024V73.4039H184.918ZM189.271 73.4039H199.165V63.5101H189.271V73.4039ZM201.589 93.1913L193.467 98.8413L193.48 98.8605L193.494 98.8797L201.589 93.1913ZM198.373 84.4848V74.5911H188.48V84.4848H198.373ZM202.727 84.4848H212.62V74.5911H202.727V84.4848ZM205.695 91.7072L213.809 86.0462L213.783 86.0098L213.758 85.9736L205.695 91.7072ZM196.642 101.601C195.738 101.601 195.316 101.463 195.214 101.423C195.155 101.4 195.25 101.436 195.344 101.542C195.521 101.741 194.812 101.119 194.812 98.1876H175.024C175.024 103.963 176.392 109.994 180.539 114.67C184.86 119.543 190.801 121.388 196.642 121.388V101.601ZM194.812 98.1876V73.4039H175.024V98.1876H194.812ZM184.918 83.2976H189.271V63.5101H184.918V83.2976ZM179.377 73.4039V98.6328H199.165V73.4039H179.377ZM179.377 98.6328C179.377 102.455 180.079 107.214 183.054 111.237C186.412 115.778 191.447 117.777 196.642 117.777V97.9898C196.505 97.9898 196.852 97.968 197.439 98.2382C198.069 98.5285 198.605 98.9866 198.964 99.4719C199.285 99.9066 199.324 100.169 199.285 100.014C199.244 99.8519 199.165 99.4165 199.165 98.6328H179.377ZM196.642 117.777C201.813 117.777 206.592 115.727 209.852 111.66C212.865 107.902 213.808 103.4 213.808 99.5728H194.02C194.02 100.396 193.8 100.049 194.413 99.2835C194.75 98.8639 195.221 98.4821 195.766 98.234C196.295 97.9936 196.645 97.9898 196.642 97.9898V117.777ZM213.808 99.5728C213.808 93.8244 211.399 89.9443 209.684 87.503L193.494 98.8797C193.737 99.2253 193.88 99.4472 193.974 99.6065C194.063 99.7565 194.084 99.812 194.078 99.7985C194.07 99.7774 194.048 99.7183 194.033 99.6404C194.017 99.5625 194.02 99.5316 194.02 99.5728H213.808ZM209.711 87.5414C208.871 86.334 208.616 85.915 208.452 85.5403C208.365 85.3414 208.267 85.0796 208.267 84.4848H188.48C188.48 91.7992 191.733 96.3493 193.467 98.8413L209.711 87.5414ZM198.373 94.3785H202.727V74.5911H198.373V94.3785ZM192.833 84.4848C192.833 90.9433 196.119 95.3135 197.632 97.4409L213.758 85.9736C213.361 85.4152 213.102 85.0443 212.891 84.7158C212.691 84.404 212.604 84.2363 212.569 84.1616C212.54 84.1 212.562 84.1345 212.587 84.2374C212.613 84.347 212.62 84.4406 212.62 84.4848H192.833ZM197.581 97.3682C198.08 98.0838 198.27 98.4657 198.366 98.7169C198.439 98.9094 198.522 99.1886 198.522 99.7212H218.309C218.309 93.441 215.937 89.097 213.809 86.0462L197.581 97.3682ZM198.522 99.7212C198.522 100.409 198.408 100.814 198.333 101.007C198.262 101.191 198.202 101.249 198.191 101.26C198.178 101.273 198.11 101.339 197.911 101.415C197.703 101.494 197.298 101.601 196.642 101.601V121.388C202.339 121.388 207.912 119.471 212.098 115.336C216.302 111.182 218.309 105.576 218.309 99.7212H198.522ZM230.701 97.7424V87.8487H223.845L221.437 94.2685L230.701 97.7424ZM234.856 97.7424L244.389 100.39L247.873 87.8487H234.856V97.7424ZM238.814 84.4848V74.5911H228.92V84.4848H238.814ZM243.167 84.4848H253.061V74.5911H243.167V84.4848ZM247.026 91.361L240.03 98.3569L240.03 98.3569L247.026 91.361ZM241.04 101.601C240.392 101.601 239.966 101.51 239.74 101.438C239.521 101.367 239.531 101.33 239.649 101.431C239.787 101.548 239.908 101.715 239.972 101.861C240.03 101.993 239.952 101.905 239.952 101.453H220.164C220.164 107.354 222.408 112.734 226.811 116.488C231.001 120.061 236.225 121.388 241.04 121.388V101.601ZM239.952 101.453C239.952 101.485 239.95 101.472 239.956 101.412C239.962 101.355 239.973 101.284 239.987 101.208C240.002 101.131 240.016 101.075 240.022 101.051C240.025 101.04 240.024 101.046 240.017 101.068C240.01 101.088 239.994 101.139 239.965 101.216L221.437 94.2685C220.767 96.0572 220.164 98.716 220.164 101.453H239.952ZM230.701 107.636H234.856V87.8487H230.701V107.636ZM225.324 95.0944C224.807 96.9552 224.517 99.1932 224.517 101.453H244.305C244.305 101.141 244.326 100.854 244.355 100.626C244.387 100.38 244.414 100.3 244.389 100.39L225.324 95.0944ZM224.517 101.453C224.517 105.671 225.894 110.129 229.463 113.469C232.93 116.713 237.267 117.777 241.04 117.777V97.9898C240.806 97.9898 241.829 97.9405 242.983 99.021C243.541 99.5433 243.91 100.141 244.115 100.672C244.309 101.177 244.305 101.482 244.305 101.453H224.517ZM241.04 117.777C244.825 117.777 249.269 116.7 252.759 113.229C256.265 109.743 257.414 105.228 257.414 101.205H237.627C237.627 101.634 237.539 100.459 238.806 99.1986C240.058 97.9538 241.262 97.9898 241.04 97.9898V117.777ZM257.414 101.205C257.414 93.5084 252.987 89.1181 250.905 87.0364L236.913 101.028C237.13 101.245 237.3 101.417 237.449 101.573C237.595 101.727 237.701 101.843 237.779 101.934C237.938 102.117 237.946 102.152 237.899 102.072C237.842 101.975 237.755 101.799 237.692 101.573C237.663 101.468 237.645 101.376 237.636 101.305C237.626 101.234 237.627 101.198 237.627 101.205H257.414ZM250.905 87.0364C250.212 86.3431 249.808 85.9481 249.407 85.5104C249.046 85.1159 248.868 84.8764 248.776 84.7343C248.697 84.6121 248.699 84.5891 248.713 84.6319C248.729 84.6834 248.708 84.6572 248.708 84.4848H228.92C228.92 93.7735 234.913 99.0275 236.913 101.028L250.905 87.0364ZM238.814 94.3785H243.167V74.5911H238.814V94.3785ZM233.273 84.4848C233.273 91.9643 238.324 96.6511 240.03 98.3569L254.022 84.3651C253.537 83.8803 253.22 83.5523 252.972 83.2731C252.732 83.0025 252.658 82.8873 252.66 82.8905C252.67 82.9068 252.782 83.0851 252.887 83.405C252.998 83.7438 253.061 84.1204 253.061 84.4848H233.273ZM240.03 98.3569C241.265 99.5925 241.707 100.118 241.958 100.535C242.048 100.684 242.075 100.763 242.087 100.803C242.097 100.838 242.128 100.953 242.128 101.205H261.916C261.916 92.1399 256.526 86.8694 254.022 84.365L240.03 98.3569ZM242.128 101.205C242.128 101.483 242.079 101.563 242.099 101.518C242.119 101.471 242.159 101.415 242.196 101.38C242.289 101.295 242.031 101.601 241.04 101.601V121.388C246.331 121.388 251.564 119.641 255.578 115.957C259.668 112.203 261.916 106.945 261.916 101.205H242.128ZM281.843 123.367L273.079 127.958L277.718 136.815L286.526 132.082L281.843 123.367ZM263.243 118.42L254.337 122.73L258.573 131.485L267.399 127.399L263.243 118.42ZM261.759 115.353L257.45 106.447L248.544 110.757L252.853 119.663L261.759 115.353ZM268.14 113.82L268.626 123.701L278.034 123.239V113.82H268.14ZM268.14 113.671H278.034V107.415L272.381 104.733L268.14 113.671ZM275.462 89.5801L265.992 92.4459L268.119 99.4738H275.462V89.5801ZM275.709 89.5801V99.4738H282.608L284.993 93.0004L275.709 89.5801ZM272.691 112.484L268.775 121.57L268.775 121.57L272.691 112.484ZM285.158 121.586L289.84 130.302L298.408 125.698L293.952 117.053L285.158 121.586ZM290.607 118.776C288.461 114.679 285.105 111.739 281.838 109.853C278.613 107.99 274.684 106.696 270.713 106.696V126.484C270.565 126.484 270.651 126.465 270.95 126.553C271.233 126.636 271.582 126.78 271.942 126.988C272.301 127.195 272.592 127.421 272.8 127.625C272.901 127.723 272.971 127.806 273.017 127.866C273.062 127.926 273.079 127.958 273.079 127.958L290.607 118.776ZM270.713 106.696C266.094 106.696 262.624 107.804 259.086 109.442L267.399 127.399C269.204 126.563 269.791 126.484 270.713 126.484V106.696ZM272.149 114.111L270.665 111.044L252.853 119.663L254.337 122.73L272.149 114.111ZM266.068 124.259C266.419 124.09 266.657 123.999 266.928 123.927C267.215 123.851 267.734 123.745 268.626 123.701L267.654 103.938C263.189 104.158 260.065 105.182 257.45 106.447L266.068 124.259ZM278.034 113.82V113.671H258.247V113.82H278.034ZM272.381 104.733C270.251 103.722 269.133 102.653 268.508 101.708C267.909 100.803 267.349 99.3912 267.349 96.9509H247.561C247.561 102.673 248.955 108.014 252.004 112.624C255.028 117.195 259.252 120.405 263.899 122.61L272.381 104.733ZM267.349 96.9509C267.349 95.8382 267.478 94.9773 267.643 94.3658C267.808 93.7509 267.981 93.4884 268.008 93.4507C268.016 93.4394 267.891 93.6051 267.605 93.7535C267.312 93.9058 267.149 93.8839 267.299 93.8839V74.0964C260.832 74.0964 255.403 77.07 251.923 81.9251C248.703 86.4188 247.561 91.8891 247.561 96.9509H267.349ZM267.299 93.8839C268.004 93.8839 267.675 94.0346 266.992 93.5731C266.657 93.3474 266.383 93.067 266.192 92.7931C266.009 92.5326 265.972 92.3796 265.992 92.4459L284.931 86.7143C283.807 83 281.602 79.5644 278.07 77.1774C274.641 74.8609 270.8 74.0964 267.299 74.0964V93.8839ZM275.462 99.4738H275.709V79.6864H275.462V99.4738ZM284.993 93.0004C284.955 93.1034 284.872 93.2684 284.725 93.4445C284.582 93.6166 284.43 93.7377 284.307 93.8131C284.078 93.9531 284.05 93.8839 284.317 93.8839V74.0964C277.459 74.0964 269.56 77.6512 266.425 86.1598L284.993 93.0004ZM284.317 93.8839C284.821 93.8839 285.021 93.9724 285.026 93.9744C285.034 93.9778 285.022 93.973 285.003 93.9589C284.984 93.9448 284.981 93.939 284.996 93.9559C285.021 93.9858 285.702 94.8315 285.702 97.4456H305.489C305.489 91.5511 303.944 85.6691 300.036 81.0984C295.979 76.3523 290.281 74.0964 284.317 74.0964V93.8839ZM285.702 97.4456C285.702 99.8649 285.026 100.783 284.888 100.941C284.81 101.031 284.77 101.046 284.761 101.05C284.746 101.057 284.635 101.106 284.366 101.106V120.894C290.28 120.894 295.852 118.49 299.822 113.923C303.716 109.443 305.489 103.584 305.489 97.4456H285.702ZM284.366 101.106C283.875 101.106 283.677 101.019 283.668 101.015C283.657 101.011 283.665 101.013 283.678 101.023C283.692 101.033 283.688 101.034 283.668 101.01C283.618 100.952 282.931 100.072 282.931 97.4456H263.144C263.144 103.377 264.708 109.275 268.616 113.854C272.671 118.606 278.373 120.894 284.366 120.894V101.106ZM282.931 97.4456V95.0216H263.144V97.4456H282.931ZM282.931 95.0216C282.931 91.2217 282.126 86.831 279.222 83.2107C276.052 79.2576 271.587 77.7076 267.448 77.7076V97.4951C267.151 97.4951 266.539 97.4422 265.782 97.1118C264.989 96.7653 264.294 96.2246 263.786 95.5909C262.837 94.4069 263.144 93.7263 263.144 95.0216H282.931ZM267.448 77.7076C261.93 77.7076 257.51 80.6548 254.952 84.8469C252.682 88.5665 252.014 92.9218 252.014 96.852H271.801C271.801 95.939 271.885 95.3501 271.954 95.034C272.027 94.7063 272.053 94.8106 271.843 95.1543C271.616 95.5267 271.108 96.1758 270.194 96.7187C269.248 97.2803 268.257 97.4951 267.448 97.4951V77.7076ZM252.014 96.852C252.014 103.471 253.85 109.071 257.483 113.522C260.93 117.744 265.317 120.079 268.775 121.57L276.608 103.398C274.327 102.415 273.322 101.634 272.812 101.009C272.488 100.612 271.801 99.6322 271.801 96.852H252.014ZM268.775 121.57C271.858 122.898 273.501 123.637 274.734 124.444C275.67 125.056 276.049 125.51 276.363 126.119L293.952 117.053C289.595 108.601 281.721 105.602 276.608 103.398L268.775 121.57ZM280.475 112.871L277.16 114.652L286.526 132.082L289.84 130.302L280.475 112.871ZM284.267 117.283C289.871 117.283 294.754 114.688 297.752 110.051C300.343 106.043 300.987 101.36 300.987 97.4456H281.2C281.2 98.3985 281.114 99.0253 281.035 99.3776C280.954 99.7378 280.919 99.6415 281.134 99.3093C281.381 98.9265 281.871 98.3767 282.646 97.9619C283.412 97.5519 284.042 97.4951 284.267 97.4951V117.283ZM300.987 97.4456C300.987 93.5761 300.371 88.8853 297.75 84.8739C294.696 80.1988 289.781 77.7571 284.317 77.7571V97.5445C284.152 97.5445 283.547 97.5039 282.779 97.1028C281.99 96.6907 281.465 96.1258 281.185 95.6961C280.941 95.3231 280.964 95.1856 281.04 95.5252C281.114 95.8583 281.2 96.477 281.2 97.4456H300.987ZM284.317 77.7571C278.849 77.7571 273.959 80.2195 270.915 84.8528C268.288 88.8524 267.646 93.5372 267.646 97.4456H287.433C287.433 96.4917 287.52 95.8818 287.594 95.5548C287.669 95.2216 287.692 95.3536 287.453 95.7172C287.179 96.1342 286.665 96.6893 285.885 97.0977C285.122 97.4971 284.51 97.5445 284.317 97.5445V77.7571ZM267.646 97.4456C267.646 101.364 268.292 106.021 270.842 110.009C273.788 114.617 278.63 117.283 284.267 117.283V97.4951C284.551 97.4951 285.22 97.5666 286.005 97.994C286.793 98.4227 287.277 98.9807 287.514 99.3514C287.72 99.6739 287.682 99.7581 287.6 99.3893C287.519 99.0295 287.433 98.3978 287.433 97.4456H267.646ZM311.343 96.7036L310.068 86.8922L310.058 86.8935L310.048 86.8949L311.343 96.7036ZM307.484 93.3397V103.233H319.163L317.243 91.7132L307.484 93.3397ZM303.23 93.3397L293.631 95.7393L295.505 103.233H303.23V93.3397ZM316.339 97.8414L313.429 88.3851L306.445 90.5341V97.8414H316.339ZM316.339 97.9898H306.445V105.471L313.643 107.509L316.339 97.9898ZM311.986 113.473C310.897 113.473 310.556 113.139 310.454 113.031C310.326 112.895 309.71 112.156 309.71 110.06H289.923C289.923 116.275 291.88 122.189 296.079 126.629C300.306 131.097 306.05 133.261 311.986 133.261V113.473ZM309.71 110.06C309.71 108.862 309.871 108.14 309.998 107.76C310.115 107.41 310.216 107.306 310.227 107.294C310.243 107.276 310.343 107.165 310.672 107.013C311.026 106.851 311.647 106.643 312.637 106.512L310.048 86.8949C304.924 87.571 299.599 89.5706 295.589 93.979C291.529 98.443 289.923 104.158 289.923 110.06H309.71ZM312.617 106.515C315.762 106.106 319.431 104.973 322.362 102.106C325.501 99.0337 326.579 95.1737 326.579 91.8062H306.792C306.792 91.4713 306.842 90.8602 307.125 90.1073C307.42 89.3201 307.899 88.5726 308.523 87.9622C309.734 86.777 310.732 86.806 310.068 86.8922L312.617 106.515ZM326.579 91.8062C326.579 88.2353 325.322 84.3934 322.244 81.4797C319.209 78.6069 315.386 77.5592 311.936 77.5592V97.3467C311.504 97.3467 310.056 97.1894 308.641 95.8502C307.183 94.4699 306.792 92.8047 306.792 91.8062H326.579ZM311.936 77.5592C308.718 77.5592 304.816 78.431 301.668 81.404C298.445 84.4477 297.392 88.3872 297.392 91.7072H317.18C317.18 92.4055 316.919 94.2178 315.254 95.7898C313.665 97.2911 312.087 97.3467 311.936 97.3467V77.5592ZM297.392 91.7072C297.392 93.2233 297.688 94.7473 297.725 94.9662L317.243 91.7132C317.236 91.6709 317.229 91.6299 317.223 91.5921C317.216 91.5522 317.211 91.5197 317.205 91.4845C317.193 91.4159 317.184 91.361 317.176 91.3117C317.168 91.263 317.163 91.2266 317.158 91.1985C317.154 91.1706 317.152 91.1553 317.151 91.1496C317.15 91.144 317.151 91.1516 317.153 91.1701C317.156 91.1886 317.159 91.2213 317.163 91.2659C317.166 91.3106 317.171 91.3703 317.174 91.4431C317.177 91.5159 317.18 91.6046 317.18 91.7072H297.392ZM307.484 83.446H303.23V103.233H307.484V83.446ZM312.828 90.9401C312.823 90.9188 312.822 90.9081 312.822 90.9123C312.822 90.9151 312.824 90.9243 312.825 90.9402C312.826 90.956 312.827 90.9807 312.827 91.0147H293.039C293.039 92.6156 293.25 94.213 293.631 95.7393L312.828 90.9401ZM312.827 91.0147C312.827 91.4475 312.726 91.9969 312.451 92.5546C312.18 93.1056 311.826 93.4896 311.534 93.7211C310.977 94.1613 310.907 93.8839 311.936 93.8839V74.0964C307.524 74.0964 302.952 75.2783 299.255 78.2043C295.391 81.2617 293.039 85.8392 293.039 91.0147H312.827ZM311.936 93.8839C312.773 93.8839 312.712 94.1218 312.239 93.7356C311.992 93.535 311.694 93.203 311.464 92.7286C311.23 92.2461 311.145 91.7744 311.145 91.4104H330.932C330.932 79.8013 320.76 74.0964 311.936 74.0964V93.8839ZM311.145 91.4104C311.145 91.3003 311.183 90.5814 311.783 89.7219C312.425 88.803 313.197 88.4566 313.429 88.3851L319.249 107.298C322.696 106.237 325.819 104.184 328.006 101.051C330.152 97.9778 330.932 94.5382 330.932 91.4104H311.145ZM306.445 97.8414V97.9898H326.233V97.8414H306.445ZM313.643 107.509C313.78 107.548 313.861 107.584 313.9 107.603C313.92 107.613 313.933 107.62 313.939 107.624C313.946 107.629 313.949 107.631 313.949 107.631C313.949 107.631 313.949 107.631 313.948 107.63C313.948 107.63 313.949 107.631 313.953 107.635C313.958 107.641 313.978 107.664 314.009 107.714C314.143 107.933 314.459 108.655 314.459 110.06H334.247C334.247 101.802 330.328 91.6686 319.035 88.4704L313.643 107.509ZM314.459 110.06C314.459 112.365 313.823 113.048 313.8 113.073C313.766 113.109 313.699 113.175 313.501 113.253C313.283 113.339 312.81 113.473 311.986 113.473V133.261C318.031 133.261 323.924 131.216 328.252 126.588C332.508 122.037 334.247 116.066 334.247 110.06H314.459ZM312.085 129.65C317.46 129.65 322.514 127.517 325.89 123.01C328.928 118.954 329.745 114.117 329.745 110.06H309.958C309.958 110.84 309.873 111.3 309.821 111.498C309.771 111.69 309.787 111.502 310.053 111.147C310.351 110.749 310.809 110.35 311.367 110.09C311.894 109.844 312.207 109.862 312.085 109.862V129.65ZM329.745 110.06C329.745 106.008 328.93 101.142 325.806 97.0822C322.35 92.5907 317.268 90.6189 312.035 90.6189V110.406C312.233 110.406 311.974 110.439 311.476 110.215C310.938 109.973 310.457 109.582 310.124 109.15C309.824 108.759 309.789 108.526 309.83 108.679C309.873 108.842 309.958 109.278 309.958 110.06H329.745ZM312.035 90.6189C306.789 90.6189 301.692 92.6045 298.257 97.1562C295.184 101.229 294.424 106.085 294.424 110.06H314.212C314.212 109.248 314.296 108.789 314.343 108.608C314.388 108.436 314.357 108.672 314.052 109.076C313.711 109.527 313.211 109.942 312.642 110.2C312.116 110.439 311.836 110.406 312.035 110.406V90.6189ZM294.424 110.06C294.424 114.078 295.213 118.922 298.247 122.992C301.633 127.533 306.709 129.65 312.085 129.65V109.862C311.937 109.862 312.243 109.839 312.773 110.086C313.338 110.349 313.806 110.756 314.112 111.165C314.384 111.531 314.4 111.725 314.349 111.527C314.296 111.324 314.212 110.856 314.212 110.06H294.424ZM331.584 111L322.531 114.991L325.133 120.894H331.584V111ZM348.502 111V120.894H354.953L357.555 114.991L348.502 111ZM344.05 111L335.017 106.964L328.793 120.894H344.05V111ZM336.036 111V120.894H351.293L345.069 106.964L336.036 111ZM340.637 107.009C339.068 103.451 338.46 100.901 338.46 97.3467H318.672C318.672 104.082 320.043 109.347 322.531 114.991L340.637 107.009ZM338.46 97.3467C338.46 94.7865 339.101 93.9634 339.107 93.9559C339.111 93.9511 339.097 93.968 339.067 93.9907C339.037 94.0136 339.02 94.0197 339.034 94.0134C339.053 94.0051 339.338 93.8839 340.043 93.8839V74.0964C333.808 74.0964 327.978 76.3969 323.9 81.2963C320.035 85.9388 318.672 91.794 318.672 97.3467H338.46ZM340.043 93.8839C340.79 93.8839 341.088 94.0111 341.104 94.018C341.116 94.0233 341.094 94.0145 341.056 93.9861C341.039 93.9734 341.024 93.9606 341.013 93.9493C341.001 93.938 340.995 93.9314 340.996 93.9319C340.996 93.9326 341.005 93.943 341.02 93.9663C341.036 93.9898 341.059 94.0277 341.087 94.0831C341.144 94.1943 341.225 94.3778 341.306 94.6528C341.473 95.2149 341.626 96.0936 341.626 97.3467H361.413C361.413 91.8493 360.102 85.9854 356.243 81.3202C352.154 76.3765 346.295 74.0964 340.043 74.0964V93.8839ZM341.626 97.3467C341.626 100.901 341.017 103.451 339.449 107.009L357.555 114.991C360.043 109.347 361.413 104.082 361.413 97.3467H341.626ZM348.502 101.106H344.05V120.894H348.502V101.106ZM353.083 115.036C355.659 109.27 356.961 104.091 356.961 97.2972H337.174C337.174 100.991 336.596 103.43 335.017 106.964L353.083 115.036ZM356.961 97.2972C356.961 92.9633 356.103 88.1414 353.154 84.1636C349.881 79.7501 345.025 77.7076 340.043 77.7076V97.4951C339.892 97.4951 339.399 97.4622 338.756 97.1573C338.087 96.8399 337.577 96.3784 337.259 95.9489C336.97 95.5589 336.956 95.3581 337.015 95.5832C337.075 95.8139 337.174 96.3557 337.174 97.2972H356.961ZM340.043 77.7076C335.063 77.7076 330.183 79.7318 326.899 84.1832C323.955 88.1739 323.125 93.001 323.125 97.2972H342.912C342.912 96.3418 343.011 95.7911 343.072 95.5545C343.131 95.3234 343.118 95.5299 342.823 95.9293C342.497 96.3712 341.976 96.8413 341.299 97.1617C340.652 97.4681 340.166 97.4951 340.043 97.4951V77.7076ZM323.125 97.2972C323.125 104.091 324.427 109.27 327.003 115.036L345.069 106.964C343.49 103.43 342.912 100.991 342.912 97.2972H323.125ZM336.036 101.106H331.584V120.894H336.036V101.106ZM388.78 123.367L380.372 128.581L385.272 136.484L393.463 132.082L388.78 123.367ZM364.887 118.371L356.207 123.118L360.999 131.882L369.717 127.006L364.887 118.371ZM363.156 115.205L358.818 106.313L349.501 110.857L354.475 119.952L363.156 115.205ZM369.933 113.276L370.577 123.148L379.826 122.545V113.276H369.933ZM369.933 113.127H379.826V105.853L372.884 103.684L369.933 113.127ZM373.742 88.6897L364.421 92.0073L366.762 98.5834H373.742V88.6897ZM373.989 88.6897V98.5834H380.859L383.259 92.1464L373.989 88.6897ZM388.335 88.6897L379.014 92.0073L381.355 98.5834H388.335V88.6897ZM388.582 88.6897V98.5834H395.452L397.853 92.1464L388.582 88.6897ZM402.681 108.576L399.261 117.86L407.383 120.852L411.428 113.199L402.681 108.576ZM398.921 107.191L389.991 102.932L385.321 112.724L395.501 116.475L398.921 107.191ZM390.561 101.997V111.89H400.455V101.997H390.561ZM386.406 101.997H376.512V111.89H386.406V101.997ZM375.968 101.997V111.89H385.862V101.997H375.968ZM371.813 101.997H361.919V111.89H371.813V101.997ZM375.078 111.396L372.981 121.065L372.99 121.067L373 121.069L375.078 111.396ZM392.095 121.586L396.778 130.302L405.186 125.784L400.972 117.219L392.095 121.586ZM397.189 118.154C391.987 109.763 382.77 105.905 374.138 105.905V125.692C377.279 125.692 379.44 127.077 380.372 128.581L397.189 118.154ZM374.138 105.905C368.947 105.905 364.183 107.429 360.057 109.736L369.717 127.006C371.429 126.048 372.897 125.692 374.138 125.692V105.905ZM373.567 113.624L371.836 110.458L354.475 119.952L356.207 123.118L373.567 113.624ZM367.493 124.097C368.708 123.504 369.917 123.191 370.577 123.148L369.289 103.403C365.398 103.657 361.659 104.927 358.818 106.313L367.493 124.097ZM379.826 113.276V113.127H360.039V113.276H379.826ZM372.884 103.684C370.526 102.947 369.072 101.959 368.254 101.017C367.576 100.235 366.866 98.9729 366.866 96.4562H347.078C347.078 103.388 349.286 109.348 353.308 113.984C357.189 118.458 362.216 121.081 366.982 122.571L372.884 103.684ZM366.866 96.4562C366.866 95.3064 366.998 94.4907 367.142 93.9677C367.286 93.4485 367.413 93.3109 367.359 93.3826C367.281 93.4852 367.088 93.6747 366.807 93.8088C366.54 93.9361 366.467 93.8839 366.767 93.8839V74.0964C360.712 74.0964 355.251 76.6029 351.594 81.4243C348.212 85.8832 347.078 91.3692 347.078 96.4562H366.866ZM366.767 93.8839C366.961 93.8839 366.365 93.9118 365.561 93.3486C364.755 92.7838 364.466 92.1328 364.421 92.0073L383.063 85.3721C381.979 82.3279 380.033 79.3271 376.914 77.1422C373.798 74.9589 370.233 74.0964 366.767 74.0964V93.8839ZM373.742 98.5834H373.989V78.7959H373.742V98.5834ZM383.259 92.1464C383.175 92.3715 382.862 92.9623 382.148 93.4448C381.449 93.9165 380.962 93.8839 381.162 93.8839V74.0964C377.701 74.0964 374.172 74.9543 371.074 77.046C367.961 79.1486 365.891 82.0892 364.719 85.233L383.259 92.1464ZM381.162 93.8839C381.558 93.8839 381.022 93.9611 380.21 93.4045C379.372 92.8294 379.063 92.1436 379.014 92.0073L397.656 85.3721C396.569 82.317 394.603 79.2815 391.402 77.0863C388.228 74.9096 384.625 74.0964 381.162 74.0964V93.8839ZM388.335 98.5834H388.582V78.7959H388.335V98.5834ZM397.853 92.1464C397.772 92.3633 397.473 92.9301 396.782 93.4045C396.093 93.8771 395.56 93.8839 395.607 93.8839V74.0964C392.141 74.0964 388.641 74.9936 385.59 77.0863C382.536 79.1808 380.481 82.0973 379.312 85.233L397.853 92.1464ZM395.607 93.8839C395.776 93.8839 395.603 93.91 395.283 93.7441C395.14 93.67 395.019 93.5835 394.928 93.5023C394.839 93.4232 394.804 93.372 394.809 93.3797C394.827 93.4051 395.011 93.6831 395.189 94.3732C395.367 95.0605 395.508 96.0438 395.508 97.3467H415.295C415.295 92.1379 414.206 86.5553 410.986 81.9837C407.473 76.9971 402.001 74.0964 395.607 74.0964V93.8839ZM395.508 97.3467C395.508 99.9901 394.988 101.958 393.934 103.953L411.428 113.199C414.034 108.268 415.295 103.113 415.295 97.3467H395.508ZM406.101 99.2923L402.342 97.9072L395.501 116.475L399.261 117.86L406.101 99.2923ZM407.851 111.45C410.169 106.591 410.843 102.188 410.843 97.2972H391.056C391.056 100.025 390.741 101.36 389.991 102.932L407.851 111.45ZM410.843 97.2972C410.843 93.2614 410.213 88.7757 407.922 84.9612C405.276 80.558 400.742 77.7076 395.261 77.7076V97.4951C394.564 97.4951 393.608 97.3162 392.649 96.7547C391.713 96.2056 391.191 95.5361 390.96 95.1512C390.752 94.8057 390.795 94.7255 390.881 95.1339C390.965 95.5295 391.056 96.2284 391.056 97.2972H410.843ZM395.261 77.7076C390.864 77.7076 386.627 79.6034 383.824 83.4205C381.324 86.8237 380.667 90.7834 380.667 94.0323H400.455C400.455 93.1753 400.664 93.9195 399.772 95.1337C399.281 95.8028 398.552 96.4637 397.604 96.9249C396.673 97.378 395.828 97.4951 395.261 97.4951V77.7076ZM380.667 94.0323V101.997H400.455V94.0323H380.667ZM390.561 92.103H386.406V111.89H390.561V92.103ZM396.3 101.997V94.0323H376.512V101.997H396.3ZM396.3 94.0323C396.3 91.1023 395.753 87.0852 393.165 83.5654C390.204 79.5376 385.731 77.7076 381.162 77.7076V97.4951C380.904 97.4951 380.226 97.4449 379.368 97.0428C378.474 96.6237 377.737 95.9857 377.222 95.2856C376.317 94.0538 376.512 93.2521 376.512 94.0323H396.3ZM381.162 77.7076C377.03 77.7076 372.605 79.2225 369.507 83.1394C366.721 86.6608 366.074 90.8088 366.074 94.0323H385.862C385.862 93.1499 386.08 94.0824 385.026 95.4148C384.454 96.1388 383.686 96.732 382.833 97.1029C382.023 97.4545 381.398 97.4951 381.162 97.4951V77.7076ZM366.074 94.0323V101.997H385.862V94.0323H366.074ZM375.968 92.103H371.813V111.89H375.968V92.103ZM381.706 101.997V94.0323H361.919V101.997H381.706ZM381.706 94.0323C381.706 91.0808 381.151 87.2495 378.84 83.8561C376.181 79.9532 371.904 77.7076 367.064 77.7076V97.4951C366.475 97.4951 365.575 97.3626 364.596 96.8506C363.614 96.3368 362.919 95.6317 362.485 94.9949C361.732 93.8894 361.919 93.2736 361.919 94.0323H381.706ZM367.064 77.7076C362.157 77.7076 357.573 79.9513 354.679 84.3202C352.179 88.0934 351.53 92.5528 351.53 96.4562H371.318C371.318 95.5199 371.404 94.983 371.456 94.7555C371.509 94.5235 371.49 94.773 371.175 95.2481C370.827 95.7731 370.21 96.4273 369.285 96.9108C368.376 97.3862 367.556 97.4951 367.064 97.4951V77.7076ZM351.53 96.4562C351.53 103.707 354.244 109.679 358.798 113.988C363.077 118.037 368.38 120.067 372.981 121.065L377.174 101.727C374.701 101.191 373.177 100.352 372.398 99.6148C372.052 99.2872 371.827 98.961 371.669 98.5881C371.509 98.2114 371.318 97.5544 371.318 96.4562H351.53ZM373 121.069C375.954 121.703 378.456 122.487 380.35 123.483C382.196 124.455 382.912 125.333 383.217 125.954L400.972 117.219C395.684 106.469 383.787 103.147 377.155 101.723L373 121.069ZM387.412 112.871L384.097 114.652L393.463 132.082L396.778 130.302L387.412 112.871ZM413.854 111L404.801 114.991L407.404 120.894H413.854V111ZM430.773 111V120.894H437.223L439.826 114.991L430.773 111ZM426.32 111L417.287 106.964L411.063 120.894H426.32V111ZM418.306 111V120.894H433.563L427.34 106.964L418.306 111ZM422.907 107.009C421.339 103.451 420.73 100.901 420.73 97.3467H400.943C400.943 104.082 402.313 109.347 404.801 114.991L422.907 107.009ZM420.73 97.3467C420.73 94.7865 421.372 93.9634 421.378 93.9559C421.382 93.9511 421.368 93.968 421.338 93.9907C421.307 94.0136 421.29 94.0197 421.305 94.0134C421.324 94.0051 421.608 93.8839 422.313 93.8839V74.0964C416.078 74.0964 410.248 76.3969 406.17 81.2963C402.305 85.9388 400.943 91.794 400.943 97.3467H420.73ZM422.313 93.8839C423.061 93.8839 423.359 94.0111 423.375 94.018C423.387 94.0233 423.364 94.0145 423.327 93.9861C423.31 93.9734 423.295 93.9606 423.283 93.9493C423.271 93.938 423.266 93.9314 423.266 93.9319C423.267 93.9326 423.275 93.943 423.291 93.9663C423.306 93.9898 423.329 94.0277 423.358 94.0831C423.415 94.1943 423.495 94.3778 423.577 94.6528C423.744 95.2149 423.896 96.0936 423.896 97.3467H443.684C443.684 91.8493 442.373 85.9854 438.514 81.3202C434.425 76.3765 428.566 74.0964 422.313 74.0964V93.8839ZM423.896 97.3467C423.896 100.901 423.288 103.451 421.72 107.009L439.826 114.991C442.314 109.347 443.684 104.082 443.684 97.3467H423.896ZM430.773 101.106H426.32V120.894H430.773V101.106ZM435.353 115.036C437.93 109.27 439.232 104.091 439.232 97.2972H419.444C419.444 100.991 418.866 103.43 417.287 106.964L435.353 115.036ZM439.232 97.2972C439.232 92.9633 438.374 88.1414 435.424 84.1636C432.152 79.7501 427.296 77.7076 422.313 77.7076V97.4951C422.162 97.4951 421.669 97.4622 421.027 97.1573C420.358 96.8399 419.848 96.3784 419.529 95.9489C419.24 95.5589 419.226 95.3581 419.285 95.5832C419.345 95.8139 419.444 96.3557 419.444 97.2972H439.232ZM422.313 77.7076C417.333 77.7076 412.453 79.7318 409.17 84.1832C406.226 88.1739 405.395 93.001 405.395 97.2972H425.183C425.183 96.3418 425.281 95.7911 425.342 95.5545C425.402 95.3234 425.388 95.5299 425.094 95.9293C424.768 96.3712 424.247 96.8413 423.57 97.1617C422.923 97.4681 422.436 97.4951 422.313 97.4951V77.7076ZM405.395 97.2972C405.395 104.091 406.697 109.27 409.273 115.036L427.34 106.964C425.76 103.43 425.183 100.991 425.183 97.2972H405.395ZM418.306 101.106H413.854V120.894H418.306V101.106Z" fill="#4192F5" mask="url(#path-1-outside-1_49_240)"/>
</svg>
