<svg width="263" height="206" viewBox="0 0 263 206" fill="none" xmlns="http://www.w3.org/2000/svg">
<mask id="path-1-outside-1_57_242" maskUnits="userSpaceOnUse" x="78" y="6" width="175" height="160" fill="black">
<rect fill="white" x="78" y="6" width="175" height="160"/>
<path d="M184.796 21.1063H195.054V78.0061H184.796V21.1063ZM158.261 42.8541H221.179V52.2918H158.261V42.8541ZM159.355 72.5349H211.604V81.8358H159.355V72.5349ZM208.732 72.5349H210.784L212.699 72.1246L219.264 75.2705C209.279 113.568 184.933 136 155.936 147.216C154.568 144.754 151.285 140.65 148.96 138.872C177.273 128.751 200.252 108.508 208.732 74.5866V72.5349ZM172.896 81.5623C181.24 107.96 199.021 129.298 224.325 138.188C222.136 140.24 218.99 144.207 217.486 146.805C191.224 136.41 173.58 113.705 164.006 84.0243L172.896 81.5623ZM123.109 21.2431H133.094V59.2674H123.109V21.2431ZM97.5314 33.5532H159.218V42.1702H97.5314V33.5532ZM100.814 54.2066H155.525V62.8237H100.814V54.2066ZM112.851 80.3313V95.6504H143.079V80.3313H112.851ZM103.413 72.1246H153.063V103.994H103.413V72.1246ZM107.106 108.781L115.723 106.456C119.279 112.884 122.015 121.502 122.835 127.109L113.534 129.982C112.851 124.1 110.389 115.483 107.106 108.781ZM138.975 105.362L148.413 107.824C145.677 115.21 142.668 123.416 140.069 129.024L132.136 126.836C134.461 120.954 137.471 111.653 138.975 105.362ZM96.1636 133.264C111.483 131.486 135.419 128.067 158.534 124.784L158.945 133.675C136.923 136.957 113.808 140.377 97.6682 142.839L96.1636 133.264Z"/>
</mask>
<path d="M184.796 21.1063H195.054V78.0061H184.796V21.1063ZM158.261 42.8541H221.179V52.2918H158.261V42.8541ZM159.355 72.5349H211.604V81.8358H159.355V72.5349ZM208.732 72.5349H210.784L212.699 72.1246L219.264 75.2705C209.279 113.568 184.933 136 155.936 147.216C154.568 144.754 151.285 140.65 148.96 138.872C177.273 128.751 200.252 108.508 208.732 74.5866V72.5349ZM172.896 81.5623C181.24 107.96 199.021 129.298 224.325 138.188C222.136 140.24 218.99 144.207 217.486 146.805C191.224 136.41 173.58 113.705 164.006 84.0243L172.896 81.5623ZM123.109 21.2431H133.094V59.2674H123.109V21.2431ZM97.5314 33.5532H159.218V42.1702H97.5314V33.5532ZM100.814 54.2066H155.525V62.8237H100.814V54.2066ZM112.851 80.3313V95.6504H143.079V80.3313H112.851ZM103.413 72.1246H153.063V103.994H103.413V72.1246ZM107.106 108.781L115.723 106.456C119.279 112.884 122.015 121.502 122.835 127.109L113.534 129.982C112.851 124.1 110.389 115.483 107.106 108.781ZM138.975 105.362L148.413 107.824C145.677 115.21 142.668 123.416 140.069 129.024L132.136 126.836C134.461 120.954 137.471 111.653 138.975 105.362ZM96.1636 133.264C111.483 131.486 135.419 128.067 158.534 124.784L158.945 133.675C136.923 136.957 113.808 140.377 97.6682 142.839L96.1636 133.264Z" fill="white"/>
<path d="M184.796 21.1063V6.10873H169.798V21.1063H184.796ZM195.054 21.1063H210.052V6.10873H195.054V21.1063ZM195.054 78.0061V93.0037H210.052V78.0061H195.054ZM184.796 78.0061H169.798V93.0037H184.796V78.0061ZM158.261 42.8541V27.8565H143.263V42.8541H158.261ZM221.179 42.8541H236.176V27.8565H221.179V42.8541ZM221.179 52.2918V67.2894H236.176V52.2918H221.179ZM158.261 52.2918H143.263V67.2894H158.261V52.2918ZM159.355 72.5349V57.5373H144.358V72.5349H159.355ZM211.604 72.5349H226.602V57.5373H211.604V72.5349ZM211.604 81.8358V96.8334H226.602V81.8358H211.604ZM159.355 81.8358H144.358V96.8334H159.355V81.8358ZM208.732 72.5349V57.5373H193.734V72.5349H208.732ZM210.784 72.5349V87.5325H212.373L213.926 87.1996L210.784 72.5349ZM212.699 72.1246L219.179 58.5995L214.562 56.3872L209.556 57.4599L212.699 72.1246ZM219.264 75.2705L233.776 79.0541L236.896 67.0887L225.745 61.7454L219.264 75.2705ZM155.936 147.216L142.825 154.499L149.167 165.914L161.346 161.204L155.936 147.216ZM148.96 138.872L143.911 124.75L117.943 134.033L139.85 150.786L148.96 138.872ZM208.732 74.5866L223.282 78.2241L223.73 76.4329V74.5866H208.732ZM172.896 81.5623L187.196 77.0425L182.836 63.2475L168.894 67.1086L172.896 81.5623ZM224.325 138.188L234.582 149.13L252.609 132.23L229.296 124.039L224.325 138.188ZM217.486 146.805L211.966 160.75L223.987 165.509L230.465 154.32L217.486 146.805ZM164.006 84.0243L160.003 69.5706L144.931 73.7445L149.732 88.6286L164.006 84.0243ZM123.109 21.2431V6.2455H108.111V21.2431H123.109ZM133.094 21.2431H148.091V6.2455H133.094V21.2431ZM133.094 59.2674V74.265H148.091V59.2674H133.094ZM123.109 59.2674H108.111V74.265H123.109V59.2674ZM97.5314 33.5532V18.5555H82.5338V33.5532H97.5314ZM159.218 33.5532H174.216V18.5555H159.218V33.5532ZM159.218 42.1702V57.1678H174.216V42.1702H159.218ZM97.5314 42.1702H82.5338V57.1678H97.5314V42.1702ZM100.814 54.2066V39.209H85.8165V54.2066H100.814ZM155.525 54.2066H170.523V39.209H155.525V54.2066ZM155.525 62.8237V77.8213H170.523V62.8237H155.525ZM100.814 62.8237H85.8165V77.8213H100.814V62.8237ZM112.851 80.3313V65.3337H97.8529V80.3313H112.851ZM112.851 95.6504H97.8529V110.648H112.851V95.6504ZM143.079 95.6504V110.648H158.076V95.6504H143.079ZM143.079 80.3313H158.076V65.3337H143.079V80.3313ZM103.413 72.1246V57.127H88.4152V72.1246H103.413ZM153.063 72.1246H168.061V57.127H153.063V72.1246ZM153.063 103.994V118.992H168.061V103.994H153.063ZM103.413 103.994H88.4152V118.992H103.413V103.994ZM107.106 108.781L103.199 94.3014L85.6351 99.0408L93.6371 115.378L107.106 108.781ZM115.723 106.456L128.846 99.1962L123.159 88.9153L111.816 91.9762L115.723 106.456ZM122.835 127.109L127.261 141.439L139.535 137.649L137.675 124.938L122.835 127.109ZM113.534 129.982L98.6372 131.714L100.721 149.635L117.96 144.312L113.534 129.982ZM138.975 105.362L142.761 90.8497L127.949 86.9858L124.389 101.874L138.975 105.362ZM148.413 107.824L162.477 113.033L168.232 97.4943L152.199 93.3118L148.413 107.824ZM140.069 129.024L136.081 143.482L148.333 146.862L153.677 135.33L140.069 129.024ZM132.136 126.836L118.189 121.322L112.049 136.852L128.148 141.293L132.136 126.836ZM96.1636 133.264L94.4344 118.367L78.9238 120.167L81.3478 135.593L96.1636 133.264ZM158.534 124.784L173.516 124.093L172.756 107.617L156.426 109.936L158.534 124.784ZM158.945 133.675L161.156 148.508L174.551 146.512L173.926 132.983L158.945 133.675ZM97.6682 142.839L82.8524 145.167L85.1701 159.916L99.9298 157.665L97.6682 142.839ZM184.796 36.1039H195.054V6.10873H184.796V36.1039ZM180.057 21.1063V78.0061H210.052V21.1063H180.057ZM195.054 63.0084H184.796V93.0037H195.054V63.0084ZM199.793 78.0061V21.1063H169.798V78.0061H199.793ZM158.261 57.8517H221.179V27.8565H158.261V57.8517ZM206.181 42.8541V52.2918H236.176V42.8541H206.181ZM221.179 37.2941H158.261V67.2894H221.179V37.2941ZM173.259 52.2918V42.8541H143.263V52.2918H173.259ZM159.355 87.5325H211.604V57.5373H159.355V87.5325ZM196.607 72.5349V81.8358H226.602V72.5349H196.607ZM211.604 66.8382H159.355V96.8334H211.604V66.8382ZM174.353 81.8358V72.5349H144.358V81.8358H174.353ZM208.732 87.5325H210.784V57.5373H208.732V87.5325ZM213.926 87.1996L215.841 86.7893L209.556 57.4599L207.641 57.8702L213.926 87.1996ZM206.218 85.6497L212.783 88.7956L225.745 61.7454L219.179 58.5995L206.218 85.6497ZM204.751 71.4869C196.096 104.687 175.456 123.585 150.525 133.228L161.346 161.204C194.409 148.415 222.463 122.45 233.776 79.0541L204.751 71.4869ZM169.046 139.932C167.767 137.631 166.002 135.216 164.38 133.249C162.822 131.358 160.572 128.872 158.07 126.959L139.85 150.786C139.655 150.637 139.739 150.679 140.098 151.048C140.418 151.376 140.811 151.814 141.233 152.326C141.652 152.834 142.038 153.341 142.35 153.782C142.504 153.999 142.624 154.18 142.713 154.317C142.804 154.46 142.837 154.52 142.825 154.499L169.046 139.932ZM154.009 152.995C186.189 141.49 213.381 117.826 223.282 78.2241L194.182 70.9491C187.122 99.1896 168.357 116.011 143.911 124.75L154.009 152.995ZM223.73 74.5866V72.5349H193.734V74.5866H223.73ZM158.596 86.0821C168.055 116.011 188.72 141.575 219.353 152.338L229.296 124.039C209.321 117.021 194.424 99.9101 187.196 77.0425L158.596 86.0821ZM214.067 127.247C210.802 130.308 206.741 135.431 204.507 139.291L230.465 154.32C231.24 152.982 233.471 150.172 234.582 149.13L214.067 127.247ZM223.006 132.861C202.048 124.565 186.903 106.155 178.279 79.42L149.732 88.6286C160.257 121.256 180.401 148.256 211.966 160.75L223.006 132.861ZM168.008 98.4779L176.899 96.0159L168.894 67.1086L160.003 69.5706L168.008 98.4779ZM123.109 36.2407H133.094V6.2455H123.109V36.2407ZM118.096 21.2431V59.2674H148.091V21.2431H118.096ZM133.094 44.2698H123.109V74.265H133.094V44.2698ZM138.107 59.2674V21.2431H108.111V59.2674H138.107ZM97.5314 48.5508H159.218V18.5555H97.5314V48.5508ZM144.221 33.5532V42.1702H174.216V33.5532H144.221ZM159.218 27.1726H97.5314V57.1678H159.218V27.1726ZM112.529 42.1702V33.5532H82.5338V42.1702H112.529ZM100.814 69.2043H155.525V39.209H100.814V69.2043ZM140.528 54.2066V62.8237H170.523V54.2066H140.528ZM155.525 47.8261H100.814V77.8213H155.525V47.8261ZM115.812 62.8237V54.2066H85.8165V62.8237H115.812ZM97.8529 80.3313V95.6504H127.848V80.3313H97.8529ZM112.851 110.648H143.079V80.6528H112.851V110.648ZM158.076 95.6504V80.3313H128.081V95.6504H158.076ZM143.079 65.3337H112.851V95.3289H143.079V65.3337ZM103.413 87.1222H153.063V57.127H103.413V87.1222ZM138.066 72.1246V103.994H168.061V72.1246H138.066ZM153.063 88.9963H103.413V118.992H153.063V88.9963ZM118.41 103.994V72.1246H88.4152V103.994H118.41ZM111.013 123.261L119.63 120.936L111.816 91.9762L103.199 94.3014L111.013 123.261ZM102.599 113.716C105.275 118.552 107.434 125.444 107.996 129.281L137.675 124.938C136.595 117.559 133.283 107.217 128.846 99.1962L102.599 113.716ZM118.41 112.78L109.109 115.652L117.96 144.312L127.261 141.439L118.41 112.78ZM128.432 128.25C127.542 120.594 124.568 110.338 120.575 102.184L93.6371 115.378C96.2086 120.628 98.1596 127.606 98.6372 131.714L128.432 128.25ZM135.189 119.874L144.627 122.336L152.199 93.3118L142.761 90.8497L135.189 119.874ZM134.349 102.615C131.512 110.274 128.747 117.787 126.462 122.718L153.677 135.33C156.589 129.046 159.843 120.145 162.477 113.033L134.349 102.615ZM144.058 114.567L136.125 112.378L128.148 141.293L136.081 143.482L144.058 114.567ZM146.083 132.35C148.638 125.888 151.874 115.909 153.562 108.85L124.389 101.874C123.068 107.398 120.285 116.021 118.189 121.322L146.083 132.35ZM97.8928 148.162C113.453 146.356 137.632 142.901 160.643 139.633L156.426 109.936C133.206 113.233 109.513 116.617 94.4344 118.367L97.8928 148.162ZM143.553 125.476L143.963 134.366L173.926 132.983L173.516 124.093L143.553 125.476ZM156.734 118.841C134.744 122.119 111.58 125.546 95.4066 128.013L99.9298 157.665C116.036 155.208 139.103 151.796 161.156 148.508L156.734 118.841ZM112.484 140.511L110.979 130.936L81.3478 135.593L82.8524 145.167L112.484 140.511Z" fill="#0022FF" mask="url(#path-1-outside-1_57_242)"/>
</svg>
